<svg width="250" height="250" viewBox="0 0 250 250" fill="none" xmlns="http://www.w3.org/2000/svg">
<path d="M139.22 231.03C130.6 226.95 127.165 217.25 125.95 208.215C125.745 206.715 125.315 205.155 125.805 203.715C126.295 202.275 127.805 201.1 129.255 201.505C130.46 201.84 131.165 203.05 131.97 204.005C133.041 205.293 134.456 206.251 136.05 206.765C137.09 207.1 138.325 207.205 139.18 206.525C140.35 205.59 140.18 203.78 139.94 202.29C139.45 199.527 138.97 196.763 138.5 194C138.161 192.525 138.061 191.006 138.205 189.5C138.425 188 139.23 186.5 140.58 185.88C141.93 185.26 143.825 185.765 144.37 187.175C144.531 187.781 144.651 188.398 144.73 189.02C144.875 189.635 145.28 190.27 145.895 190.345C146.51 190.42 147.045 189.895 147.42 189.38C148.7 187.615 149.42 185.5 150.07 183.405C150.72 181.31 151.33 179.175 152.45 177.295C153.57 175.415 155.28 173.795 157.395 173.295C159.51 172.795 162.01 173.745 162.895 175.75C163.78 177.755 162.925 180.1 161.895 182.03C160.331 184.888 158.362 187.505 156.05 189.8C155.589 190.167 155.256 190.672 155.1 191.24C154.945 192.29 156.055 193.12 157.1 193.28C158.27 193.46 159.46 193.14 160.645 193.08C161.83 193.02 163.175 193.32 163.805 194.345C164.67 195.765 163.665 197.58 162.59 198.845C160.431 201.365 157.855 203.496 154.975 205.145C153.945 205.73 152.85 206.28 152.095 207.2C151.34 208.12 151.035 209.55 151.745 210.51C152.455 211.47 153.89 211.575 155 211.165C156.11 210.755 157.035 209.96 158.06 209.365C159.98 208.245 162.65 207.935 164.265 209.485C164.769 210.027 165.14 210.678 165.349 211.388C165.558 212.098 165.599 212.846 165.47 213.575C165.204 215.026 164.648 216.409 163.835 217.64C161.245 222.091 157.522 225.776 153.045 228.32C148.57 230.77 144.24 231.965 139.225 231.035" fill="#F5F5F5"/>
<path d="M140.585 225C141.248 219.854 142.206 214.751 143.455 209.715L144.415 205.75C144.73 204.445 145.045 203.155 145.415 201.915C146.163 199.535 147.041 197.198 148.045 194.915C148.99 192.725 149.965 190.675 150.89 188.77C151.815 186.865 152.72 185.105 153.61 183.54C154.999 181.058 156.584 178.69 158.35 176.46C158.975 175.67 159.48 175.075 159.825 174.675C159.99 174.485 160.125 174.335 160.22 174.22C160.315 174.105 160.36 174.07 160.365 174.075C160.329 174.133 160.289 174.188 160.245 174.24L159.865 174.71C159.535 175.12 159.045 175.71 158.435 176.525C156.708 178.777 155.152 181.156 153.78 183.64C152.905 185.21 152.015 186.97 151.095 188.875C150.175 190.78 149.215 192.83 148.28 195.02C147.284 197.304 146.416 199.64 145.68 202.02C145.295 203.255 144.985 204.52 144.68 205.84L143.72 209.81C142.474 214.836 141.511 219.927 140.835 225.06" fill="#E0E0E0"/>
<path d="M145.5 201.895C145.392 201.7 145.306 201.494 145.245 201.28C145.095 200.885 144.9 200.28 144.67 199.575C144.21 198.125 143.64 196.1 143.02 193.87C142.4 191.64 141.805 189.625 141.32 188.19C141.08 187.47 140.88 186.885 140.74 186.49C140.656 186.285 140.591 186.072 140.545 185.855C140.666 186.041 140.765 186.241 140.84 186.45C141.015 186.835 141.24 187.41 141.505 188.12C142.04 189.55 142.665 191.555 143.29 193.795C143.915 196.035 144.44 197.995 144.86 199.515C145.055 200.205 145.215 200.785 145.36 201.25C145.425 201.46 145.472 201.676 145.5 201.895Z" fill="#E0E0E0"/>
<path d="M164.075 195.065C163.834 195.166 163.582 195.241 163.325 195.29C162.825 195.415 162.14 195.595 161.28 195.845C159.555 196.345 157.2 197.085 154.635 198.035C152.07 198.985 149.785 199.95 148.135 200.69C147.315 201.055 146.66 201.37 146.205 201.585C145.977 201.71 145.737 201.813 145.49 201.895C145.697 201.736 145.92 201.598 146.155 201.485C146.595 201.24 147.24 200.9 148.05 200.485C149.665 199.695 151.945 198.7 154.515 197.745C156.709 196.925 158.943 196.219 161.21 195.63C162.08 195.4 162.79 195.25 163.285 195.155C163.545 195.101 163.81 195.071 164.075 195.065Z" fill="#E0E0E0"/>
<path d="M140.76 224.615C140.696 224.55 140.639 224.477 140.59 224.4L140.145 223.765C139.76 223.205 139.225 222.39 138.58 221.37C137.28 219.33 135.58 216.455 133.745 213.255C131.91 210.055 130.245 207.17 128.98 205.11L127.48 202.665L127.08 202C127.027 201.926 126.985 201.846 126.955 201.76C126.955 201.76 127.02 201.825 127.125 201.97C127.23 202.115 127.395 202.35 127.57 202.61C127.955 203.165 128.49 203.98 129.14 205.005C130.435 207.045 132.14 209.915 133.975 213.115C135.81 216.315 137.475 219.2 138.735 221.265L140.235 223.705C140.395 223.97 140.53 224.205 140.635 224.37C140.689 224.445 140.731 224.528 140.76 224.615Z" fill="#E0E0E0"/>
<path d="M164.85 212.09C164.78 212.152 164.701 212.202 164.615 212.24L163.92 212.61L161.34 213.955C159.16 215.095 156.17 216.7 152.87 218.455C149.57 220.21 146.565 221.815 144.37 222.905C143.27 223.45 142.37 223.905 141.75 224.17L141 224.5C140.918 224.544 140.831 224.577 140.74 224.6C140.812 224.54 140.891 224.49 140.975 224.45L141.675 224.08L144.255 222.73C146.43 221.595 149.42 219.99 152.72 218.23C156.02 216.47 159.03 214.875 161.22 213.785C162.32 213.24 163.22 212.785 163.84 212.52L164.56 212.19C164.651 212.142 164.749 212.108 164.85 212.09Z" fill="#E0E0E0"/>
<path d="M76.6997 123.705C76.6997 123.705 70.7597 124.53 74.0947 137.54C77.4297 150.55 80.2597 157.26 80.2597 157.26C80.2597 157.26 80.7047 160.205 78.3297 160.115C75.9547 160.025 71.1097 158.115 69.4647 160.66C67.7647 163.32 69.2547 166.52 72.9647 169.875C76.6747 173.23 84.5847 180.875 85.2947 181.57C86.0047 182.265 86.5247 183.695 84.8947 183.89C83.2647 184.085 71.7047 182.73 71.3947 188.255C71.0847 193.78 82.9997 201.42 84.2847 202.28C85.5697 203.14 85.7847 203.81 85.4847 204.56C85.1847 205.31 81.3547 204.485 78.0497 204.23C74.7447 203.975 70.8647 204.27 70.9497 207.47C71.0347 210.67 77.2947 218.77 95.5447 224.79L104.19 227.025L110.575 220.735C123.425 206.44 124.83 196.305 123.315 193.485C121.8 190.665 118.315 192.34 115.545 194.2C112.775 196.06 109.875 198.7 109.255 198.2C108.635 197.7 108.475 197.01 109.165 195.625C109.855 194.24 116.4 181.69 113.38 177.05C110.36 172.41 101 179.32 99.4997 179.955C97.9997 180.59 97.7297 179.08 97.9997 178.14C98.2697 177.2 101.32 166.64 102.89 161.865C104.46 157.09 104.16 153.58 101.36 152.12C98.6597 150.715 95.4147 154.795 93.3947 156.055C91.3747 157.315 90.3047 154.555 90.3047 154.555C90.3047 154.555 89.4247 147.33 85.8547 134.38C82.2847 121.43 76.5897 123.75 76.5897 123.75" fill="#EBEBEB"/>
<path d="M104.185 229.175C101.6 219.675 97.2847 202.675 93.5097 188.08C89.7347 173.485 86.3047 160.325 83.7647 150.795C82.4947 146.035 81.4647 142.185 80.7647 139.51C80.4147 138.185 80.1397 137.15 79.9497 136.44L79.7397 135.64C79.6947 135.46 79.6797 135.365 79.6797 135.365C79.6797 135.365 79.7147 135.45 79.7697 135.63C79.8247 135.81 79.8997 136.085 79.9997 136.425C80.2047 137.135 80.4997 138.16 80.8697 139.48C81.6197 142.135 82.6797 145.98 83.9697 150.74C86.5547 160.24 90.0197 173.445 93.7947 188.01C97.5697 202.575 101.85 219.59 104.39 229.12" fill="#E0E0E0"/>
<path d="M76.1348 163.63C76.3345 163.712 76.5254 163.815 76.7048 163.935C77.0598 164.145 77.5698 164.465 78.2048 164.865C79.4498 165.67 81.1448 166.825 82.9898 168.13L87.6998 171.49L89.1348 172.49C89.3157 172.603 89.4834 172.735 89.6348 172.885C89.4331 172.804 89.2404 172.701 89.0598 172.58C88.7048 172.37 88.1948 172.05 87.5598 171.645C86.3248 170.83 84.6448 169.645 82.7998 168.345L78.0648 165.02L76.6248 164.02C76.448 163.908 76.2837 163.777 76.1348 163.63Z" fill="#E0E0E0"/>
<path d="M90.3598 172.47C90.2948 172.43 92.5198 168.835 95.3248 164.44C98.1298 160.045 100.465 156.515 100.53 156.555C100.595 156.595 98.3698 160.195 95.5598 164.59C92.7498 168.985 90.4248 172.5 90.3598 172.47Z" fill="#E0E0E0"/>
<path d="M95.1504 195.11C95.2888 194.937 95.4484 194.783 95.6254 194.65L96.9704 193.47C98.1054 192.47 99.6704 191.09 101.34 189.5C103.01 187.91 104.48 186.425 105.53 185.34C106.03 184.84 106.44 184.395 106.775 184.055C106.927 183.887 107.094 183.735 107.275 183.6C107.165 183.791 107.03 183.968 106.875 184.125C106.605 184.45 106.2 184.91 105.69 185.47C104.69 186.595 103.23 188.11 101.55 189.7C99.8704 191.29 98.2904 192.66 97.1204 193.62C96.5304 194.12 96.0504 194.48 95.7104 194.735C95.5381 194.88 95.3503 195.006 95.1504 195.11Z" fill="#E0E0E0"/>
<path d="M80.5254 189.945C80.7272 189.969 80.9253 190.018 81.1154 190.09L82.7004 190.59C84.0304 191.015 85.8654 191.62 87.8854 192.3C89.9054 192.98 91.7304 193.62 93.0454 194.095L94.6004 194.665C94.794 194.726 94.9802 194.808 95.1554 194.91C94.9534 194.89 94.755 194.843 94.5654 194.77L92.9804 194.27C91.6504 193.845 89.8154 193.24 87.7954 192.555C85.7754 191.87 83.9504 191.235 82.6354 190.765L81.0804 190.19C80.8852 190.134 80.6986 190.051 80.5254 189.945Z" fill="#E0E0E0"/>
<path d="M82.2148 210.47C82.4721 210.508 82.725 210.572 82.9698 210.66L84.9998 211.28C86.7098 211.815 89.0648 212.57 91.6648 213.425C94.2648 214.28 96.6098 215.06 98.3048 215.645L100.305 216.345C100.554 216.425 100.796 216.523 101.03 216.64C100.771 216.602 100.516 216.538 100.27 216.45L98.2398 215.83C96.5298 215.295 94.1748 214.54 91.5748 213.685C88.9748 212.83 86.6298 212.045 84.9398 211.465L82.9398 210.76C82.6899 210.685 82.4473 210.588 82.2148 210.47Z" fill="#E0E0E0"/>
<path d="M100.62 216.365C100.796 216.149 100.992 215.95 101.205 215.77L102.86 214.215C104.255 212.9 106.175 211.075 108.24 209C110.305 206.925 112.13 205 113.44 203.6L114.99 201.94C115.173 201.728 115.372 201.531 115.585 201.35C115.439 201.585 115.272 201.806 115.085 202.01C114.745 202.425 114.235 203.01 113.585 203.73C112.31 205.17 110.51 207.12 108.435 209.195C106.36 211.27 104.435 213.08 102.995 214.36C102.275 214.995 101.69 215.51 101.275 215.86C101.071 216.046 100.852 216.215 100.62 216.365Z" fill="#E0E0E0"/>
<path d="M50.8996 46.1201L46.0196 44.6201C46.0196 44.6201 44.7396 48.7201 40.4596 47.4651C39.631 47.2369 38.8938 46.7568 38.3501 46.0912C37.8063 45.4257 37.4829 44.6075 37.4246 43.7501C37.3605 43.027 37.47 42.2991 37.744 41.6268C38.0179 40.9546 38.4484 40.3574 38.9996 39.8851C40.2546 38.7751 42.4546 38.1001 45.5596 39.7051L48.9946 28.7051L44.1696 27.2051L42.1696 33.6501C42.1696 33.6501 34.8496 33.2851 32.5246 40.7401C30.2996 47.8751 36.1796 51.5301 38.9196 52.3851C40.9996 53.0351 48.3046 54.7551 50.8996 46.1201Z" fill="#F5F5F5"/>
<path d="M44.8236 24.9155L49.7207 26.4436L51.1475 21.871L46.2504 20.3429L44.8236 24.9155Z" fill="#F5F5F5"/>
<path d="M64.3649 33.7001L66.3199 33.2001C66.2603 32.9781 66.2458 32.7463 66.2775 32.5186C66.3092 32.2909 66.3863 32.0719 66.5043 31.8746C66.6223 31.6773 66.7788 31.5057 66.9644 31.3701C67.1501 31.2345 67.3611 31.1375 67.5849 31.0851C67.9107 30.9868 68.2589 30.9922 68.5814 31.1006C68.9039 31.209 69.1847 31.415 69.385 31.6901C69.5549 31.9185 69.6684 32.1839 69.7162 32.4646C69.764 32.7453 69.7447 33.0333 69.66 33.3051C69.475 33.9401 68.8799 34.6301 67.4999 34.7451L68.6649 39.1501L70.5949 38.6501L69.9149 36.0701C70.6468 35.6287 71.2132 34.9587 71.5268 34.1636C71.8403 33.3685 71.8836 32.4923 71.6499 31.6701C70.8999 28.8101 68.15 28.8251 67.065 29.1101C66.225 29.3051 63.4199 30.2601 64.3649 33.7001Z" fill="#EBEBEB"/>
<path d="M71.2757 39.2925L69.3066 39.8203L69.7993 41.6585L71.7684 41.1307L71.2757 39.2925Z" fill="#EBEBEB"/>
<path d="M225.771 84.305L227.671 84.99C227.75 84.7748 227.872 84.5778 228.029 84.4105C228.186 84.2432 228.375 84.109 228.585 84.0159C228.794 83.9227 229.021 83.8724 229.25 83.8679C229.479 83.8635 229.707 83.905 229.921 83.99C230.241 84.0929 230.521 84.2924 230.723 84.5609C230.926 84.8294 231.04 85.1539 231.051 85.49C231.062 85.7768 231.006 86.0622 230.886 86.323C230.766 86.5837 230.586 86.8123 230.361 86.99C229.861 87.405 228.966 87.63 227.766 86.94L226.211 91.225L228.09 91.905L229.001 89.405C229.854 89.4579 230.701 89.2292 231.412 88.7541C232.123 88.279 232.658 87.5837 232.936 86.775C233.936 83.995 231.681 82.45 230.616 82.065C229.801 81.745 226.951 80.94 225.771 84.305Z" fill="#EBEBEB"/>
<path d="M227.809 92.7738L225.9 92.0825L225.255 93.8642L227.164 94.5556L227.809 92.7738Z" fill="#EBEBEB"/>
<path d="M24.1301 106.065L28.1301 104.515C28.1301 104.515 26.8301 101.14 30.3151 99.7251C30.9821 99.4429 31.7202 99.3745 32.4276 99.5295C33.1351 99.6844 33.7771 100.055 34.2651 100.59C34.6803 101.035 34.9845 101.572 35.1531 102.156C35.3216 102.741 35.3497 103.357 35.2351 103.955C34.9851 105.345 33.8851 106.955 30.9901 107.51L34.4901 116.575L38.4901 115.045L36.4401 109.735C36.4401 109.735 41.4401 106.145 39.0951 99.9951C36.8201 94.1151 31.0001 94.7851 28.7651 95.6501C27.0401 96.3151 21.3201 99.0001 24.1301 106.065Z" fill="#F5F5F5"/>
<path d="M39.2478 116.89L35.2119 118.445L36.6643 122.215L40.7002 120.66L39.2478 116.89Z" fill="#F5F5F5"/>
<path d="M227.336 121.32L224.486 122.415C224.486 122.415 225.406 124.81 222.936 125.81C222.463 126.008 221.94 126.055 221.439 125.946C220.939 125.837 220.483 125.577 220.136 125.2C219.841 124.885 219.626 124.504 219.507 124.09C219.388 123.675 219.369 123.239 219.451 122.815C219.631 121.815 220.411 120.695 222.451 120.315L220.001 113.87L217.181 114.955L218.631 118.72C217.604 119.505 216.864 120.606 216.525 121.852C216.185 123.099 216.264 124.423 216.751 125.62C218.356 129.785 222.466 129.315 224.066 128.7C225.276 128.225 229.326 126.325 227.336 121.32Z" fill="#F5F5F5"/>
<path d="M216.622 113.649L219.482 112.547L218.454 109.878L215.594 110.98L216.622 113.649Z" fill="#F5F5F5"/>
<path d="M235.385 231.885C235.385 231.96 185.96 232.015 125.005 232.015C64.0502 232.015 14.6152 231.96 14.6152 231.885C14.6152 231.81 64.0302 231.755 125.005 231.755C185.98 231.755 235.385 231.815 235.385 231.885Z" fill="#263238"/>
<path d="M46.3203 218.9C46.8203 217.06 45.5853 215.215 44.2353 213.9C42.8853 212.585 41.2703 211.375 40.5653 209.61C39.4253 206.75 40.9553 203.05 39.0153 200.665C37.8703 199.265 35.8203 198.795 34.8053 197.295C34.336 196.468 34.0257 195.561 33.8903 194.62C32.8115 189.87 30.4749 185.497 27.1253 181.96C26.8996 186.191 27.8166 190.405 29.7803 194.16C30.5653 195.66 31.5353 197.12 31.7803 198.795C32.2053 201.51 30.6853 204.295 31.3553 206.975C32.1203 210.025 35.5453 212.07 35.7053 215.21C35.8453 217.865 33.5303 220.21 33.7053 222.85C33.8456 223.981 34.2554 225.061 34.9003 226C36.9503 229.415 39.9703 231.765 44.5403 231.69L50.1403 231.885L46.3203 218.9Z" fill="#3DBB47"/>
<g opacity="0.3">
<path d="M46.3203 218.9C46.8203 217.06 45.5853 215.215 44.2353 213.9C42.8853 212.585 41.2703 211.375 40.5653 209.61C39.4253 206.75 40.9553 203.05 39.0153 200.665C37.8703 199.265 35.8203 198.795 34.8053 197.295C34.336 196.468 34.0257 195.561 33.8903 194.62C32.8115 189.87 30.4749 185.497 27.1253 181.96C26.8996 186.191 27.8166 190.405 29.7803 194.16C30.5653 195.66 31.5353 197.12 31.7803 198.795C32.2053 201.51 30.6853 204.295 31.3553 206.975C32.1203 210.025 35.5453 212.07 35.7053 215.21C35.8453 217.865 33.5303 220.21 33.7053 222.85C33.8456 223.981 34.2554 225.061 34.9003 226C36.9503 229.415 39.9703 231.765 44.5403 231.69L50.1403 231.885L46.3203 218.9Z" fill="black"/>
</g>
<path d="M51.2706 232C51.7835 232.079 52.3062 232.069 52.8156 231.97C53.4341 231.876 54.0419 231.722 54.6306 231.51C55.4435 231.227 56.2038 230.812 56.8806 230.28C57.2878 229.953 57.6059 229.528 57.8056 229.045C57.9728 228.504 58.0604 227.941 58.0656 227.375C58.0768 226.77 58.1219 226.165 58.2006 225.565C58.3059 224.926 58.5371 224.314 58.8806 223.765C59.5406 222.605 60.6406 221.505 60.9906 219.93C61.3406 218.355 61.1006 216.705 60.8406 215.025C60.5806 213.345 60.3406 211.525 60.9706 209.765C61.6006 208.005 62.8006 206.43 63.4156 204.46C64.0306 202.49 63.7406 200.32 63.8706 198.205C63.909 197.131 64.1569 196.074 64.6006 195.095C65.0506 194.095 65.6806 193.17 66.1706 192.13C67.1706 190.02 67.3406 187.63 67.6106 185.285C67.7456 184.105 67.8756 182.91 68.0106 181.71C68.0957 180.497 68.3051 179.296 68.6356 178.125C69.0149 176.945 69.4623 175.788 69.9756 174.66C70.2399 174.077 70.4572 173.473 70.6256 172.855C70.7198 172.215 70.7799 171.571 70.8056 170.925C70.8652 169.631 70.815 168.335 70.6556 167.05C70.5056 165.76 70.2706 164.48 70.1306 163.185C70.1306 163.105 70.1306 163.03 70.1306 162.96L70.1006 162.705L69.8756 162.815C68.6934 163.422 67.6668 164.293 66.8756 165.36C66.0995 166.405 65.475 167.555 65.0206 168.775C64.0856 171.18 63.7506 173.7 63.2806 176.105C62.8106 178.51 62.2106 180.875 60.9806 182.875C60.3656 183.875 59.6206 184.785 58.9806 185.755C58.2856 186.702 57.8107 187.792 57.5906 188.945C57.2556 191.315 58.5606 193.395 58.2906 195.495C58.1688 196.524 57.8278 197.514 57.2906 198.4C56.7906 199.295 56.1856 200.125 55.6156 200.955C55.0378 201.769 54.5358 202.634 54.1156 203.54C53.7201 204.426 53.4864 205.376 53.4256 206.345C53.2906 208.235 53.5556 210.025 53.4256 211.715C53.2695 213.326 52.7989 214.89 52.0406 216.32C51.3656 217.695 50.6106 218.94 49.9806 220.15C49.6656 220.75 49.3706 221.34 49.1306 221.935C48.9035 222.506 48.7359 223.099 48.6306 223.705C48.4632 224.763 48.4498 225.839 48.5906 226.9C48.7375 228.38 49.2913 229.791 50.1906 230.975C50.3281 231.154 50.4803 231.321 50.6456 231.475C50.756 231.591 50.8783 231.695 51.0106 231.785C51.2206 231.94 51.3306 232.01 51.3306 232.01C50.9309 231.694 50.567 231.335 50.2456 230.94C49.3871 229.751 48.8686 228.351 48.7456 226.89C48.6183 225.842 48.6418 224.781 48.8156 223.74C48.9209 223.149 49.0885 222.571 49.3156 222.015C49.5689 221.414 49.8543 220.826 50.1706 220.255C50.8056 219.055 51.5656 217.815 52.2556 216.43C53.0366 214.978 53.5226 213.386 53.6856 211.745C53.8356 210.02 53.5756 208.22 53.7156 206.38C53.78 205.443 54.0084 204.524 54.3906 203.665C54.8134 202.778 55.3154 201.932 55.8906 201.135C56.4606 200.305 57.0656 199.475 57.5856 198.56C58.1563 197.641 58.5213 196.609 58.6556 195.535C58.9256 193.3 57.6306 191.21 57.9656 189.005C58.1847 187.902 58.6439 186.861 59.3106 185.955C59.9456 185 60.6956 184.09 61.3106 183.065C62.5856 181.01 63.2006 178.6 63.6656 176.185C64.1306 173.77 64.4756 171.27 65.3956 168.91C65.8381 167.724 66.4457 166.606 67.2006 165.59C67.9617 164.566 68.949 163.731 70.0856 163.15L69.8306 163.005C69.8306 163.08 69.8306 163.155 69.8556 163.235C69.9956 164.545 70.2306 165.825 70.3556 167.105C70.5135 168.37 70.562 169.647 70.5006 170.92C70.4753 171.546 70.4185 172.17 70.3306 172.79C70.169 173.388 69.9583 173.972 69.7006 174.535C69.1846 175.675 68.7339 176.844 68.3506 178.035C68.0173 179.224 67.8062 180.443 67.7206 181.675C67.5906 182.88 67.4556 184.075 67.3256 185.255C67.0556 187.61 66.8806 189.96 65.9256 191.995C65.4256 192.995 64.8256 193.95 64.3606 194.97C63.9029 195.986 63.6482 197.082 63.6106 198.195C63.4856 200.355 63.7656 202.47 63.1806 204.38C62.5956 206.29 61.3806 207.88 60.7656 209.685C60.1506 211.49 60.3756 213.4 60.6456 215.075C60.9156 216.75 61.1856 218.4 60.8256 219.885C60.4656 221.37 59.4356 222.48 58.7656 223.67C58.4123 224.243 58.1761 224.88 58.0706 225.545C57.995 226.152 57.955 226.763 57.9506 227.375C57.9514 227.927 57.8705 228.477 57.7106 229.005C57.5254 229.463 57.2279 229.867 56.8456 230.18C56.187 230.711 55.4454 231.13 54.6506 231.42C54.0697 231.644 53.4686 231.811 52.8556 231.92C52.4809 231.988 52.1013 232.025 51.7206 232.03C51.4056 232 51.2706 232 51.2706 232Z" fill="#263238"/>
<path d="M68.9602 166.05C68.9334 166.104 68.9149 166.161 68.9052 166.22L68.7852 166.72C68.6752 167.165 68.5402 167.83 68.3302 168.66C68.1202 169.49 67.6052 170.43 67.1702 171.585C66.6607 172.885 66.2168 174.21 65.8402 175.555C65.4102 177.055 65.0352 178.705 64.6352 180.485C64.2952 182.381 63.6928 184.22 62.8452 185.95C62.3852 186.86 61.8452 187.78 61.4602 188.79C61.0564 189.821 60.7859 190.9 60.6552 192C60.3708 194.278 59.9669 196.539 59.4452 198.775C58.3252 203.36 57.2552 207.73 56.2802 211.71C55.3052 215.69 54.3852 219.25 53.6252 222.26C52.8652 225.27 52.2902 227.67 51.8702 229.385C51.6752 230.205 51.5202 230.85 51.4102 231.325C51.3652 231.53 51.3252 231.695 51.2952 231.825C51.2896 231.883 51.2896 231.942 51.2952 232C51.3242 231.948 51.3461 231.893 51.3602 231.835C51.3952 231.7 51.4452 231.54 51.5052 231.335C51.6302 230.87 51.8052 230.225 52.0302 229.41C52.4802 227.71 53.1152 225.295 53.9002 222.32C54.6852 219.345 55.6002 215.745 56.6252 211.79C57.6502 207.835 58.6902 203.435 59.8202 198.845C60.3385 196.604 60.7325 194.335 61.0002 192.05C61.1279 190.977 61.39 189.923 61.7802 188.915C62.1752 187.915 62.6802 187.02 63.1402 186.1C64.1402 184.275 64.5352 182.315 64.9302 180.55C65.3252 178.785 65.6752 177.115 66.0852 175.625C66.4952 174.135 66.9252 172.805 67.3552 171.655C67.7852 170.505 68.2602 169.555 68.4652 168.695C68.6702 167.835 68.7652 167.195 68.8552 166.735C68.8885 166.528 68.9185 166.362 68.9452 166.235C68.9602 166.11 68.9702 166.05 68.9602 166.05Z" fill="#263238"/>
<path d="M52.2605 232.025C55.9155 229.85 56.9655 223.25 55.4405 219.28C53.9155 215.31 51.2455 211.68 50.8355 207.445C50.5155 204.19 51.5855 200.85 50.8355 197.67C49.8105 193.375 45.6205 190.05 45.6705 185.635C45.6955 183.16 47.1055 180.83 46.9905 178.355C46.8555 175.325 44.5255 172.915 43.0855 170.245C40.8755 166.15 40.7305 161.315 39.9755 156.745C39.2205 152.175 37.4755 147.245 33.4055 144.99C32.8055 148.885 31.7805 151.555 32.1005 156.83C32.2205 158.725 34.4205 162.33 34.7205 166.505C34.9005 169.005 35.0205 171.475 35.1755 173.955C35.3305 176.435 35.4805 178.835 36.3455 181.095C37.0105 182.83 38.0755 184.405 38.5705 186.195C39.4955 189.56 38.2755 193.195 39.0255 196.615C39.6605 199.505 41.6605 201.99 42.0705 204.92C42.6405 209.035 39.9805 213.315 41.3405 217.24C42.0205 219.19 43.6205 220.74 44.0755 222.765C44.4305 224.325 44.0455 225.98 44.3655 227.545C44.8655 230.075 49.6955 232.045 52.2705 231.88" fill="#3DBB47"/>
<path d="M34.4055 148.835C34.3987 148.908 34.3987 148.982 34.4055 149.055C34.4055 149.22 34.4555 149.43 34.4855 149.695C34.5705 150.26 34.6655 151.085 34.8555 152.155C35.0455 153.225 35.6155 154.435 36.0555 155.895C36.4955 157.355 36.9855 159.025 37.3955 160.895C37.8055 162.765 38.1655 164.85 38.5305 167.085C38.8955 169.32 39.2955 171.755 40.4055 174.085C40.9055 175.25 41.4955 176.42 41.9055 177.67C42.3256 178.949 42.5843 180.276 42.6755 181.62C42.8799 184.471 43.2388 187.308 43.7505 190.12C44.8705 195.89 45.9355 201.385 46.9055 206.39C47.8755 211.395 48.8505 215.86 49.6305 219.64C50.4105 223.42 51.0505 226.44 51.4955 228.57L51.9955 230.995C52.0555 231.255 52.1005 231.46 52.1405 231.62C52.154 231.693 52.1741 231.765 52.2005 231.835C52.2094 231.762 52.2094 231.688 52.2005 231.615C52.1705 231.45 52.1355 231.245 52.0905 230.98C51.9805 230.4 51.8255 229.58 51.6305 228.54C51.2105 226.405 50.6305 223.355 49.8755 219.59C49.1205 215.825 48.2255 211.31 47.2305 206.325C46.2355 201.34 45.2305 195.825 44.1055 190.06C43.5935 187.248 43.2329 184.411 43.0255 181.56C42.9303 180.189 42.6633 178.835 42.2305 177.53C41.7855 176.26 41.2005 175.085 40.6855 173.925C39.5855 171.63 39.1855 169.235 38.8055 167.01C38.4255 164.785 38.0605 162.695 37.6255 160.815C37.1905 158.935 36.7155 157.255 36.2255 155.815C35.7355 154.375 35.1905 153.155 34.9705 152.11C34.7505 151.065 34.6455 150.225 34.5405 149.67C34.4905 149.41 34.4505 149.2 34.4205 149.035C34.4195 148.968 34.4145 148.901 34.4055 148.835Z" fill="#263238"/>
<path d="M210.735 44.3851H208.735C208.736 44.612 208.692 44.8368 208.605 45.0462C208.518 45.2557 208.39 45.4455 208.228 45.6045C208.066 45.7635 207.874 45.8884 207.663 45.9719C207.452 46.0553 207.227 46.0955 207 46.0901C206.665 46.1021 206.335 46.0093 206.055 45.8247C205.775 45.6401 205.56 45.3728 205.44 45.0601C205.335 44.7997 205.292 44.5181 205.317 44.2383C205.341 43.9585 205.431 43.6884 205.58 43.4501C205.92 42.8901 206.66 42.3851 208 42.6201V38.1201H206.035V40.7501C205.229 40.9875 204.522 41.4829 204.025 42.1603C203.527 42.8377 203.265 43.6597 203.28 44.5001C203.28 47.4101 205.89 48.0851 207.01 48.0851C207.865 48.1051 210.775 47.9001 210.735 44.3851Z" fill="#3DBB47"/>
<path d="M206.02 37.2102H208.015V35.3452H206.02V37.2102Z" fill="#3DBB47"/>
<path d="M221.64 41.7251C221.646 41.6402 221.646 41.555 221.64 41.4701C221.64 41.2901 221.64 41.0451 221.64 40.7301C221.64 40.5701 221.64 40.3851 221.615 40.1851C221.59 39.9851 221.56 39.7651 221.525 39.5351C221.49 39.3051 221.455 39.0351 221.415 38.7701L221.205 37.9201C220.833 36.4563 220.225 35.0629 219.405 33.7951C218.213 31.9175 216.607 30.3381 214.71 29.1783C212.812 28.0186 210.674 27.3093 208.46 27.1051C207.795 27.0464 207.126 27.033 206.46 27.0651C206.125 27.0651 205.78 27.0651 205.46 27.1301L204.43 27.2851C203.016 27.5478 201.649 28.0143 200.37 28.6701C199.034 29.3767 197.807 30.2708 196.725 31.3251C195.617 32.448 194.691 33.7368 193.98 35.1451C193.215 36.5969 192.714 38.1731 192.5 39.8001C192.437 40.2123 192.402 40.6282 192.395 41.0451C192.361 41.4626 192.353 41.8816 192.37 42.3001C192.478 44.9823 193.317 47.5841 194.795 49.8251V49.6701C194.1 51.4051 193.415 53.1101 192.745 54.7701L192.625 55.0751L192.94 54.9851L198.39 53.4851L198.26 53.4551C200.095 54.8447 202.233 55.7801 204.5 56.1851C205.551 56.3811 206.622 56.4465 207.69 56.3801C208.204 56.3724 208.718 56.3239 209.225 56.2351L209.97 56.1201C210.215 56.0751 210.47 56.0001 210.69 55.9451C214.048 55.094 216.994 53.0752 219 50.2501C219.748 49.2094 220.348 48.0703 220.785 46.8651C220.88 46.6001 220.97 46.3651 221.055 46.1051C221.14 45.8451 221.185 45.6051 221.24 45.3801C221.295 45.1551 221.355 44.9251 221.405 44.7151C221.455 44.5051 221.47 44.3001 221.5 44.1051C221.545 43.7201 221.615 43.3801 221.63 43.1051C221.645 42.8301 221.63 42.5651 221.63 42.3551C221.63 42.1451 221.63 42.0151 221.63 41.9001C221.63 41.7851 221.63 41.7451 221.63 41.7451C221.622 41.7965 221.622 41.8487 221.63 41.9001C221.63 42.0151 221.63 42.1651 221.595 42.3551C221.56 42.5451 221.565 42.8101 221.545 43.1001C221.525 43.3901 221.45 43.7301 221.39 44.1001C220.913 46.8674 219.643 49.4367 217.733 51.4959C215.824 53.5551 213.358 55.0156 210.635 55.7001C210.4 55.7551 210.165 55.8251 209.925 55.8701L209.19 55.9801C208.694 56.0629 208.192 56.108 207.69 56.1151C206.642 56.1703 205.591 56.1015 204.56 55.9101C202.346 55.5028 200.259 54.5833 198.465 53.2251L198.405 53.1751H198.33L192.875 54.6751L193.065 54.8901L195.12 49.7951L195.15 49.7151L195.105 49.6401C194.12 48.1505 193.421 46.4905 193.045 44.7451C192.872 43.9353 192.768 43.1124 192.735 42.2851C192.718 41.8766 192.726 41.4675 192.76 41.0601C192.763 40.6532 192.796 40.247 192.86 39.8451C193.052 38.2562 193.524 36.714 194.255 35.2901C194.95 33.9138 195.852 32.6524 196.93 31.5501C197.989 30.5151 199.191 29.6377 200.5 28.9451C201.75 28.2946 203.09 27.8313 204.475 27.5701L205.475 27.4151C205.81 27.3651 206.145 27.3701 206.475 27.3451C207.126 27.3141 207.779 27.3258 208.43 27.3801C210.608 27.5708 212.714 28.2552 214.588 29.3815C216.462 30.5078 218.054 32.0462 219.245 33.8801C220.07 35.1258 220.688 36.4969 221.075 37.9401L221.3 38.7801C221.345 39.0451 221.385 39.2801 221.425 39.5301C221.465 39.7801 221.495 39.9801 221.53 40.1801C221.565 40.3801 221.555 40.5601 221.57 40.7201C221.57 41.0301 221.61 41.2751 221.625 41.4551C221.615 41.5453 221.62 41.6365 221.64 41.7251Z" fill="#263238"/>
<path d="M72.5347 100.69H101.41C101.41 100.69 101.41 76.4451 126.605 76.0151C139.69 75.7851 146.475 84.3601 149.235 90.9251C152.435 98.5501 151.465 107.24 147.175 114.315C142.28 122.39 131.73 130.505 112.27 127.075L112.085 191.41H140.64V153.27C140.64 153.27 180.685 142.92 180.685 98.7701C180.685 56.5451 146.54 47.4251 128.185 46.8351C117.975 46.5101 114.275 46.0701 101.645 47.8651C85.5497 50.1651 72.1947 68.8551 72.5347 100.69Z" fill="#3DBB47"/>
<path d="M140.985 204.82H112.005V231.885H140.985V204.82Z" fill="#3DBB47"/>
<path opacity="0.1" d="M140.985 204.82H112.005V231.885H140.985V204.82Z" fill="black"/>
<path opacity="0.1" d="M72.5347 100.69H101.41C101.41 100.69 101.41 76.4451 126.605 76.0151C139.69 75.7851 146.475 84.3601 149.235 90.9251C152.435 98.5501 151.465 107.24 147.175 114.315C142.28 122.39 131.73 130.505 112.27 127.075L112.085 191.41H140.64V153.27C140.64 153.27 180.685 142.92 180.685 98.7701C180.685 56.5451 146.54 47.4251 128.185 46.8351C117.975 46.5101 114.275 46.0701 101.645 47.8651C85.5497 50.1651 72.1947 68.8551 72.5347 100.69Z" fill="black"/>
<path d="M60.5697 100.69H89.4497C89.4497 100.69 89.4497 76.4452 114.645 76.0152C127.73 75.7852 134.515 84.3602 137.27 90.9252C140.475 98.5502 139.505 107.24 135.215 114.315C130.32 122.39 119.585 129.73 100.125 126.315V191.41H128.68V153.27C128.68 153.27 168.725 142.92 168.725 98.7702C168.725 56.5452 130.855 46.7402 114.65 46.7402C102.255 46.7552 60.0247 49.7502 60.5697 100.69Z" fill="#3DBB47"/>
<path opacity="0.3" d="M60.5697 100.69H89.4497C89.4497 100.69 89.4497 76.4452 114.645 76.0152C127.73 75.7852 134.515 84.3602 137.27 90.9252C140.475 98.5502 139.505 107.24 135.215 114.315C130.32 122.39 119.585 129.73 100.125 126.315V191.41H128.68V153.27C128.68 153.27 168.725 142.92 168.725 98.7702C168.725 56.5452 130.855 46.7402 114.65 46.7402C102.255 46.7552 60.0247 49.7502 60.5697 100.69Z" fill="black"/>
<path d="M129.025 204.82H100.045V231.885H129.025V204.82Z" fill="#3DBB47"/>
<path opacity="0.3" d="M129.025 204.82H100.045V231.885H129.025V204.82Z" fill="black"/>
<path d="M117.905 76.145C117.762 76.1574 117.618 76.1574 117.475 76.145C117.19 76.145 116.78 76.05 116.245 76.045C114.732 75.9707 113.216 76.0343 111.715 76.235C109.489 76.5168 107.299 77.0313 105.18 77.77C103.931 78.2066 102.715 78.7312 101.54 79.34C100.27 79.9745 99.0746 80.7476 97.975 81.645C96.8828 82.5506 95.9041 83.5848 95.06 84.725C94.2598 85.7793 93.5299 86.885 92.875 88.0351C91.7815 89.9937 90.9142 92.0704 90.29 94.225C89.8667 95.6792 89.5755 97.1686 89.42 98.6751C89.36 99.2051 89.345 99.625 89.33 99.905C89.3303 100.049 89.3169 100.193 89.29 100.335C89.277 100.192 89.277 100.048 89.29 99.905C89.29 99.62 89.29 99.2001 89.335 98.6651C89.4499 97.1424 89.7162 95.6349 90.13 94.1651C90.7313 91.9855 91.5872 89.8844 92.68 87.905C93.3362 86.7424 94.0695 85.6249 94.875 84.56C95.7262 83.4011 96.717 82.3516 97.825 81.435C98.938 80.5252 100.149 79.7421 101.435 79.1C102.617 78.48 103.842 77.9453 105.1 77.5C107.238 76.7641 109.449 76.2612 111.695 76C113.206 75.8144 114.732 75.7792 116.25 75.895C116.662 75.9214 117.073 75.9715 117.48 76.045C117.624 76.0684 117.766 76.1018 117.905 76.145Z" fill="#263238"/>
<path d="M161.415 71.0001C161.415 71.0001 161.38 70.9651 161.32 70.8901C161.26 70.8151 161.17 70.6851 161.07 70.5401L160.115 69.1901C159.91 68.9001 159.69 68.5651 159.43 68.2201L158.53 67.1251L157.5 65.8601C157.125 65.4201 156.685 64.9951 156.245 64.5301C155.805 64.0651 155.355 63.5701 154.845 63.0951C154.335 62.6201 153.79 62.1351 153.23 61.6351C152.95 61.3851 152.675 61.1351 152.375 60.8701L151.445 60.1351C150.81 59.6351 150.18 59.1351 149.495 58.6351C146.509 56.4989 143.342 54.6284 140.03 53.0451L137.395 51.8551L134.78 50.8551C133.925 50.5001 133.055 50.2501 132.215 49.9701C131.375 49.6901 130.555 49.4051 129.715 49.2101L127.325 48.5851C126.55 48.3801 125.78 48.2551 125.045 48.0851C124.31 47.9151 123.6 47.7651 122.905 47.6801L120.905 47.3901C119.64 47.1751 118.48 47.1301 117.47 47.0301C116.97 46.9901 116.47 46.9351 116.055 46.9151L114.865 46.8851L113.215 46.8301H112.785H112.64C112.688 46.8226 112.737 46.8226 112.785 46.8301H113.215H114.865H116.06C116.495 46.8301 116.97 46.8901 117.48 46.9251C118.48 47.0101 119.66 47.0451 120.925 47.2501L122.925 47.5201C123.62 47.6001 124.33 47.7801 125.07 47.9151C125.81 48.0501 126.57 48.1901 127.365 48.4151L129.765 49.0351C130.595 49.2251 131.415 49.5351 132.265 49.7901C133.115 50.0451 133.98 50.2901 134.835 50.6701L137.465 51.6701L140.115 52.8651C143.444 54.452 146.624 56.3363 149.615 58.4951C150.305 58.9951 150.935 59.5301 151.57 60.0251L152.5 60.7001C152.8 60.9501 153.075 61.2001 153.355 61.4701L154.965 62.9701C155.465 63.4701 155.915 63.9701 156.36 64.4251C156.805 64.8801 157.23 65.3251 157.605 65.7701L158.605 67.0451L159.495 68.1551C159.75 68.5051 159.965 68.8451 160.165 69.1551C160.555 69.7401 160.86 70.2001 161.075 70.5301L161.31 70.8951C161.349 70.9254 161.384 70.9607 161.415 71.0001Z" fill="#263238"/>
<path d="M158.405 133C158.346 133.108 158.274 133.209 158.19 133.3L157.5 134.115C157.215 134.48 156.855 134.915 156.41 135.4C155.965 135.885 155.49 136.455 154.91 137.045C154.33 137.635 153.71 138.295 153.005 138.96C152.3 139.625 151.535 140.325 150.72 141.055C147.146 144.175 143.227 146.877 139.04 149.11C138.07 149.61 137.155 150.11 136.27 150.495C135.385 150.88 134.56 151.275 133.8 151.595C133.04 151.915 132.34 152.18 131.73 152.415C131.12 152.65 130.585 152.84 130.145 152.98L129.145 153.305C129.029 153.351 128.908 153.385 128.785 153.405C128.893 153.343 129.007 153.293 129.125 153.255L130.125 152.885C130.56 152.73 131.085 152.53 131.69 152.28C132.295 152.03 132.995 151.78 133.745 151.425C134.495 151.07 135.325 150.735 136.19 150.3C137.055 149.865 137.98 149.405 138.945 148.9C140.85 147.85 142.905 146.62 144.98 145.2C147.055 143.78 148.92 142.285 150.58 140.875C151.395 140.155 152.175 139.48 152.87 138.8C153.565 138.12 154.215 137.505 154.79 136.915C155.365 136.325 155.87 135.78 156.32 135.3C156.77 134.82 157.14 134.4 157.44 134.05L158.14 133.255C158.221 133.163 158.31 133.078 158.405 133Z" fill="#263238"/>
<path d="M128.175 189.14C128.1 189.14 128.04 181.11 128.04 171.205C128.04 161.3 128.1 153.265 128.175 153.265C128.25 153.265 128.305 161.295 128.305 171.205C128.305 181.115 128.245 189.14 128.175 189.14Z" fill="#263238"/>
<path d="M129.275 230.05C129.2 230.05 129.145 224.415 129.145 217.465C129.145 210.515 129.2 204.875 129.275 204.875C129.35 204.875 129.405 210.51 129.405 217.465C129.405 224.42 129.345 230.05 129.275 230.05Z" fill="#263238"/>
<path d="M157.7 96.8551C157.2 97.8551 159.065 98.6751 160.14 99.0001C161.236 99.2693 162.371 99.3471 163.495 99.2301C164.995 99.1501 166.53 99.0101 167.825 98.2701C168.959 97.5675 169.865 96.5516 170.435 95.3451C170.996 94.1424 171.44 92.8882 171.76 91.6001C171.76 91.6001 159.945 92.3701 157.7 96.8551Z" fill="#3DBB47"/>
<g opacity="0.4">
<path d="M157.7 96.8551C157.2 97.8551 159.065 98.6751 160.14 99.0001C161.236 99.2693 162.371 99.3471 163.495 99.2301C164.995 99.1501 166.53 99.0101 167.825 98.2701C168.959 97.5675 169.865 96.5516 170.435 95.3451C170.996 94.1424 171.44 92.8882 171.76 91.6001C171.76 91.6001 159.945 92.3701 157.7 96.8551Z" fill="black"/>
</g>
<path d="M191.07 93.655C193.018 95.0365 195.352 95.768 197.74 95.745C198.885 95.8087 200.013 95.4532 200.915 94.745C201.3 94.39 201.59 93.94 201.985 93.6C202.255 93.37 202.57 93.195 202.825 92.95C202.959 92.8341 203.063 92.6867 203.127 92.5209C203.191 92.3551 203.212 92.1761 203.19 92C203.091 91.5657 202.848 91.1778 202.5 90.9C201.145 90.13 199.525 90.16 197.965 90.195C196.404 90.2625 194.861 90.5642 193.39 91.09C192.18 91.5 190.915 92.09 190.3 93.19" fill="#3DBB47"/>
<g opacity="0.4">
<path d="M203.19 92C203.013 91.5783 202.702 91.2267 202.305 91C200.95 90.23 199.525 90.16 197.965 90.195C196.404 90.2626 194.861 90.5643 193.39 91.09C192.18 91.5 190.915 92.09 190.3 93.19L191.07 93.655C193.018 95.0366 195.352 95.768 197.74 95.745C198.885 95.8088 200.013 95.4533 200.915 94.745C201.3 94.39 201.59 93.94 201.985 93.6C202.255 93.37 202.57 93.195 202.825 92.95C202.959 92.8341 203.063 92.6867 203.127 92.521C203.191 92.3552 203.212 92.1762 203.19 92Z" fill="black"/>
</g>
<path d="M168 111.6L192.925 111.93C192.976 111.93 193.026 111.918 193.071 111.895C193.116 111.872 193.156 111.839 193.186 111.798C193.216 111.757 193.236 111.71 193.245 111.66C193.253 111.61 193.25 111.559 193.235 111.51L190.31 102.39C190.31 102.39 190.74 97.83 191.335 92.35C192.24 84.025 193.445 73.56 193.46 73.59C191.755 68.81 181.695 68 181.695 68L170.23 68.68L169.83 68.005L166.53 69.54C165.81 69.8749 165.118 70.2661 164.46 70.71C162.28 72.165 157.03 75.51 156.07 79.235C153.855 87.86 157.605 97.485 157.605 97.485L160.015 95.6C160.622 95.1322 161.26 94.7063 161.925 94.325L166.755 107.27C166.468 107.451 166.224 107.694 166.043 107.981C165.861 108.269 165.746 108.593 165.705 108.93C165.665 109.98 166.205 111.24 168 111.6Z" fill="#3DBB47"/>
<g opacity="0.3">
<path d="M178.695 96.3402C179.485 92.0902 179.07 87.7202 178.645 83.4202C177.265 86.9202 177.315 90.9202 175.85 94.3902C175.671 94.7566 175.54 95.1449 175.46 95.5452C175.422 95.7462 175.432 95.9534 175.489 96.1498C175.547 96.3463 175.65 96.5263 175.79 96.6752C176.19 97.0402 176.79 96.8402 177.32 96.7802C177.795 96.6897 178.256 96.5419 178.695 96.3402Z" fill="black"/>
</g>
<g opacity="0.4">
<path d="M169.501 106.18C171.501 106.875 173.631 105.58 175.746 105.35C177.146 105.2 178.546 105.52 179.936 105.745C182.746 106.2 185.606 106.27 188.436 105.955C188.87 105.931 189.295 105.821 189.686 105.63C189.887 105.492 190.053 105.307 190.167 105.091C190.281 104.875 190.341 104.634 190.341 104.39C185.631 103.89 180.926 103.62 176.216 103.135C175.043 102.935 173.842 102.974 172.686 103.25C171.266 103.69 170.186 104.805 169.186 105.91" fill="black"/>
</g>
<path d="M202.47 90.36C200.435 85.775 193.26 73.095 193.26 73.095L187.705 80.06L189 93.735C189 93.735 191.935 90.46 200.14 90.395C200.736 90.4188 201.32 90.5758 201.848 90.8544C202.375 91.133 202.834 91.5261 203.19 92.005L202.47 90.36Z" fill="#3DBB47"/>
<path d="M169.115 87.9351C168.719 86.963 168.404 85.9596 168.175 84.9351C167.865 83.9373 167.637 82.9155 167.495 81.8801C167.886 82.8538 168.198 83.857 168.43 84.8801C168.741 85.8783 168.97 86.8999 169.115 87.9351Z" fill="#263238"/>
<path d="M187.285 79.135C187.466 79.2628 187.633 79.4086 187.785 79.57C188.227 79.9966 188.641 80.4509 189.025 80.93C190.318 82.5104 191.227 84.3691 191.68 86.36C191.915 87.4606 191.967 88.5924 191.835 89.71C191.71 90.735 191.515 91.635 191.385 92.395C191.255 93.155 191.175 93.775 191.135 94.205C191.134 94.4285 191.11 94.6512 191.065 94.87C191.029 94.6469 191.019 94.4204 191.035 94.195C191.057 93.5823 191.114 92.9713 191.205 92.365C191.31 91.6 191.485 90.69 191.6 89.685C191.715 88.5926 191.656 87.4888 191.425 86.415C190.977 84.4613 190.108 82.6287 188.88 81.045C187.965 79.815 187.245 79.175 187.285 79.135Z" fill="#263238"/>
<path d="M182.195 110.5C182.021 110.577 181.838 110.631 181.65 110.66C181.436 110.716 181.219 110.758 181 110.785C180.745 110.82 180.455 110.875 180.13 110.89C179.368 110.96 178.602 110.96 177.84 110.89C176.908 110.794 175.987 110.61 175.09 110.34C174.197 110.053 173.333 109.683 172.51 109.235C171.842 108.862 171.208 108.432 170.615 107.95C170.355 107.75 170.145 107.54 169.955 107.365C169.791 107.217 169.636 107.061 169.49 106.895C169.351 106.766 169.231 106.618 169.135 106.455C169.17 106.42 169.705 107.02 170.73 107.805C171.329 108.261 171.962 108.669 172.625 109.025C173.439 109.453 174.289 109.809 175.165 110.09C176.047 110.356 176.95 110.543 177.865 110.65C178.612 110.73 179.364 110.754 180.115 110.72C181.4 110.65 182.185 110.46 182.195 110.5Z" fill="#263238"/>
<path d="M189.89 107.66C190.007 107.886 190.074 108.135 190.085 108.39C190.165 109 190.119 109.619 189.95 110.21C189.778 110.815 189.43 111.354 188.95 111.76C188.585 112.065 188.305 112.16 188.29 112.135C188.275 112.11 188.51 111.945 188.825 111.635C189.229 111.213 189.523 110.698 189.68 110.135C190.08 108.815 189.795 107.665 189.89 107.66Z" fill="#263238"/>
<path d="M188.535 109.42C188.644 109.934 188.601 110.469 188.411 110.959C188.221 111.449 187.892 111.873 187.465 112.18C187.41 112.125 187.875 111.63 188.165 110.865C188.455 110.1 188.46 109.425 188.535 109.42Z" fill="#263238"/>
<path d="M184.076 92.97C183.811 93.4179 183.513 93.8457 183.186 94.25C182.927 94.7016 182.635 95.1328 182.311 95.54C182.407 95.0123 182.634 94.5172 182.971 94.1C183.237 93.6357 183.617 93.2468 184.076 92.97Z" fill="#263238"/>
<path d="M166.965 80.86C166.584 80.6363 166.215 80.3926 165.86 80.13C164.081 78.9617 162.063 78.2081 159.955 77.925C159.513 77.8928 159.074 77.8344 158.64 77.75C159.083 77.6888 159.532 77.6888 159.975 77.75C162.141 77.9348 164.215 78.7076 165.975 79.985C166.344 80.2293 166.677 80.5238 166.965 80.86Z" fill="#263238"/>
<path d="M193.26 72.9302C192.365 73.6508 191.529 74.4416 190.76 75.2952C190.052 76.2061 189.418 77.1726 188.865 78.1852C188.924 77.8446 189.041 77.5166 189.21 77.2152C189.572 76.4655 190.026 75.7634 190.56 75.1252C191.096 74.4882 191.711 73.922 192.39 73.4402C192.649 73.2213 192.943 73.0488 193.26 72.9302Z" fill="#263238"/>
<path d="M182.97 68.8101C183.015 68.8822 183.052 68.9594 183.08 69.0401C183.177 69.2665 183.256 69.5006 183.315 69.7401C183.526 70.6311 183.526 71.559 183.315 72.4501C183.004 73.7802 182.291 74.9827 181.275 75.8951C179.991 76.9822 178.356 77.5651 176.675 77.5351C174.992 77.5408 173.352 77.0024 172 76.0001C170.922 75.1775 170.048 74.1187 169.445 72.9051C169.038 72.0925 168.752 71.2251 168.595 70.3301C168.549 70.089 168.519 69.8451 168.505 69.6001C168.491 69.514 168.491 69.4262 168.505 69.3401C168.505 69.3401 168.56 69.6901 168.7 70.3101C168.894 71.1798 169.202 72.0203 169.615 72.8101C170.225 73.9871 171.091 75.0123 172.15 75.8101C173.453 76.7748 175.029 77.3002 176.65 77.3101C178.27 77.3398 179.848 76.7862 181.095 75.7501C182.077 74.8712 182.773 73.7183 183.095 72.4401C183.317 71.5772 183.348 70.6761 183.185 69.8001C183.09 69.1401 182.94 68.8201 182.97 68.8101Z" fill="#263238"/>
<g opacity="0.3">
<path d="M184.721 93.8551C184.721 93.6051 184.681 93.3101 184.461 93.1851C184.391 93.1499 184.314 93.1316 184.236 93.1316C184.157 93.1316 184.08 93.1499 184.011 93.1851C183.871 93.2607 183.747 93.3625 183.646 93.4851C183.058 94.0968 182.603 94.8238 182.311 95.6201L184.761 95.4051C184.746 94.9001 184.736 94.3701 184.721 93.8551Z" fill="black"/>
</g>
<g opacity="0.3">
<path d="M192.855 88.7001C192.609 87.2982 191.995 85.9868 191.075 84.9001C192.135 88.3601 191.78 90.3151 191.185 92.6851L191.315 92.3551C192 90.9701 193.04 90.1001 192.855 88.7001Z" fill="black"/>
</g>
<path d="M187.96 204.93L186.465 227.355L176.715 227.24L175.18 203.925L187.96 204.93Z" fill="#FFBE9D"/>
<path d="M186.74 224.405V225.055C186.74 225.055 197.74 229.475 197.845 231.555L176 231.435L176.34 224.17C179.595 225.695 183 225.885 186.74 224.405Z" fill="#3DBB47"/>
<path d="M178.555 226.5C178.348 226.563 178.171 226.699 178.056 226.883C177.942 227.067 177.899 227.287 177.935 227.5C177.989 227.713 178.123 227.898 178.309 228.014C178.496 228.131 178.72 228.171 178.935 228.125C179.158 228.059 179.348 227.912 179.468 227.713C179.588 227.514 179.63 227.278 179.585 227.05C179.506 226.834 179.346 226.658 179.139 226.558C178.931 226.458 178.694 226.443 178.475 226.515" fill="white"/>
<path d="M176 231.435L176.08 229.69L197 230.45C197 230.45 197.97 230.88 197.855 231.56L176 231.435Z" fill="#263238"/>
<path d="M186.82 225.115C186.82 225.22 186.28 225.265 185.755 225.615C185.23 225.965 184.945 226.4 184.85 226.36C184.755 226.32 184.915 225.7 185.56 225.3C186.205 224.9 186.845 225 186.82 225.115Z" fill="#263238"/>
<path d="M189.105 226.075C189.13 226.18 188.665 226.355 188.3 226.805C187.935 227.255 187.83 227.73 187.72 227.725C187.61 227.72 187.55 227.115 188.015 226.57C188.48 226.025 189.1 226 189.105 226.075Z" fill="#263238"/>
<path d="M190.391 228.825C190.291 228.825 190.146 228.325 190.426 227.73C190.706 227.135 191.201 226.92 191.246 227.005C191.291 227.09 190.981 227.405 190.746 227.89C190.511 228.375 190.501 228.815 190.391 228.825Z" fill="#263238"/>
<path d="M186.18 40.9251C186.745 39.5251 186.06 37.8301 184.845 36.9251C183.564 36.0821 182.003 35.7785 180.5 36.0801C179.017 36.391 177.581 36.8953 176.23 37.5801C175.601 36.9462 174.809 36.4996 173.942 36.2899C173.074 36.0803 172.165 36.116 171.317 36.3929C170.468 36.6699 169.713 37.1773 169.136 37.8584C168.56 38.5395 168.183 39.3675 168.05 40.2501C167.509 40.114 166.942 40.1277 166.408 40.2897C165.875 40.4517 165.396 40.7558 165.022 41.1696C164.648 41.5833 164.395 42.0909 164.288 42.6381C164.181 43.1852 164.225 43.7511 164.415 44.2751L171.175 46.6501L178.555 59.6501C179.646 60.5806 181.038 61.0825 182.471 61.0622C183.905 61.0419 185.282 60.5007 186.346 59.5397C187.41 58.5786 188.088 57.2633 188.253 55.8392C188.418 54.4151 188.06 52.9794 187.245 51.8001C187.658 51.4323 188.01 51.0001 188.285 50.5201C188.875 50.1713 189.389 49.7088 189.799 49.1595C190.208 48.6101 190.504 47.9849 190.67 47.3201C191.325 44.4251 189.085 41.2651 186.18 40.9251Z" fill="#263238"/>
<path d="M181.705 68.0001C181.285 65.8851 180.995 64.4351 181 64.4501C181.005 64.4651 185 62.9001 184.71 57.3351C184.57 54.5651 183.515 50.2001 182.535 46.6601C181.655 43.4701 178.68 39.9551 175.535 40.9701L166 45.6201C165.045 45.9301 164.88 46.8301 165.105 47.8051V48.3051L168.81 63.6351L170.375 70.4851C170.709 71.8916 171.557 73.1223 172.752 73.9348C173.948 74.7473 175.404 75.0828 176.835 74.8751C177.616 74.7652 178.367 74.4968 179.041 74.0864C179.715 73.6759 180.297 73.1321 180.753 72.4883C181.209 71.8445 181.529 71.1143 181.693 70.3425C181.856 69.5707 181.861 68.7736 181.705 68.0001Z" fill="#FFBE9D"/>
<path d="M182.5 50.36C182.54 50.5374 182.511 50.7234 182.418 50.8797C182.325 51.036 182.175 51.1507 182 51.2C181.912 51.2247 181.819 51.2312 181.728 51.2192C181.637 51.2072 181.55 51.177 181.471 51.1303C181.392 51.0836 181.323 51.0214 181.269 50.9474C181.215 50.8735 181.176 50.7893 181.155 50.7C181.115 50.5232 181.145 50.3379 181.238 50.1824C181.331 50.0269 181.48 49.9132 181.655 49.865C181.743 49.8395 181.835 49.8322 181.926 49.8436C182.017 49.8549 182.105 49.8846 182.184 49.931C182.263 49.9773 182.332 50.0392 182.386 50.113C182.44 50.1867 182.479 50.2708 182.5 50.36Z" fill="#263238"/>
<path d="M182.065 49.2951C181.995 49.4051 181.39 49.1301 180.65 49.2951C179.91 49.4601 179.44 49.9401 179.34 49.8651C179.24 49.7901 179.34 49.6501 179.545 49.4301C179.82 49.1394 180.178 48.9404 180.57 48.8601C180.957 48.7767 181.36 48.8205 181.72 48.9851C182 49.1001 182.095 49.2501 182.065 49.2951Z" fill="#263238"/>
<path d="M175.24 52C175.28 52.1768 175.251 52.3622 175.158 52.5176C175.065 52.6731 174.915 52.7868 174.74 52.835C174.654 52.8602 174.564 52.8679 174.474 52.8578C174.385 52.8478 174.298 52.8201 174.22 52.7764C174.141 52.7327 174.072 52.6738 174.016 52.6032C173.961 52.5326 173.92 52.4516 173.895 52.365C173.855 52.1876 173.885 52.0016 173.978 51.8453C174.071 51.689 174.22 51.5743 174.395 51.525C174.482 51.5 174.573 51.4924 174.662 51.5028C174.752 51.5132 174.839 51.5413 174.917 51.5855C174.996 51.6297 175.065 51.6891 175.121 51.7603C175.176 51.8315 175.217 51.913 175.24 52Z" fill="#263238"/>
<path d="M174.875 51.06C174.81 51.17 174.2 50.89 173.46 51.06C172.72 51.23 172.25 51.7 172.15 51.63C172.05 51.56 172.15 51.415 172.355 51.19C172.632 50.9019 172.989 50.7048 173.38 50.625C173.767 50.5428 174.169 50.5848 174.53 50.745C174.795 50.865 174.91 51 174.875 51.06Z" fill="#263238"/>
<path d="M178.64 55.7601C179.007 55.5579 179.396 55.4001 179.8 55.2901C179.985 55.2301 180.16 55.1551 180.165 55.0201C180.139 54.8213 180.054 54.6349 179.92 54.4851L179.055 53.1551C177.845 51.2601 176.925 49.6901 177 49.6551C177.075 49.6201 178.12 51.1051 179.33 53.0001L180.175 54.3401C180.341 54.5452 180.431 54.8013 180.43 55.0651C180.415 55.1371 180.385 55.2048 180.341 55.2636C180.297 55.3224 180.24 55.3707 180.175 55.4051C180.078 55.4569 179.973 55.4956 179.865 55.5201C179.47 55.6556 179.058 55.7363 178.64 55.7601Z" fill="#263238"/>
<path d="M181 64.45C178.471 65.0216 175.833 64.8797 173.38 64.04C173.38 64.04 176 67.46 181.285 65.825L181 64.45Z" fill="#EB996E"/>
<path d="M175 50.0001C174.95 50.2151 174.185 50.2101 173.315 50.4251C172.445 50.6401 171.755 50.9651 171.615 50.7951C171.555 50.7151 171.655 50.5051 171.92 50.2951C172.273 49.9985 172.691 49.791 173.14 49.6901C173.586 49.5844 174.05 49.5844 174.495 49.6901C174.85 49.7551 175.035 49.9001 175 50.0001Z" fill="#263238"/>
<path d="M181.78 46.935C181.66 47.135 181.02 47.085 180.28 47.23C179.54 47.375 178.955 47.625 178.78 47.48C178.7 47.405 178.78 47.215 178.995 46.98C179.326 46.7023 179.725 46.5192 180.15 46.45C180.569 46.3656 181.003 46.3967 181.405 46.54C181.71 46.68 181.83 46.835 181.78 46.935Z" fill="#263238"/>
<path d="M168.355 42.0401C168.466 42.5817 168.695 43.0924 169.025 43.5357C169.355 43.979 169.779 44.3442 170.266 44.6053C170.753 44.8664 171.292 45.0169 171.844 45.0463C172.396 45.0756 172.948 44.983 173.46 44.7751C174.25 44.4551 175.07 43.8551 175.87 44.1451C176.67 44.4351 177 45.5751 177.765 46.0001C178.89 46.6301 180.265 45.5401 181.52 45.6501C182.52 45.7351 183.275 46.5001 184.05 47.1501C184.825 47.8001 185.895 48.2901 186.77 47.8201C186.57 46.9851 186.273 46.1763 185.885 45.4101C185.494 44.6387 184.847 44.0272 184.055 43.6801C183.615 43.5051 183.14 43.4451 182.72 43.2301C181.815 42.7701 181.41 41.7301 180.755 40.9451C180.325 40.4504 179.783 40.0654 179.175 39.8219C178.566 39.5784 177.908 39.4835 177.255 39.5451C176.175 39.6551 175.15 40.2001 174.06 40.1551C173.255 40.1201 172.485 39.7601 171.68 39.7751C170.115 39.7751 168.94 41.1751 168.07 42.4801" fill="#263238"/>
<path d="M173.625 43.1851C172.905 43.1301 171.435 42.9801 170.95 42.4701C170.457 41.919 169.828 41.507 169.126 41.2753C168.424 41.0437 167.674 41.0005 166.95 41.1501C166.231 41.3642 165.601 41.8034 165.151 42.4028C164.701 43.0023 164.455 43.7305 164.45 44.4801C163.575 44.6936 162.774 45.1393 162.131 45.7704C161.489 46.4014 161.029 47.1942 160.8 48.0651C160.567 48.9767 160.559 49.9313 160.777 50.8467C160.995 51.762 161.431 52.6108 162.05 53.3201C162.35 53.6956 162.624 54.0916 162.87 54.5051C162.531 54.9257 162.233 55.3777 161.98 55.8551C160.835 58.3851 163.94 59.3551 163.94 59.3551C163.94 61.0551 165.515 61.0451 166.52 61.0401C167.525 61.0351 168.08 63.7201 168.865 63.6151L168.07 55.3301C168.186 55.3753 168.31 55.3991 168.435 55.4001C170.33 55.4351 169.835 51.8451 169.225 50.9001C169.789 50.1972 170.266 49.4282 170.645 48.6101C170.988 47.3593 171.012 46.0425 170.715 44.7801C171.35 44.7001 173.935 43.2051 173.625 43.1851Z" fill="#263238"/>
<path d="M168.32 55.77C168.255 55.5068 168.125 55.2642 167.941 55.0648C167.758 54.8655 167.527 54.7159 167.269 54.63C167.012 54.5442 166.738 54.5248 166.471 54.5738C166.204 54.6227 165.955 54.7384 165.745 54.91C165.245 55.34 164.98 56.06 165.28 57.265C166.09 60.485 169.155 59.01 169.135 58.92C169.115 58.83 168.67 57.1 168.32 55.77Z" fill="#FFBE9D"/>
<path d="M167.845 57.945C167.845 57.945 167.8 57.9999 167.715 58.0649C167.597 58.1556 167.448 58.1968 167.3 58.18C166.93 58.14 166.505 57.68 166.345 57.095C166.269 56.8216 166.253 56.5349 166.3 56.255C166.305 56.1462 166.336 56.0403 166.391 55.9463C166.446 55.8523 166.523 55.7729 166.615 55.715C166.676 55.6822 166.746 55.6718 166.813 55.6855C166.881 55.6992 166.942 55.7362 166.985 55.79C167.05 55.865 167.045 55.9349 167.065 55.9399C167.085 55.9449 167.12 55.865 167.065 55.74C167.026 55.6658 166.965 55.6061 166.89 55.57C166.784 55.5271 166.666 55.5271 166.56 55.57C166.434 55.6296 166.326 55.72 166.244 55.8327C166.163 55.9455 166.112 56.077 166.095 56.215C166.03 56.5298 166.042 56.8557 166.13 57.165C166.186 57.4553 166.326 57.7227 166.533 57.9335C166.741 58.1444 167.005 58.2892 167.295 58.3499C167.389 58.3538 167.483 58.3364 167.569 58.2992C167.656 58.262 167.733 58.2059 167.795 58.1349C167.86 58.0249 167.86 57.95 167.845 57.945Z" fill="#EB996E"/>
<path d="M185.585 51.2752C185.585 51.2752 185.88 51.0502 186.29 50.5502C186.856 49.8297 187.203 48.962 187.29 48.0502C187.357 47.4277 187.295 46.7982 187.11 46.2002C186.897 45.5141 186.501 44.8989 185.965 44.4202C185.347 43.88 184.598 43.5109 183.793 43.3495C182.988 43.1882 182.154 43.2401 181.375 43.5002C181.225 43.5502 181.085 43.6252 180.945 43.6852C180.805 43.7452 180.68 43.8352 180.55 43.9102L180.35 44.0202V43.8002C180.346 43.4128 180.202 43.04 179.945 42.7502C179.682 42.4688 179.359 42.2501 179 42.1102C178.321 41.8272 177.569 41.771 176.855 41.9502C175.475 42.2652 174.305 42.8952 173.2 43.0252C172.334 43.1758 171.442 42.9974 170.7 42.5252C170.505 42.3904 170.335 42.221 170.2 42.0252C170.12 41.8902 170.08 41.8152 170.09 41.8102C170.272 42.0571 170.493 42.2717 170.745 42.4452C171.475 42.8665 172.333 43.0103 173.16 42.8502C173.736 42.7418 174.299 42.5743 174.84 42.3502C175.476 42.0961 176.127 41.884 176.79 41.7152C177.16 41.6257 177.54 41.587 177.92 41.6002C178.322 41.6213 178.716 41.7127 179.085 41.8702C179.468 42.0335 179.809 42.2794 180.085 42.5902C180.381 42.9286 180.548 43.3608 180.555 43.8102L180.355 43.7002L180.77 43.4602C180.925 43.4002 181.07 43.3202 181.23 43.2652C182.051 42.984 182.932 42.9252 183.783 43.0947C184.634 43.2642 185.425 43.656 186.075 44.2302C186.638 44.7392 187.049 45.393 187.265 46.1202C187.49 46.8908 187.52 47.705 187.353 48.4902C187.187 49.2753 186.828 50.0071 186.31 50.6202C186.146 50.8081 185.959 50.9759 185.755 51.1202C185.705 51.1785 185.648 51.2306 185.585 51.2752Z" fill="#455A64"/>
<path d="M184.935 39.9701C184.607 39.8035 184.256 39.684 183.895 39.6151C183.481 39.5586 183.061 39.5979 182.665 39.7301C182.152 39.8869 181.707 40.2108 181.4 40.6501L181.275 40.8251L181.2 40.6251C180.939 40.0105 180.519 39.4766 179.982 39.0784C179.446 38.6803 178.814 38.4323 178.15 38.3601C177.107 38.3209 176.08 38.619 175.22 39.2101C174.487 39.6876 173.708 40.0897 172.895 40.4101C172.334 40.6223 171.73 40.6943 171.135 40.6201C170.976 40.5908 170.821 40.5473 170.67 40.4901C170.57 40.4451 170.515 40.4201 170.52 40.4101C170.525 40.4001 170.745 40.4751 171.15 40.5151C171.725 40.551 172.301 40.4571 172.835 40.2401C173.625 39.8954 174.383 39.4804 175.1 39.0001C175.542 38.7253 176.011 38.4958 176.5 38.3151C177.037 38.1193 177.611 38.0458 178.18 38.1001C178.889 38.1775 179.564 38.4458 180.133 38.8763C180.701 39.3069 181.143 39.8836 181.41 40.5451H181.215C181.559 40.0752 182.05 39.7338 182.61 39.5751C183.035 39.4517 183.484 39.4294 183.92 39.5101C184.196 39.5625 184.46 39.6641 184.7 39.8101C184.785 39.852 184.865 39.9059 184.935 39.9701Z" fill="#455A64"/>
<path d="M178.35 57.24C178.233 57.1424 178.097 57.0705 177.951 57.0292C177.804 56.9878 177.651 56.9779 177.5 57C177.324 57.0376 177.158 57.1118 177.012 57.2177C176.867 57.3237 176.745 57.459 176.655 57.615C176.655 57.615 176.63 57.64 176.625 57.655C176.556 57.7692 176.525 57.9021 176.535 58.035C176.557 58.1799 176.614 58.3171 176.701 58.4348C176.788 58.5525 176.903 58.647 177.035 58.71C177.246 58.8172 177.486 58.8564 177.72 58.8224C177.955 58.7884 178.173 58.6828 178.345 58.52C178.509 58.3473 178.6 58.1188 178.601 57.881C178.602 57.6432 178.512 57.414 178.35 57.24Z" fill="#3DBB47"/>
<path d="M178.6 58.7951C178.56 58.7951 178.515 58.6451 178.38 58.4401C178.217 58.1653 177.974 57.947 177.684 57.8146C177.393 57.6823 177.069 57.6423 176.755 57.7001C176.51 57.7351 176.36 57.8051 176.345 57.7701C176.33 57.7351 176.445 57.6151 176.715 57.5201C177.068 57.4064 177.451 57.4278 177.79 57.5801C178.132 57.7322 178.402 58.0096 178.545 58.3551C178.65 58.6151 178.635 58.7901 178.6 58.7951Z" fill="#263238"/>
<path d="M168.395 59.415C168.395 59.415 168.54 59.665 168.35 60.045C168.242 60.2724 168.053 60.4509 167.82 60.545C167.674 60.5971 167.519 60.6147 167.365 60.5965C167.212 60.5783 167.064 60.5247 166.935 60.44C166.803 60.36 166.692 60.2507 166.61 60.1206C166.527 59.9905 166.476 59.8431 166.46 59.69C166.445 59.443 166.517 59.1986 166.665 59C166.925 58.67 167.215 58.66 167.215 58.69C167.215 58.72 166.995 58.805 166.82 59.105C166.719 59.273 166.676 59.4702 166.7 59.665C166.719 59.7791 166.762 59.8878 166.827 59.9836C166.891 60.0794 166.976 60.1601 167.075 60.22C167.173 60.2824 167.282 60.3236 167.397 60.3408C167.511 60.358 167.628 60.3509 167.74 60.32C167.925 60.2539 168.084 60.1315 168.195 59.97C168.39 59.66 168.355 59.415 168.395 59.415Z" fill="#3DBB47"/>
<path d="M166.71 59.2199C166.735 59.2199 166.71 59.3899 166.475 59.4999C166.359 59.5479 166.232 59.5618 166.109 59.5401C165.986 59.5183 165.872 59.4618 165.78 59.3771C165.688 59.2925 165.622 59.1833 165.59 59.0624C165.558 58.9415 165.561 58.814 165.6 58.6949C165.649 58.5597 165.742 58.4451 165.865 58.3699C166.07 58.2449 166.225 58.2949 166.22 58.3249C166.215 58.3549 166.1 58.3899 165.975 58.5149C165.913 58.5918 165.876 58.6851 165.867 58.7831C165.858 58.8812 165.879 58.9796 165.926 59.0661C165.973 59.1526 166.044 59.2233 166.131 59.2693C166.218 59.3154 166.317 59.3347 166.415 59.3249C166.585 59.2899 166.675 59.1999 166.71 59.2199Z" fill="#3DBB47"/>
<path d="M172.205 103.625C172.205 103.625 184.585 104.345 191.905 104.41C197.57 104.465 200.1 102.96 201.23 99.315C202.18 96.26 200.14 90.395 200.14 90.395C196.305 90.395 193.94 90.945 191.475 92.1L192.13 94.78L172.17 96.5L172.205 103.625Z" fill="#FFBE9D"/>
<path d="M196.29 97.6401C195.753 96.942 195.126 96.3182 194.425 95.7851C193.673 95.3249 192.862 94.9684 192.015 94.7251C192.281 94.6867 192.554 94.7106 192.81 94.7951C193.439 94.9437 194.035 95.2064 194.57 95.5701C195.105 95.9349 195.568 96.396 195.935 96.9301C196.215 97.3401 196.32 97.6251 196.29 97.6401Z" fill="#EB996E"/>
<path d="M167.675 92.0799C167.675 92.0799 163.845 92.9999 161.03 94.8799L164.03 103.01C165.03 105.68 168.085 107.01 170.53 105.61C174.295 103.455 175.625 97.1749 175.625 97.1749L179.76 79.2349L172.905 74.9399L167.7 92.0799" fill="#FFBE9D"/>
<path d="M172.88 74.94L173.16 69.04L171.625 63.04C171.54 62.71 171.5 62.295 171.77 62.095C171.904 61.9924 172.069 61.9393 172.238 61.9447C172.407 61.9502 172.568 62.0139 172.695 62.125C173.11 62.555 175.11 67.8 175.11 67.8C175.11 67.8 178.145 65.98 178.685 65.89C179.225 65.8 179.9 67.435 179.945 67.56C179.965 67.9264 179.965 68.2936 179.945 68.66C179.945 68.66 181.82 68.715 181.99 68.97C182.126 69.491 182.199 70.0266 182.205 70.565C182.205 70.565 183 70.82 183.125 71.42C183.25 72.02 183.51 73.01 183.125 73.23C182.74 73.45 181.96 73.88 181.96 73.88C181.96 73.88 181.645 76.94 181.56 77.22C181.475 77.5 179.72 79.22 179.72 79.22L172.88 74.94Z" fill="#FFBE9D"/>
<path d="M166.5 105.73C166.5 105.73 166.685 105.84 167.075 105.965C167.645 106.144 168.249 106.192 168.84 106.105C169.79 105.97 170.68 105.559 171.4 104.925C172.352 104.062 173.156 103.048 173.78 101.925C174.148 101.265 174.457 100.574 174.705 99.86C174.965 99.0745 175.18 98.2749 175.35 97.465C175.74 95.78 176.165 93.965 176.615 92.035C177.515 88.18 178.525 83.87 179.615 79.225V79.19H179.64C179.985 78.85 180.33 78.505 180.675 78.145C180.845 77.965 181.015 77.785 181.175 77.6C181.255 77.505 181.34 77.41 181.405 77.315C181.456 77.2209 181.485 77.1167 181.49 77.01C181.625 76.01 181.73 74.975 181.84 73.93V73.865L181.9 73.835L182.855 73.3C182.925 73.255 183.035 73.205 183.08 73.165C183.128 73.1218 183.16 73.0636 183.17 73C183.193 72.8342 183.193 72.6659 183.17 72.5C183.122 72.1333 183.046 71.7707 182.945 71.415C182.775 71.104 182.489 70.8723 182.15 70.77L182.065 70.74V70.655C182.065 70.365 182.035 70.065 182 69.77C181.986 69.6223 181.965 69.4754 181.935 69.33C181.923 69.266 181.903 69.2037 181.875 69.145C181.875 69.11 181.875 69.145 181.845 69.115C181.818 69.1008 181.789 69.0891 181.76 69.08C181.159 68.949 180.545 68.8803 179.93 68.875H179.8V68.745C179.8 68.435 179.8 68.09 179.8 67.745C179.779 67.6273 179.739 67.514 179.68 67.41C179.63 67.29 179.57 67.175 179.51 67.055C179.393 66.8234 179.256 66.6026 179.1 66.395C179.029 66.2983 178.943 66.2138 178.845 66.145C178.809 66.1144 178.764 66.0952 178.717 66.0898C178.67 66.0845 178.622 66.0932 178.58 66.115C178.338 66.2077 178.103 66.3162 177.875 66.44C176.945 66.94 176.035 67.44 175.145 67.98L175.015 68.06L174.96 67.92C174.49 66.735 174.02 65.565 173.56 64.42C173.33 63.845 173.105 63.27 172.875 62.705C172.84 62.5784 172.769 62.4644 172.672 62.376C172.575 62.2876 172.454 62.2283 172.325 62.205C172.205 62.1654 172.076 62.1675 171.958 62.2111C171.84 62.2547 171.74 62.3372 171.675 62.445C171.613 62.5523 171.586 62.6767 171.6 62.8C171.6 62.91 171.67 63.08 171.7 63.215C171.78 63.505 171.855 63.79 171.93 64.075C172.08 64.65 172.225 65.215 172.375 65.775C172.668 66.9017 172.957 68.0017 173.24 69.075V69.11C173.14 71.1634 173.045 73.13 172.955 75.01V75L168.4 89.82L167.115 93.945C166.965 94.41 166.85 94.775 166.77 95.03C166.69 95.285 166.64 95.395 166.64 95.395C166.64 95.395 166.665 95.265 166.735 95.02L167.05 93.925C167.34 92.96 167.755 91.565 168.28 89.785C169.36 86.205 170.895 81.095 172.75 74.935V74.96C172.837 73.0867 172.925 71.12 173.015 69.06V69.095C172.73 68.02 172.435 66.92 172.14 65.8L171.69 64.1C171.615 63.815 171.54 63.525 171.46 63.24C171.417 63.0903 171.382 62.9384 171.355 62.785C171.337 62.6115 171.373 62.4365 171.46 62.285C171.553 62.1291 171.695 62.0092 171.865 61.945C172.033 61.8959 172.21 61.8903 172.381 61.9288C172.552 61.9673 172.71 62.0486 172.84 62.165C172.965 62.2827 173.058 62.4308 173.11 62.595L173.795 64.31C174.26 65.46 174.725 66.63 175.2 67.81L175.015 67.745C175.91 67.215 176.81 66.685 177.76 66.19C178 66.0645 178.247 65.9527 178.5 65.855C178.579 65.8222 178.665 65.8101 178.75 65.82C178.836 65.8324 178.917 65.8631 178.99 65.91C179.11 65.9964 179.217 66.101 179.305 66.22C179.472 66.4388 179.618 66.6732 179.74 66.92C179.805 67.045 179.865 67.165 179.92 67.29C179.991 67.4224 180.039 67.5662 180.06 67.715C180.06 68.07 180.06 68.4 180.06 68.715L179.935 68.58C180.578 68.5843 181.218 68.6581 181.845 68.8C181.888 68.8151 181.93 68.8334 181.97 68.855C182.025 68.8849 182.07 68.9301 182.1 68.985C182.139 69.0662 182.167 69.1518 182.185 69.24C182.215 69.4 182.235 69.55 182.255 69.705C182.285 70.01 182.305 70.31 182.32 70.61L182.23 70.49C182.434 70.55 182.625 70.651 182.789 70.7868C182.953 70.9226 183.088 71.0904 183.185 71.28C183.295 71.66 183.375 72.0478 183.425 72.44C183.46 72.6402 183.46 72.8448 183.425 73.045C183.403 73.1663 183.34 73.276 183.245 73.355C183.163 73.4099 183.078 73.46 182.99 73.505L182.04 74L182.105 73.905C181.99 74.95 181.885 75.975 181.745 76.99L181.715 77.185C181.703 77.264 181.671 77.3383 181.62 77.4C181.546 77.5095 181.464 77.6131 181.375 77.71C181.205 77.9 181.035 78.085 180.875 78.265C180.53 78.625 180.185 78.97 179.835 79.31L179.87 79.25C178.77 83.89 177.75 88.2 176.835 92.055C176.38 93.98 175.945 95.795 175.545 97.475C175.374 98.2909 175.153 99.0958 174.885 99.885C174.628 100.606 174.31 101.303 173.935 101.97C173.296 103.108 172.473 104.131 171.5 105C170.758 105.639 169.846 106.045 168.875 106.17C168.271 106.251 167.656 106.189 167.08 105.99C166.933 105.936 166.791 105.871 166.655 105.795L166.5 105.73Z" fill="#EB996E"/>
<path d="M179.95 68.6751C179.95 68.7101 179.78 68.7301 179.515 68.7401C179.178 68.7465 178.843 68.7867 178.515 68.8601C178.198 68.938 177.906 69.0945 177.665 69.3151C177.485 69.4851 177.405 69.6301 177.365 69.6151C177.325 69.6001 177.365 69.4201 177.53 69.1901C177.763 68.899 178.087 68.6947 178.45 68.6101C178.8 68.5239 179.163 68.5069 179.52 68.5601C179.79 68.5951 179.95 68.6401 179.95 68.6751Z" fill="#EB996E"/>
<path d="M178.5 68.7301C178.435 68.7051 178.43 68.5501 178.5 68.3851C178.57 68.2201 178.67 68.1051 178.735 68.1301C178.8 68.1551 178.81 68.3101 178.735 68.4751C178.66 68.6401 178.55 68.7551 178.5 68.7301Z" fill="#EB996E"/>
<path d="M182.291 70.545C181.805 70.6952 181.298 70.7645 180.791 70.75C180.631 70.7447 180.472 70.7778 180.327 70.8465C180.183 70.9152 180.057 71.0176 179.961 71.145C179.831 71.35 179.876 71.52 179.836 71.53C179.796 71.54 179.676 71.365 179.801 71.065C179.869 70.8961 179.995 70.7564 180.156 70.67C180.341 70.5685 180.545 70.5071 180.756 70.49C181.266 70.4119 181.787 70.4305 182.291 70.545Z" fill="#EB996E"/>
<path d="M181.96 72.345C182.03 72.345 182.07 72.715 182.05 73.17C182.03 73.625 181.955 73.985 181.885 73.985C181.815 73.985 181.77 73.61 181.79 73.155C181.81 72.7 181.885 72.34 181.96 72.345Z" fill="#EB996E"/>
<path d="M184.035 85.8101L184.48 84.2801C184.501 84.21 184.539 84.1465 184.591 84.0957C184.644 84.045 184.708 84.0087 184.779 83.9906C184.849 83.9724 184.924 83.9729 184.994 83.9921C185.064 84.0113 185.129 84.0485 185.18 84.1001L185.765 84.6951L186.125 83.2501C186.146 83.1666 186.193 83.0916 186.258 83.0354C186.323 82.9791 186.404 82.9442 186.49 82.9355C186.575 82.9268 186.662 82.9446 186.737 82.9866C186.812 83.0285 186.873 83.0926 186.91 83.1701L187.725 84.8801L184.035 85.8101Z" fill="white"/>
<path d="M187.735 85.5352C187.175 85.8055 186.581 85.9973 185.97 86.1052C185.378 86.2984 184.762 86.4062 184.14 86.4252C185.291 85.9628 186.501 85.6632 187.735 85.5352Z" fill="white"/>
<path d="M158 77C158 77 157.815 77.19 157.555 77.595C157.206 78.1718 156.976 78.8128 156.88 79.48C156.737 80.4735 156.707 81.4798 156.79 82.48C156.845 83.615 156.935 84.855 157.075 86.155C157.312 88.3751 157.664 90.5814 158.13 92.765C158.305 93.605 158.465 94.265 158.575 94.765C158.625 94.975 158.67 95.15 158.705 95.3C158.74 95.45 158.745 95.49 158.745 95.49C158.745 95.49 158.72 95.43 158.685 95.31C158.65 95.19 158.595 94.98 158.54 94.775C158.415 94.31 158.245 93.64 158.04 92.8C157.554 90.6172 157.192 88.4087 156.955 86.185C156.815 84.885 156.73 83.64 156.68 82.505C156.604 81.504 156.641 80.4977 156.79 79.505C156.897 78.8291 157.142 78.1824 157.51 77.605C157.645 77.3822 157.81 77.1787 158 77Z" fill="white"/>
<path d="M168.525 70.1901L168.41 70.2501L168.08 70.4101C167.795 70.5451 167.38 70.7451 166.885 71.0201C165.595 71.7398 164.341 72.5242 163.13 73.3701C161.7 74.3701 160.435 75.2801 159.51 75.9401L158.415 76.7151L158.11 76.9201C158.076 76.9473 158.039 76.9708 158 76.9901C158.028 76.9566 158.062 76.9279 158.1 76.9051L158.39 76.6851L159.465 75.8801C160.38 75.2051 161.64 74.2651 163.07 73.2851C164.284 72.4355 165.546 71.6575 166.85 70.9551C167.35 70.6901 167.77 70.5001 168.065 70.3751L168.4 70.2351C168.5 70.2001 168.5 70.1851 168.525 70.1901Z" fill="white"/>
<path d="M192.37 73.4451C192.338 73.4278 192.31 73.4059 192.285 73.3801L192.06 73.1851C191.781 72.9499 191.489 72.7312 191.185 72.5301C190.17 71.883 189.093 71.3386 187.97 70.9051C186.85 70.4617 185.707 70.0811 184.545 69.7651C184.095 69.6401 183.735 69.5501 183.48 69.4901L183.195 69.4151C183.16 69.4079 183.126 69.3962 183.095 69.3801H183.2L183.49 69.4351C183.745 69.4851 184.11 69.5651 184.56 69.6801C185.733 69.9763 186.885 70.3487 188.01 70.7951C189.139 71.2285 190.217 71.7852 191.225 72.4551C191.644 72.739 192.028 73.0713 192.37 73.4451Z" fill="white"/>
<path d="M168.665 111.61C168.597 111.598 168.531 111.576 168.47 111.545C168.296 111.469 168.129 111.378 167.97 111.275C167.7 111.114 167.465 110.901 167.278 110.649C167.091 110.396 166.956 110.11 166.88 109.805C166.742 109.19 166.811 108.547 167.075 107.975C167.151 107.797 167.248 107.629 167.365 107.475C167.445 107.37 167.5 107.32 167.505 107.325C167.368 107.538 167.246 107.76 167.14 107.99C166.907 108.552 166.853 109.171 166.985 109.765C167.128 110.351 167.484 110.863 167.985 111.2C168.4 111.5 168.675 111.59 168.665 111.61Z" fill="white"/>
<path d="M167.075 106.195C167.182 106.394 167.261 106.605 167.31 106.825C167.388 107.035 167.436 107.256 167.45 107.48C167.337 107.286 167.256 107.075 167.21 106.855C167.128 106.644 167.083 106.421 167.075 106.195Z" fill="white"/>
<path d="M173.835 218.3L189.085 218.225L188.81 165.5L188.665 111.865L168 111.6L164.285 118.6C162.765 121.414 161.796 124.493 161.43 127.67C161.18 130.1 163 138 163.63 140L169.315 158.03L173.835 218.3Z" fill="#263238"/>
<path d="M193.141 111.93L209.901 157.615C210.894 160.559 211.223 163.685 210.866 166.771C210.509 169.857 209.474 172.826 207.836 175.465L188.376 213.465L177.436 199.775L193.716 165.775L179.366 142.5L181.781 112L188.541 111.89L193.141 111.93Z" fill="#263238"/>
<path d="M187.275 127.235C187.275 127.235 187.275 127.315 187.275 127.47C187.275 127.625 187.3 127.865 187.32 128.16C187.355 128.775 187.4 129.66 187.46 130.805C187.575 133.12 187.735 136.445 187.96 140.55C188.185 144.655 188.375 149.55 188.625 155C188.745 157.72 188.875 160.575 189.005 163.535C189.1 165.035 189.06 166.535 189.075 168.035C189.09 169.535 189.075 171.115 189.075 172.685C189.075 185.25 189.115 196.625 189.13 204.87C189.13 208.98 189.13 212.31 189.13 214.625C189.13 215.77 189.13 216.66 189.13 217.28C189.13 217.57 189.13 217.78 189.13 217.97C189.13 218.16 189.13 218.205 189.13 218.205C189.13 218.205 189.13 218.125 189.13 217.97V217.28C189.13 216.66 189.13 215.78 189.1 214.625C189.1 212.31 189.06 208.985 189.03 204.875C188.995 196.63 188.95 185.255 188.9 172.69C188.9 171.12 188.9 169.57 188.9 168.04C188.9 166.51 188.93 165 188.835 163.54C188.71 160.585 188.585 157.73 188.47 155.01C188.24 149.57 188.03 144.675 187.86 140.555C187.69 136.435 187.565 133.125 187.47 130.81C187.43 129.67 187.4 128.78 187.38 128.16C187.38 127.865 187.38 127.66 187.38 127.47C187.38 127.28 187.275 127.235 187.275 127.235Z" fill="#455A64"/>
<path d="M186.89 112.83C186.948 112.991 186.983 113.159 186.995 113.33C187.05 113.65 187.11 114.115 187.18 114.695C187.31 115.85 187.45 117.455 187.53 119.23C187.61 121.005 187.615 122.615 187.59 123.78C187.59 124.36 187.555 124.835 187.53 125.16C187.535 125.329 187.515 125.497 187.47 125.66C187.407 125.036 187.385 124.407 187.405 123.78C187.405 122.615 187.35 121.015 187.27 119.24C187.19 117.465 187.08 115.87 186.995 114.74C186.924 114.106 186.888 113.468 186.89 112.83Z" fill="#455A64"/>
<path d="M183.53 113.86C183.555 113.895 183.27 114.025 183.19 114.43C183.168 114.54 183.174 114.654 183.208 114.76C183.242 114.867 183.303 114.963 183.385 115.04C183.484 115.132 183.607 115.194 183.74 115.218C183.873 115.241 184.01 115.227 184.135 115.175C184.255 115.113 184.355 115.019 184.424 114.903C184.493 114.788 184.528 114.655 184.525 114.52C184.521 114.408 184.487 114.299 184.429 114.204C184.37 114.108 184.288 114.03 184.19 113.975C183.987 113.876 183.76 113.837 183.535 113.86C183.535 113.86 183.585 113.795 183.715 113.755C183.903 113.709 184.1 113.729 184.275 113.81C184.415 113.868 184.535 113.964 184.624 114.087C184.712 114.209 184.764 114.354 184.775 114.505C184.795 114.691 184.756 114.879 184.663 115.042C184.571 115.204 184.43 115.334 184.26 115.413C184.09 115.491 183.9 115.514 183.716 115.479C183.532 115.443 183.364 115.351 183.235 115.215C183.129 115.109 183.054 114.977 183.017 114.831C182.981 114.686 182.986 114.533 183.03 114.39C183.08 114.203 183.193 114.039 183.35 113.925C183.45 113.855 183.525 113.845 183.53 113.86Z" fill="#455A64"/>
<path d="M175.53 112.955C175.604 113.113 175.649 113.282 175.665 113.455C175.745 113.904 175.761 114.362 175.71 114.815C175.638 115.49 175.443 116.146 175.135 116.75C174.763 117.502 174.211 118.151 173.53 118.64C172.848 119.129 172.056 119.443 171.225 119.555C170.559 119.654 169.881 119.629 169.225 119.48C168.781 119.384 168.353 119.224 167.955 119.005C167.804 118.934 167.666 118.839 167.545 118.725C168.098 118.974 168.674 119.166 169.265 119.3C169.976 119.448 170.71 119.447 171.421 119.297C172.131 119.147 172.803 118.851 173.394 118.428C173.984 118.005 174.481 117.464 174.852 116.84C175.223 116.215 175.461 115.521 175.55 114.8C175.609 114.186 175.602 113.568 175.53 112.955Z" fill="#455A64"/>
<path d="M195.15 117.335C194.824 117.373 194.493 117.333 194.185 117.22C193.429 116.982 192.751 116.547 192.22 115.96C191.684 115.376 191.316 114.657 191.155 113.88C191.076 113.563 191.076 113.232 191.155 112.915C191.2 112.915 191.205 113.28 191.355 113.84C191.557 114.564 191.926 115.23 192.431 115.786C192.936 116.343 193.564 116.774 194.265 117.045C194.785 117.25 195.155 117.285 195.15 117.335Z" fill="#455A64"/>
<path d="M201.105 166.585C200.855 166.871 200.555 167.11 200.22 167.29C199.869 167.513 199.486 167.681 199.085 167.79C198.58 167.924 198.048 167.91 197.55 167.75C196.677 167.421 195.929 166.826 195.41 166.05C195.172 165.758 194.975 165.435 194.825 165.09C195.095 165.348 195.34 165.631 195.555 165.935C196.086 166.639 196.803 167.181 197.625 167.5C198.045 167.612 198.483 167.638 198.913 167.575C199.343 167.512 199.755 167.362 200.125 167.135C200.441 166.933 200.768 166.75 201.105 166.585Z" fill="#455A64"/>
<path d="M197.285 169.5C196.694 168.888 196.166 168.218 195.71 167.5C195.184 166.832 194.725 166.113 194.34 165.355C194.935 165.965 195.464 166.635 195.92 167.355C196.45 168.019 196.907 168.738 197.285 169.5Z" fill="#455A64"/>
<path d="M171.665 129C171.595 129.025 171.42 128.74 171.265 128.355C171.11 127.97 171.045 127.645 171.11 127.615C171.175 127.585 171.355 127.875 171.505 128.26C171.655 128.645 171.73 129 171.665 129Z" fill="#FAFAFA"/>
<path d="M181.345 130.39C181.27 130.39 181.215 130.145 181.215 129.84C181.215 129.535 181.27 129.285 181.345 129.285C181.42 129.285 181.475 129.535 181.475 129.84C181.475 130.145 181.415 130.39 181.345 130.39Z" fill="#FAFAFA"/>
<path d="M177.365 135.65C177.295 135.65 177.215 135.35 177.19 134.965C177.165 134.58 177.19 134.27 177.27 134.265C177.35 134.26 177.425 134.565 177.45 134.95C177.475 135.335 177.435 135.645 177.365 135.65Z" fill="#FAFAFA"/>
<path d="M170.096 139.5C170.036 139.545 169.831 139.36 169.561 139.17C169.291 138.98 169.061 138.835 169.061 138.765C169.061 138.695 169.391 138.735 169.696 138.955C170.001 139.175 170.156 139.5 170.096 139.5Z" fill="#FAFAFA"/>
<path d="M182.91 144.405C182.85 144.365 182.91 144.15 183.08 143.905C183.25 143.66 183.405 143.52 183.465 143.56C183.525 143.6 183.465 143.82 183.295 144.06C183.125 144.3 182.97 144.445 182.91 144.405Z" fill="#FAFAFA"/>
<path d="M175 145.79C174.93 145.79 174.87 145.375 174.87 144.87C174.87 144.365 174.93 143.945 175 143.945C175.07 143.945 175.13 144.36 175.13 144.87C175.13 145.38 175.055 145.79 175 145.79Z" fill="#FAFAFA"/>
<path d="M172.41 151.4C172.37 151.455 172.11 151.34 171.83 151.135C171.55 150.93 171.33 150.72 171.395 150.66C171.46 150.6 171.7 150.72 171.98 150.925C172.26 151.13 172.455 151.34 172.41 151.4Z" fill="#FAFAFA"/>
<path d="M180.42 153.35C180.45 153.415 180.29 153.55 180.06 153.655C179.83 153.76 179.62 153.785 179.59 153.72C179.56 153.655 179.725 153.52 179.955 153.415C180.185 153.31 180.395 153.285 180.42 153.35Z" fill="#FAFAFA"/>
<path d="M175 162.5C174.94 162.53 174.68 162.145 174.425 161.635C174.17 161.125 174.015 160.685 174.08 160.635C174.145 160.585 174.405 160.99 174.655 161.5C174.905 162.01 175.045 162.445 175 162.5Z" fill="#FAFAFA"/>
<path d="M183.835 161.65C183.77 161.615 183.885 161.28 184.085 160.895C184.285 160.51 184.51 160.23 184.585 160.265C184.66 160.3 184.535 160.635 184.33 161.02C184.125 161.405 183.895 161.685 183.835 161.65Z" fill="#FAFAFA"/>
<path d="M179.96 169.395C179.885 169.395 179.895 168.99 179.815 168.52C179.735 168.05 179.615 167.675 179.685 167.64C179.755 167.605 179.995 167.96 180.075 168.48C180.155 169 180.03 169.41 179.96 169.395Z" fill="#FAFAFA"/>
<path d="M175.81 173.82C175.76 173.87 175.51 173.68 175.255 173.4C175 173.12 174.835 172.855 174.89 172.805C174.945 172.755 175.19 172.945 175.445 173.225C175.7 173.505 175.865 173.77 175.81 173.82Z" fill="#FAFAFA"/>
<path d="M185.88 175.5C185.83 175.45 186.015 175.18 186.295 174.895C186.575 174.61 186.835 174.425 186.89 174.475C186.945 174.525 186.755 174.8 186.48 175.08C186.205 175.36 185.935 175.55 185.88 175.5Z" fill="#FAFAFA"/>
<path d="M180.09 182.125C180.02 182.125 180.02 181.73 180.09 181.27C180.16 180.81 180.27 180.45 180.345 180.46C180.42 180.47 180.415 180.85 180.345 181.31C180.275 181.77 180.16 182.135 180.09 182.125Z" fill="#FAFAFA"/>
<path d="M176.195 185.34C176.13 185.375 175.91 185.115 175.695 184.76C175.48 184.405 175.37 184.09 175.43 184.055C175.49 184.02 175.71 184.275 175.93 184.63C176.15 184.985 176.255 185.3 176.195 185.34Z" fill="#FAFAFA"/>
<path d="M185.58 189.395C185.625 189.455 185.37 189.71 185.01 189.965C184.65 190.22 184.335 190.38 184.29 190.32C184.245 190.26 184.505 190.005 184.86 189.75C185.215 189.495 185.54 189.34 185.58 189.395Z" fill="#FAFAFA"/>
<path d="M177.76 194.66C177.69 194.635 177.76 194.235 177.825 193.735C177.89 193.235 177.85 192.825 177.925 192.815C178 192.805 178.13 193.225 178.08 193.76C178.03 194.295 177.825 194.69 177.76 194.66Z" fill="#FAFAFA"/>
<path d="M180.886 202.22C180.826 202.265 180.616 202.095 180.411 201.84C180.206 201.585 180.091 201.34 180.146 201.295C180.201 201.25 180.411 201.42 180.616 201.675C180.821 201.93 180.941 202.175 180.886 202.22Z" fill="#FAFAFA"/>
<path d="M177.47 207.29C177.41 207.33 177.135 207.035 176.855 206.625C176.575 206.215 176.4 205.855 176.455 205.815C176.51 205.775 176.79 206.07 177.07 206.48C177.35 206.89 177.53 207.25 177.47 207.29Z" fill="#FAFAFA"/>
<path d="M186.875 200.925C186.81 200.9 186.815 200.715 186.875 200.515C186.935 200.315 187.07 200.165 187.14 200.19C187.21 200.215 187.2 200.4 187.14 200.605C187.08 200.81 186.945 200.955 186.875 200.925Z" fill="#FAFAFA"/>
<path d="M182.725 213C182.66 212.965 182.785 212.61 182.885 212.165C182.985 211.72 183.02 211.345 183.095 211.34C183.17 211.335 183.245 211.74 183.14 212.22C183.035 212.7 182.785 213.04 182.725 213Z" fill="#FAFAFA"/>
<path d="M185.425 135.73C185.36 135.76 185.2 135.56 185.07 135.28C184.94 135 184.885 134.75 184.95 134.72C185.015 134.69 185.175 134.89 185.305 135.17C185.435 135.45 185.5 135.7 185.425 135.73Z" fill="#FAFAFA"/>
<path d="M178.5 120.16C178.54 120.22 178.19 120.5 177.815 120.9C177.44 121.3 177.185 121.67 177.12 121.635C177.055 121.6 177.225 121.135 177.62 120.725C178.015 120.315 178.45 120.095 178.5 120.16Z" fill="#FAFAFA"/>
<path d="M184.665 120C184.59 120 184.475 119.715 184.3 119.375C184.125 119.035 183.965 118.755 184.02 118.705C184.075 118.655 184.345 118.875 184.52 119.255C184.695 119.635 184.73 119.96 184.665 120Z" fill="#FAFAFA"/>
<path d="M165.415 125.055C165.35 125.025 165.415 124.695 165.57 124.315C165.725 123.935 165.895 123.64 165.965 123.67C166.035 123.7 165.965 124.025 165.81 124.41C165.655 124.795 165.5 125.08 165.415 125.055Z" fill="#FAFAFA"/>
<path d="M166.04 132.605C165.99 132.66 165.705 132.5 165.4 132.245C165.095 131.99 164.9 131.745 164.93 131.685C164.96 131.625 165.265 131.79 165.57 132.045C165.875 132.3 166.085 132.55 166.04 132.605Z" fill="#FAFAFA"/>
<path d="M178.67 114.165C178.605 114.165 178.465 114.005 178.365 113.75C178.265 113.495 178.235 113.25 178.3 113.25C178.365 113.25 178.505 113.41 178.605 113.665C178.705 113.92 178.735 114.14 178.67 114.165Z" fill="#FAFAFA"/>
<path d="M190.765 117.855C190.695 117.855 190.7 117.54 190.765 117.185C190.83 116.83 190.96 116.55 191.03 116.565C191.1 116.58 191.095 116.885 191.03 117.24C190.965 117.595 190.835 117.87 190.765 117.855Z" fill="#FAFAFA"/>
<path d="M193.605 123.57C193.54 123.54 193.63 123.17 193.81 122.735C193.99 122.3 194.185 121.975 194.25 122C194.315 122.025 194.25 122.4 194.05 122.835C193.85 123.27 193.675 123.595 193.605 123.57Z" fill="#FAFAFA"/>
<path d="M191.58 128.18C191.515 128.21 191.275 127.865 191.045 127.41C190.815 126.955 190.685 126.55 190.75 126.52C190.815 126.49 191.05 126.835 191.28 127.29C191.51 127.745 191.645 128.145 191.58 128.18Z" fill="#FAFAFA"/>
<path d="M195.91 132.79C195.845 132.765 195.91 132.475 196.02 132.145C196.13 131.815 196.305 131.565 196.375 131.59C196.445 131.615 196.375 131.905 196.265 132.235C196.155 132.565 196 132.815 195.91 132.79Z" fill="#FAFAFA"/>
<path d="M192.04 137.305C191.98 137.345 191.825 137.21 191.7 137.01C191.575 136.81 191.515 136.61 191.58 136.57C191.645 136.53 191.79 136.665 191.92 136.87C192.05 137.075 192.1 137.27 192.04 137.305Z" fill="#FAFAFA"/>
<path d="M192.865 146.625C192.815 146.67 192.5 146.425 192.17 146.065C191.84 145.705 191.615 145.38 191.67 145.33C191.725 145.28 192.035 145.53 192.365 145.89C192.695 146.25 192.92 146.575 192.865 146.625Z" fill="#FAFAFA"/>
<path d="M197.94 141.27C197.885 141.315 197.61 141.065 197.33 140.705C197.05 140.345 196.87 140.025 196.925 139.98C196.98 139.935 197.255 140.19 197.535 140.545C197.815 140.9 198 141.23 197.94 141.27Z" fill="#FAFAFA"/>
<path d="M200.725 148.655C200.66 148.625 200.775 148.25 200.98 147.82C201.185 147.39 201.4 147.06 201.48 147.09C201.56 147.12 201.435 147.5 201.23 147.93C201.025 148.36 200.79 148.69 200.725 148.655Z" fill="#FAFAFA"/>
<path d="M194.805 154.735C194.74 154.77 194.51 154.495 194.19 154.2C193.87 153.905 193.575 153.7 193.605 153.625C193.635 153.55 194.015 153.685 194.365 154.01C194.715 154.335 194.865 154.7 194.805 154.735Z" fill="#FAFAFA"/>
<path d="M195.175 161C195.175 161.07 194.925 161.13 194.62 161.13C194.315 161.13 194.07 161.07 194.07 161C194.07 160.93 194.315 160.87 194.62 160.87C194.925 160.87 195.175 160.93 195.175 161Z" fill="#FAFAFA"/>
<path d="M201.26 159.25C201.195 159.215 201.325 158.9 201.42 158.51C201.515 158.12 201.555 157.78 201.63 157.775C201.705 157.77 201.785 158.135 201.675 158.57C201.565 159.005 201.315 159.29 201.26 159.25Z" fill="#FAFAFA"/>
<path d="M207.306 161.355C207.241 161.38 207.056 161.025 206.896 160.57C206.736 160.115 206.661 159.725 206.726 159.705C206.791 159.685 206.981 160.03 207.141 160.485C207.301 160.94 207.376 161.33 207.306 161.355Z" fill="#FAFAFA"/>
<path d="M206.34 169.955C206.28 169.92 206.435 169.5 206.685 169.015C206.935 168.53 207.185 168.165 207.26 168.2C207.335 168.235 207.17 168.655 206.915 169.135C206.66 169.615 206.405 170 206.34 169.955Z" fill="#FAFAFA"/>
<path d="M200.825 175C200.76 175.025 200.555 174.68 200.365 174.225C200.175 173.77 200.08 173.38 200.15 173.35C200.22 173.32 200.42 173.67 200.605 174.125C200.79 174.58 200.89 175 200.825 175Z" fill="#FAFAFA"/>
<path d="M194.715 176.955C194.715 177.025 194.505 177.085 194.25 177.085C193.995 177.085 193.79 177.025 193.79 176.955C193.79 176.885 194 176.825 194.25 176.825C194.5 176.825 194.715 176.885 194.715 176.955Z" fill="#FAFAFA"/>
<path d="M198.215 185C198.15 185 198.01 184.725 197.905 184.345C197.8 183.965 197.78 183.635 197.85 183.62C197.92 183.605 198.055 183.895 198.16 184.275C198.265 184.655 198.285 184.96 198.215 185Z" fill="#FAFAFA"/>
<path d="M193.79 182.3C193.73 182.265 193.79 182.03 193.955 181.775C194.12 181.52 194.285 181.345 194.345 181.38C194.405 181.415 194.345 181.655 194.18 181.91C194.015 182.165 193.855 182.34 193.79 182.3Z" fill="#FAFAFA"/>
<path d="M193.7 191.155C193.63 191.155 193.53 190.82 193.48 190.385C193.43 189.95 193.445 189.595 193.515 189.585C193.585 189.575 193.685 189.92 193.735 190.355C193.785 190.79 193.77 191.145 193.7 191.155Z" fill="#FAFAFA"/>
</svg>
