<svg width="32" height="32" viewBox="0 0 32 32" fill="none" xmlns="http://www.w3.org/2000/svg">
<mask id="mask0_1122_141" style="mask-type:alpha" maskUnits="userSpaceOnUse" x="0" y="0" width="32" height="32">
<rect width="32" height="32" fill="#D9D9D9"/>
</mask>
<g mask="url(#mask0_1122_141)">
<path d="M15.9998 2.41907C17.1269 2.41907 18.0873 2.81584 18.8808 3.6094C19.6746 4.40318 20.0715 5.36629 20.0715 6.49873C20.0715 7.63095 19.6759 8.59262 18.8848 9.38373C18.0939 10.1748 17.1323 10.5704 15.9998 10.5704C14.8674 10.5704 13.9057 10.1748 13.1148 9.38373C12.3237 8.59262 11.9282 7.63095 11.9282 6.49873C11.9282 5.36629 12.3237 4.40318 13.1148 3.6094C13.9057 2.81584 14.8674 2.41907 15.9998 2.41907ZM15.9998 11.9277C17.0603 11.9277 18.1108 12.0526 19.1515 12.3024C20.1924 12.5522 21.1319 12.902 21.9702 13.3517C22.8464 13.7951 23.5414 14.3123 24.0552 14.9034C24.5689 15.4945 24.8258 16.1345 24.8258 16.8234V24.6921C24.8258 25.3978 24.6256 26.0272 24.2252 26.5801C23.8247 27.133 23.2938 27.4094 22.6325 27.4094C22.2778 27.4094 21.9651 27.2724 21.6942 26.9984C21.4231 26.7242 21.2875 26.3404 21.2875 25.8471V25.4334C21.2875 24.605 20.7055 23.9121 19.5415 23.3547C18.3775 22.7976 17.1969 22.5191 15.9998 22.5191C15.1225 22.5191 14.2683 22.6553 13.4372 22.9277C12.6061 23.2002 11.9407 23.5702 11.4412 24.0377C11.2314 24.2315 11.1749 24.4832 11.2718 24.7927C11.3687 25.1025 11.5803 25.3072 11.9065 25.4067C12.5909 25.5961 13.2916 25.7338 14.0085 25.8201C14.7254 25.9063 15.4807 25.9605 16.2745 25.9827C16.7687 25.9827 17.1921 26.159 17.5445 26.5114C17.8969 26.8638 18.0732 27.2872 18.0732 27.7814C18.0732 28.2756 17.8969 28.6988 17.5445 29.0511C17.1921 29.4035 16.7687 29.5797 16.2745 29.5797C15.4436 29.5797 14.5077 29.4868 13.4668 29.3011C12.4259 29.1155 11.4442 28.8338 10.5215 28.4561C9.53505 28.0516 8.7305 27.5372 8.10783 26.9127C7.48516 26.2883 7.17383 25.5481 7.17383 24.6921V16.8234C7.17383 16.1345 7.42805 15.4945 7.9365 14.9034C8.44494 14.3123 9.12883 13.7951 9.98816 13.3517C10.8433 12.902 11.7926 12.5522 12.8362 12.3024C13.8795 12.0526 14.9341 11.9277 15.9998 11.9277ZM15.9998 20.0711C16.7492 20.0711 17.3889 19.806 17.9192 19.2757C18.4492 18.7455 18.7142 18.1058 18.7142 17.3567C18.7142 16.6127 18.4478 15.9743 17.9152 15.4414C17.3823 14.9085 16.7438 14.6421 15.9998 14.6421C15.2505 14.6421 14.6107 14.9072 14.0805 15.4374C13.5505 15.9676 13.2855 16.6074 13.2855 17.3567C13.2855 18.1112 13.5492 18.7522 14.0765 19.2797C14.6041 19.8073 15.2452 20.0711 15.9998 20.0711Z" fill="#1A4F1E"/>
</g>
</svg>
