<svg width="32" height="32" viewBox="0 0 32 32" fill="none" xmlns="http://www.w3.org/2000/svg">
<mask id="mask0_1122_135" style="mask-type:alpha" maskUnits="userSpaceOnUse" x="0" y="0" width="32" height="32">
<rect width="32" height="32" fill="#D9D9D9"/>
</mask>
<g mask="url(#mask0_1122_135)">
<path d="M17.9597 7.30126C17.2053 7.30126 16.5589 7.03226 16.0207 6.49426C15.4825 5.95604 15.2134 5.30959 15.2134 4.55493C15.2134 3.80048 15.4811 3.15415 16.0167 2.61593C16.5523 2.0777 17.1999 1.80859 17.9597 1.80859C18.7197 1.80859 19.3675 2.07637 19.903 2.61193C20.4386 3.14748 20.7064 3.79515 20.7064 4.55493C20.7064 5.31493 20.4373 5.96271 19.899 6.49826C19.3608 7.03359 18.7144 7.30126 17.9597 7.30126ZM23.333 19.2549C23.1075 19.2549 22.9134 19.1737 22.7507 19.0113C22.5883 18.8486 22.507 18.6545 22.507 18.4289V17.6123C21.3866 17.1649 20.4891 16.6471 19.8147 16.0589C19.14 15.4707 18.5365 14.6885 18.004 13.7123C17.7863 14.276 17.613 14.964 17.4844 15.7763C17.3559 16.5887 17.3113 17.3763 17.3504 18.1389L19.7027 21.4753C19.8023 21.6024 19.8726 21.7406 19.9137 21.8899C19.955 22.039 19.9757 22.1909 19.9757 22.3456V29.3573C19.9757 29.7615 19.8374 30.102 19.5607 30.3789C19.2838 30.6558 18.9431 30.7943 18.5387 30.7943C18.1345 30.7943 17.7939 30.6558 17.517 30.3789C17.2404 30.102 17.102 29.7615 17.102 29.3573V23.8486L15.0064 20.8233L14.7077 24.8933C14.7077 24.9875 14.6081 25.2533 14.409 25.6906L11.4264 29.6556C11.1884 29.9827 10.8756 30.1725 10.488 30.2249C10.1007 30.2774 9.74348 30.1845 9.41637 29.9463C9.08393 29.708 8.89148 29.3939 8.83904 29.0039C8.78681 28.6139 8.88237 28.2554 9.1257 27.9283L11.8324 24.3136L11.8164 17.4209C11.811 16.716 11.8666 15.9462 11.983 15.1113C12.0995 14.2761 12.2688 13.5115 12.491 12.8173L10.5947 13.8933V17.2933C10.5947 17.6977 10.4563 18.0384 10.1794 18.3153C9.90248 18.5919 9.56192 18.7303 9.1577 18.7303C8.75326 18.7303 8.4127 18.5919 8.13604 18.3153C7.85915 18.0384 7.7207 17.6977 7.7207 17.2933V13.1109C7.7207 12.8345 7.78426 12.5775 7.91137 12.3399C8.03848 12.1021 8.2237 11.9197 8.46704 11.7926L13.5554 8.87526C14.1163 8.55882 14.6063 8.31593 15.0254 8.14659C15.4445 7.97726 15.8371 7.89259 16.2034 7.89259C16.796 7.89259 17.3401 8.14882 17.8357 8.66126C18.331 9.17348 18.9079 9.98593 19.5664 11.0986C20.2404 12.2348 20.9007 13.0949 21.5474 13.6789C22.1943 14.2629 22.8856 14.6733 23.6214 14.9099C23.8498 14.7588 24.0543 14.6513 24.2347 14.5873C24.4151 14.5233 24.6249 14.4913 24.864 14.4913C25.494 14.4913 26.0317 14.7205 26.477 15.1789C26.9221 15.6374 27.1447 16.181 27.1447 16.8099V29.9679C27.1447 30.1937 27.0634 30.3878 26.9007 30.5503C26.7383 30.7129 26.5443 30.7943 26.3187 30.7943C26.0929 30.7943 25.8988 30.7129 25.7364 30.5503C25.5737 30.3878 25.4924 30.1937 25.4924 29.9679V16.8099C25.4924 16.6321 25.4257 16.4766 25.2924 16.3433C25.159 16.2099 25.0035 16.1433 24.8257 16.1433C24.6479 16.1433 24.4924 16.2099 24.359 16.3433C24.2257 16.4766 24.159 16.6321 24.159 16.8099V18.4289C24.159 18.6545 24.0778 18.8486 23.9154 19.0113C23.7527 19.1737 23.5586 19.2549 23.333 19.2549Z" fill="#1A4F1E"/>
</g>
</svg>
