<svg width="32" height="32" viewBox="0 0 32 32" fill="none" xmlns="http://www.w3.org/2000/svg">
<mask id="mask0_1122_138" style="mask-type:alpha" maskUnits="userSpaceOnUse" x="0" y="0" width="32" height="32">
<rect width="32" height="32" fill="#D9D9D9"/>
</mask>
<g mask="url(#mask0_1122_138)">
<path d="M13.8168 19.5163V20.6663C13.8168 21.2727 14.0291 21.7883 14.4535 22.2129C14.8782 22.6374 15.3937 22.8496 16.0002 22.8496C16.6066 22.8496 17.1222 22.6374 17.5468 22.2129C17.9713 21.7883 18.1835 21.2727 18.1835 20.6663V19.5163H19.3335C19.9399 19.5163 20.4555 19.304 20.8802 18.8796C21.3046 18.4549 21.5168 17.9394 21.5168 17.3329C21.5168 16.7265 21.3046 16.2109 20.8802 15.7863C20.4555 15.3618 19.9399 15.1496 19.3335 15.1496H18.1835V13.9996C18.1835 13.3931 17.9713 12.8776 17.5468 12.4529C17.1222 12.0285 16.6066 11.8163 16.0002 11.8163C15.3937 11.8163 14.8782 12.0285 14.4535 12.4529C14.0291 12.8776 13.8168 13.3931 13.8168 13.9996V15.1496H12.6668C12.0604 15.1496 11.5448 15.3618 11.1202 15.7863C10.6957 16.2109 10.4835 16.7265 10.4835 17.3329C10.4835 17.9394 10.6957 18.4549 11.1202 18.8796C11.5448 19.304 12.0604 19.5163 12.6668 19.5163H13.8168ZM8.09583 28.2706C7.25628 28.2706 6.54083 27.9749 5.9495 27.3836C5.35817 26.7923 5.0625 26.0768 5.0625 25.2373V13.3806C5.0625 12.9013 5.16894 12.4471 5.38183 12.0183C5.5945 11.5894 5.89139 11.2341 6.2725 10.9526L14.1768 5.02426C14.7126 4.61559 15.3204 4.41125 16.0002 4.41125C16.6799 4.41125 17.2877 4.61559 17.8235 5.02426L25.7278 10.9526C26.1089 11.2341 26.4058 11.5894 26.6185 12.0183C26.8314 12.4471 26.9378 12.9013 26.9378 13.3806V25.2373C26.9378 26.0768 26.6422 26.7923 26.0508 27.3836C25.4595 27.9749 24.7441 28.2706 23.9045 28.2706H8.09583ZM8.09583 25.2373H23.9045V13.3806L16.0002 7.45259L8.09583 13.3806V25.2373Z" fill="#1A4F1E"/>
</g>
</svg>
