<svg width="32" height="32" viewBox="0 0 32 32" fill="none" xmlns="http://www.w3.org/2000/svg">
<mask id="mask0_1122_144" style="mask-type:alpha" maskUnits="userSpaceOnUse" x="0" y="0" width="32" height="32">
<rect width="32" height="32" fill="#D9D9D9"/>
</mask>
<g mask="url(#mask0_1122_144)">
<path d="M19.3328 15.7787C18.8502 15.7787 18.4411 15.6109 18.1055 15.2754C17.7702 14.9398 17.6025 14.5307 17.6025 14.048C17.6025 13.5656 17.7702 13.1566 18.1055 12.821C18.4411 12.4855 18.8502 12.3177 19.3328 12.3177C19.8155 12.3177 20.2246 12.4855 20.5602 12.821C20.8955 13.1566 21.0632 13.5656 21.0632 14.048C21.0632 14.5307 20.8955 14.9398 20.5602 15.2754C20.2246 15.6109 19.8155 15.7787 19.3328 15.7787ZM12.6662 15.7787C12.1835 15.7787 11.7744 15.6109 11.4388 15.2754C11.1035 14.9398 10.9358 14.5307 10.9358 14.048C10.9358 13.5656 11.1035 13.1566 11.4388 12.821C11.7744 12.4855 12.1835 12.3177 12.6662 12.3177C13.1488 12.3177 13.558 12.4855 13.8935 12.821C14.2288 13.1566 14.3965 13.5656 14.3965 14.048C14.3965 14.5307 14.2288 14.9398 13.8935 15.2754C13.558 15.6109 13.1488 15.7787 12.6662 15.7787ZM15.9995 22.667C14.6502 22.667 13.4274 22.2924 12.3312 21.543C11.2347 20.7939 10.4363 19.8034 9.93585 18.5714H22.0632C21.5627 19.8034 20.7643 20.7939 19.6678 21.543C18.5716 22.2924 17.3488 22.667 15.9995 22.667ZM15.9995 28.2714C14.3011 28.2714 12.7067 27.948 11.2165 27.3014C9.72652 26.6547 8.42929 25.7793 7.32485 24.675C6.22063 23.5706 5.34518 22.2734 4.69852 20.7834C4.05185 19.2931 3.72852 17.6988 3.72852 16.0004C3.72852 14.3019 4.05185 12.7076 4.69852 11.2174C5.34518 9.72737 6.22063 8.43015 7.32485 7.3257C8.42929 6.22148 9.72652 5.34604 11.2165 4.69937C12.7067 4.0527 14.3011 3.72937 15.9995 3.72937C17.698 3.72937 19.2923 4.0527 20.7825 4.69937C22.2725 5.34604 23.5697 6.22148 24.6742 7.3257C25.7784 8.43015 26.6538 9.72737 27.3005 11.2174C27.9472 12.7076 28.2705 14.3019 28.2705 16.0004C28.2705 17.6988 27.9472 19.2931 27.3005 20.7834C26.6538 22.2734 25.7784 23.5706 24.6742 24.675C23.5697 25.7793 22.2725 26.6547 20.7825 27.3014C19.2923 27.948 17.698 28.2714 15.9995 28.2714ZM15.9995 25.238C18.556 25.238 20.7347 24.3376 22.5358 22.5367C24.3367 20.7356 25.2372 18.5568 25.2372 16.0004C25.2372 13.4439 24.3367 11.2651 22.5358 9.46404C20.7347 7.66315 18.556 6.7627 15.9995 6.7627C15.8768 6.7627 15.7542 6.76404 15.6315 6.7667C15.5086 6.76937 15.3858 6.78759 15.2632 6.82137C15.1352 6.96537 15.049 7.11515 15.0045 7.2707C14.9601 7.42626 14.9378 7.59559 14.9378 7.7787C14.9378 8.21337 15.0884 8.58126 15.3895 8.88237C15.6904 9.18326 16.0582 9.3337 16.4928 9.3337C16.6928 9.3337 16.8762 9.30037 17.0428 9.2337C17.2095 9.16704 17.3817 9.1337 17.5595 9.1337C17.8475 9.1337 18.0884 9.2377 18.2822 9.4457C18.476 9.6537 18.5728 9.89637 18.5728 10.1737C18.5728 10.6741 18.3365 11.0045 17.8638 11.1647C17.3914 11.3251 16.9344 11.4054 16.4928 11.4054C15.4982 11.4054 14.6451 11.0496 13.9335 10.338C13.222 9.62648 12.8662 8.77337 12.8662 7.7787C12.8662 7.71204 12.8675 7.64137 12.8702 7.5667C12.8728 7.49204 12.888 7.40181 12.9155 7.29604C11.0871 7.95737 9.60429 9.07159 8.46718 10.6387C7.33029 12.2058 6.76185 13.993 6.76185 16.0004C6.76185 18.5568 7.66229 20.7356 9.46318 22.5367C11.2643 24.3376 13.4431 25.238 15.9995 25.238Z" fill="#1A4F1E"/>
</g>
</svg>
