<svg width="500" height="501" viewBox="0 0 500 501" fill="none" xmlns="http://www.w3.org/2000/svg">
<path d="M325.63 45.6448C325.63 45.6448 249.05 18.4048 173.88 61.7648C98.7101 105.125 60.7701 191.185 28.2001 260.125C-4.36993 329.065 14.3701 399.185 71.7601 431.125C129.15 463.065 168.17 415.965 248.67 413.675C329.17 411.385 350.82 422.885 417.67 377.415C484.52 331.945 496.54 224.535 443.85 145.065C391.16 65.5948 325.63 45.6448 325.63 45.6448Z" fill="#3DBB47"/>
<path opacity="0.8" d="M325.63 45.6448C325.63 45.6448 249.05 18.4048 173.88 61.7648C98.7101 105.125 60.7701 191.185 28.2001 260.125C-4.36993 329.065 14.3701 399.185 71.7601 431.125C129.15 463.065 168.17 415.965 248.67 413.675C329.17 411.385 350.82 422.885 417.67 377.415C484.52 331.945 496.54 224.535 443.85 145.065C391.16 65.5948 325.63 45.6448 325.63 45.6448Z" fill="white"/>
<path d="M17.7305 458.735H481.73" stroke="#263238" stroke-linecap="round" stroke-linejoin="round"/>
<path d="M368.4 34.7948H277V378.305H368.4V34.7948Z" stroke="#263238" stroke-linecap="round" stroke-linejoin="round"/>
<path d="M484.5 34.7948H274.68C274.311 34.7948 273.958 34.6483 273.697 34.3876C273.436 34.127 273.29 33.7734 273.29 33.4048C273.29 33.0361 273.436 32.6826 273.697 32.4219C273.958 32.1612 274.311 32.0148 274.68 32.0148H484.5C484.87 32.0148 485.224 32.1609 485.486 32.4213C485.749 32.6817 485.897 33.0352 485.9 33.4048C485.897 33.7743 485.749 34.1279 485.486 34.3883C485.224 34.6487 484.87 34.7948 484.5 34.7948Z" fill="#263238" stroke="#263238" stroke-linecap="round" stroke-linejoin="round"/>
<path d="M368.26 293.825H480.3" stroke="#263238" stroke-linecap="round" stroke-linejoin="round"/>
<path d="M368.26 287.155H480.3" stroke="#263238" stroke-linecap="round" stroke-linejoin="round"/>
<path d="M368.26 157.825H480.3" stroke="#263238" stroke-linecap="round" stroke-linejoin="round"/>
<path d="M368.26 163.695H480.3" stroke="#263238" stroke-linecap="round" stroke-linejoin="round"/>
<path d="M283.63 35.3048V61.6848" stroke="#263238" stroke-linecap="round" stroke-linejoin="round"/>
<path d="M287.91 39.2147V209.465" stroke="#263238" stroke-linecap="round" stroke-linejoin="round"/>
<path d="M298.29 34.9847V55.4947" stroke="#263238" stroke-linecap="round" stroke-linejoin="round"/>
<path d="M298.29 60.3748V71.7748" stroke="#263238" stroke-linecap="round" stroke-linejoin="round"/>
<path d="M359.04 64.9348V69.8248" stroke="#263238" stroke-linecap="round" stroke-linejoin="round"/>
<path d="M359.04 35.3048V60.3748" stroke="#263238" stroke-linecap="round" stroke-linejoin="round"/>
<path d="M309.58 90.0048V93.9148" stroke="#263238" stroke-linecap="round" stroke-linejoin="round"/>
<path d="M309.58 39.5448V85.4448" stroke="#263238" stroke-linecap="round" stroke-linejoin="round"/>
<path d="M316.3 39.2147V53.5447" stroke="#263238" stroke-linecap="round" stroke-linejoin="round"/>
<path d="M351.1 39.2147V53.5447" stroke="#263238" stroke-linecap="round" stroke-linejoin="round"/>
<path d="M324.85 34.9847V157.465" stroke="#263238" stroke-linecap="round" stroke-linejoin="round"/>
<path d="M336.14 35.6348V42.1448" stroke="#263238" stroke-linecap="round" stroke-linejoin="round"/>
<path d="M342.86 35.6348V122.465" stroke="#263238" stroke-linecap="round" stroke-linejoin="round"/>
<path d="M332.48 40.8447V59.0747" stroke="#263238" stroke-linecap="round" stroke-linejoin="round"/>
<path d="M389.9 139.985L387.54 142.925" stroke="#263238" stroke-linecap="round" stroke-linejoin="round"/>
<path d="M439.29 80.9948L393.71 135.235" stroke="#263238" stroke-linecap="round" stroke-linejoin="round"/>
<path d="M429.07 112.425L411.55 133.195" stroke="#263238" stroke-linecap="round" stroke-linejoin="round"/>
<path d="M389.9 269.315L387.54 272.265" stroke="#263238" stroke-linecap="round" stroke-linejoin="round"/>
<path d="M441.02 205.705L393.71 264.565" stroke="#263238" stroke-linecap="round" stroke-linejoin="round"/>
<path d="M429.07 241.765L411.55 262.525" stroke="#263238" stroke-linecap="round" stroke-linejoin="round"/>
<path d="M447.95 163.745V285.375" stroke="#263238" stroke-linecap="round" stroke-linejoin="round"/>
<path d="M447.95 34.2247V157.585" stroke="#263238" stroke-linecap="round" stroke-linejoin="round"/>
<path d="M454.01 163.895V285.375" stroke="#263238" stroke-linecap="round" stroke-linejoin="round"/>
<path d="M454.01 34.2247V157.525" stroke="#263238" stroke-linecap="round" stroke-linejoin="round"/>
<path d="M241.12 134.455H34.9102V139.555H241.12V134.455Z" stroke="#263238" stroke-linecap="round" stroke-linejoin="round"/>
<path d="M261.54 182.435H14.5V187.535H261.54V182.435Z" stroke="#263238" stroke-linecap="round" stroke-linejoin="round"/>
<path d="M55.6699 77.1548V134.325H104V77.1548H55.6699ZM102.06 132.035H57.5999V79.4348H102.06V132.035Z" fill="#263238" stroke="#263238" stroke-linecap="round" stroke-linejoin="round"/>
<path d="M137.68 142.965V181.965H170.68V142.965H137.68ZM169.32 180.405H139V144.515H169.33L169.32 180.405Z" fill="#263238" stroke="#263238" stroke-linecap="round" stroke-linejoin="round"/>
<path d="M114.2 100.325V134.325H143V100.325H114.2ZM139.54 130.325H117.62V104.325H139.54V130.325Z" fill="#263238" stroke="#263238" stroke-linecap="round" stroke-linejoin="round"/>
<path d="M29.8096 147.925V181.925H58.5696V147.925H29.8096ZM55.1496 177.925H33.2296V151.975H55.1496V177.925Z" fill="#263238" stroke="#263238" stroke-linecap="round" stroke-linejoin="round"/>
<path d="M66.5596 159.815V181.955H85.2796V159.815H66.5596ZM83.0496 179.325H68.7896V162.455H83.0496V179.325Z" fill="#263238" stroke="#263238" stroke-linecap="round" stroke-linejoin="round"/>
<path d="M108.07 159.815V181.955H126.79V159.815H108.07ZM124.56 179.325H110.3V162.455H124.56V179.325Z" fill="#263238" stroke="#263238" stroke-linecap="round" stroke-linejoin="round"/>
<path d="M179.94 119.095H190.84C191.522 119.095 192.175 119.365 192.657 119.847C193.139 120.329 193.41 120.983 193.41 121.665V134.325H177.41V121.675C177.407 120.998 177.672 120.348 178.145 119.865C178.619 119.382 179.264 119.105 179.94 119.095Z" stroke="#263238" stroke-linecap="round" stroke-linejoin="round"/>
<path d="M190.23 115.505H180.55V118.985H190.23V115.505Z" stroke="#263238" stroke-linecap="round" stroke-linejoin="round"/>
<path d="M187.36 115.395C188.807 111.764 190.512 108.242 192.46 104.855C194.85 101.105 200.63 98.0448 204.37 98.0448C208.11 98.0448 215.26 102.125 220.03 107.575" stroke="#263238" stroke-linecap="round" stroke-linejoin="round"/>
<path d="M200.63 99.0648C200.63 99.0648 202.63 92.2648 208.8 89.5348C214.97 86.8048 221.05 87.8348 222.07 86.8148" stroke="#263238" stroke-linecap="round" stroke-linejoin="round"/>
<path d="M184.16 115.325C184.148 112.543 183.24 109.84 181.57 107.615C178.85 104.215 172.39 102.845 168.3 105.615C165.709 107.398 163.414 109.578 161.5 112.075" stroke="#263238" stroke-linecap="round" stroke-linejoin="round"/>
<path d="M173.41 104.515C173.41 104.515 169 108.935 168 113.325C167.435 116.376 167.551 119.514 168.34 122.515" stroke="#263238" stroke-linecap="round" stroke-linejoin="round"/>
<path d="M192.46 104.855C195.98 98.2448 195.2 90.4948 197.85 83.6248C200.59 76.5348 206.77 72.7048 214.24 72.1848" stroke="#263238" stroke-linecap="round" stroke-linejoin="round"/>
<path d="M162.08 111.225C162.08 111.225 159.28 111.225 158.35 113.455C157.79 114.874 157.598 116.411 157.79 117.925C158.579 117.748 159.313 117.383 159.929 116.86C160.546 116.338 161.026 115.674 161.33 114.925C162.45 112.325 162.08 111.225 162.08 111.225Z" fill="#3DBB47"/>
<path d="M167.2 106.135C167.2 106.135 166.12 103.555 163.7 103.565C162.174 103.594 160.681 104.01 159.36 104.775C159.826 105.432 160.444 105.968 161.161 106.335C161.879 106.703 162.674 106.891 163.48 106.885C166.31 106.915 167.2 106.135 167.2 106.135Z" fill="#3DBB47"/>
<path d="M167.16 117.025C167.16 117.025 164.75 115.605 162.81 117.025C161.603 117.958 160.653 119.183 160.05 120.585C160.816 120.836 161.632 120.898 162.428 120.766C163.224 120.634 163.976 120.311 164.62 119.825C166.91 118.175 167.16 117.025 167.16 117.025Z" fill="#3DBB47"/>
<path d="M168.2 121.625C168.2 121.625 166.09 123.465 166.85 125.755C167.361 127.194 168.228 128.48 169.37 129.495C169.847 128.846 170.161 128.092 170.285 127.297C170.408 126.501 170.338 125.687 170.08 124.925C169.21 122.225 168.2 121.625 168.2 121.625Z" fill="#3DBB47"/>
<path d="M168.09 111.875C168.09 111.875 167.38 114.575 169.3 116.045C170.53 116.947 171.968 117.521 173.48 117.715C173.509 116.908 173.342 116.107 172.994 115.379C172.645 114.651 172.126 114.018 171.48 113.535C169.26 111.795 168.09 111.875 168.09 111.875Z" fill="#3DBB47"/>
<path d="M170.61 103.875C170.61 103.875 171.45 101.215 169.61 99.6448C168.427 98.684 167.02 98.0374 165.52 97.7648C165.45 98.5664 165.574 99.3732 165.882 100.117C166.19 100.86 166.673 101.518 167.29 102.035C169.43 103.895 170.61 103.875 170.61 103.875Z" fill="#3DBB47"/>
<path d="M175.62 104.145C175.62 104.145 177.69 102.275 176.89 99.9848C176.349 98.5688 175.462 97.3106 174.31 96.3248C173.843 96.9803 173.54 97.739 173.429 98.5364C173.318 99.3338 173.4 100.146 173.67 100.905C174.59 103.565 175.62 104.145 175.62 104.145Z" fill="#3DBB47"/>
<path d="M203.93 92.9647C203.93 92.9647 206 91.0947 205.2 88.8147C204.665 87.384 203.778 86.1114 202.62 85.1147C202.153 85.7722 201.851 86.5331 201.742 87.3324C201.632 88.1317 201.717 88.9456 201.99 89.7047C202.9 92.3847 203.93 92.9647 203.93 92.9647Z" fill="#3DBB47"/>
<path d="M212.13 88.6848C212.13 88.6848 214.2 86.8148 213.4 84.5248C212.863 83.0979 211.976 81.829 210.82 80.8348C210.353 81.4903 210.05 82.249 209.939 83.0464C209.827 83.8438 209.91 84.6563 210.18 85.4148C211.1 88.1048 212.13 88.6848 212.13 88.6848Z" fill="#3DBB47"/>
<path d="M219 87.3748C219 87.3748 221.07 85.5048 220.27 83.2248C219.731 81.7959 218.844 80.5241 217.69 79.5248C217.222 80.1823 216.921 80.9431 216.811 81.7424C216.701 82.5417 216.787 83.3556 217.06 84.1148C218 86.7948 219 87.3748 219 87.3748Z" fill="#3DBB47"/>
<path d="M172.63 111.545C172.63 111.545 175.43 111.455 176.29 109.195C176.806 107.757 176.947 106.212 176.7 104.705C175.92 104.905 175.2 105.29 174.601 105.828C174.003 106.366 173.542 107.041 173.26 107.795C172.23 110.445 172.63 111.545 172.63 111.545Z" fill="#3DBB47"/>
<path d="M217.71 93.6248C217.71 93.6248 218.33 90.9048 216.36 89.4948C215.104 88.6279 213.649 88.0945 212.13 87.9448C212.124 88.7508 212.312 89.5463 212.68 90.2637C213.047 90.9811 213.582 91.599 214.24 92.0648C216.53 93.7348 217.71 93.6248 217.71 93.6248Z" fill="#3DBB47"/>
<path d="M224.41 93.4448C224.41 93.4448 225.04 90.7148 223.07 89.3048C221.813 88.4398 220.358 87.9066 218.84 87.7548C218.839 88.5651 219.035 89.3635 219.412 90.0813C219.788 90.799 220.333 91.4145 221 91.8748C223.24 93.5548 224.41 93.4448 224.41 93.4448Z" fill="#3DBB47"/>
<path d="M165.21 114.705C165.21 114.705 167.68 113.405 167.46 110.995C167.292 109.477 166.746 108.026 165.87 106.775C165.256 107.297 164.777 107.959 164.474 108.706C164.171 109.453 164.053 110.262 164.13 111.065C164.36 113.895 165.21 114.705 165.21 114.705Z" fill="#3DBB47"/>
<path d="M193.71 110.615C193.71 110.615 196.18 109.305 195.96 106.895C195.792 105.377 195.246 103.926 194.37 102.675C193.756 103.197 193.277 103.859 192.974 104.606C192.671 105.353 192.553 106.162 192.63 106.965C192.86 109.795 193.71 110.615 193.71 110.615Z" fill="#3DBB47"/>
<path d="M188.35 101.925C188.35 101.925 186.35 103.925 187.22 106.125C187.804 107.535 188.736 108.774 189.93 109.725C190.373 109.053 190.647 108.283 190.729 107.482C190.811 106.682 190.698 105.873 190.4 105.125C189.39 102.475 188.35 101.925 188.35 101.925Z" fill="#3DBB47"/>
<path d="M200.61 106.515C200.61 106.515 203.08 105.205 202.86 102.795C202.692 101.279 202.141 99.8299 201.26 98.5848C200.649 99.1067 200.172 99.7682 199.871 100.513C199.57 101.258 199.453 102.065 199.53 102.865C199.75 105.695 200.61 106.515 200.61 106.515Z" fill="#3DBB47"/>
<path d="M209 106.525C209 106.525 211.06 104.635 210.23 102.355C209.678 100.931 208.777 99.6693 207.61 98.6848C207.137 99.3498 206.835 100.12 206.728 100.929C206.622 101.738 206.715 102.56 207 103.325C207.92 105.955 209 106.525 209 106.525Z" fill="#3DBB47"/>
<path d="M215.47 110.065C215.47 110.065 217.53 108.175 216.7 105.895C216.148 104.471 215.247 103.209 214.08 102.225C213.621 102.887 213.328 103.649 213.227 104.449C213.126 105.248 213.22 106.06 213.5 106.815C214.44 109.495 215.47 110.065 215.47 110.065Z" fill="#3DBB47"/>
<path d="M223.82 102.035C223.82 102.035 222.06 99.8748 219.74 100.565C218.283 101.028 216.969 101.853 215.92 102.965C216.554 103.463 217.298 103.8 218.091 103.948C218.883 104.096 219.699 104.05 220.47 103.815C223.19 103.035 223.82 102.035 223.82 102.035Z" fill="#3DBB47"/>
<path d="M215.05 77.7447C215.05 77.7447 215.05 74.9547 212.8 74.0247C211.379 73.4715 209.842 73.2857 208.33 73.4847C208.508 74.2715 208.874 75.0034 209.397 75.6181C209.919 76.2328 210.582 76.712 211.33 77.0147C213.93 78.1247 215.05 77.7447 215.05 77.7447Z" fill="#3DBB47"/>
<path d="M211.69 66.4048C211.69 66.4048 208.92 66.7848 208.3 69.1248C207.937 70.6088 207.957 72.1609 208.36 73.6348C209.116 73.3538 209.792 72.8943 210.332 72.2953C210.872 71.6963 211.259 70.9756 211.46 70.1948C212.21 67.4648 211.69 66.4048 211.69 66.4048Z" fill="#3DBB47"/>
<path d="M207.41 81.4748C207.41 81.4748 207.41 78.6748 205.17 77.7548C203.748 77.1939 202.206 77.0046 200.69 77.2048C200.869 77.9916 201.235 78.7235 201.757 79.3382C202.279 79.9529 202.943 80.4321 203.69 80.7348C206.3 81.8448 207.41 81.4748 207.41 81.4748Z" fill="#3DBB47"/>
<path d="M204.05 70.1248C204.05 70.1248 201.28 70.5148 200.66 72.8548C200.303 74.3361 200.323 75.8834 200.72 77.3548C201.474 77.0748 202.15 76.6167 202.69 76.0196C203.23 75.4224 203.617 74.7038 203.82 73.9248C204.57 71.1848 204.05 70.1248 204.05 70.1248Z" fill="#3DBB47"/>
<path d="M204.56 86.1048C204.56 86.1048 202.83 83.9148 200.5 84.5748C199.04 85.0129 197.716 85.8146 196.65 86.9048C197.275 87.4131 198.013 87.7631 198.801 87.925C199.59 88.0869 200.406 88.056 201.18 87.8348C203.92 87.0948 204.56 86.1048 204.56 86.1048Z" fill="#3DBB47"/>
<path d="M194.9 79.3248C194.9 79.3248 192.96 81.3248 193.9 83.5548C194.533 84.9442 195.506 86.1514 196.73 87.0648C197.15 86.3768 197.398 85.5973 197.452 84.7929C197.506 83.9884 197.364 83.1828 197.04 82.4448C196 79.7848 194.9 79.3248 194.9 79.3248Z" fill="#3DBB47"/>
<path d="M202.51 95.6048C202.51 95.6048 200.78 93.4148 198.45 94.0748C196.991 94.5165 195.667 95.3177 194.6 96.4048C195.224 96.9131 195.962 97.2631 196.751 97.425C197.539 97.5869 198.355 97.556 199.13 97.3348C201.87 96.5948 202.51 95.6048 202.51 95.6048Z" fill="#3DBB47"/>
<path d="M192.85 88.7748C192.85 88.7748 190.91 90.7748 191.85 93.0048C192.483 94.3941 193.456 95.6013 194.68 96.5148C195.1 95.8268 195.348 95.0473 195.402 94.2428C195.456 93.4384 195.315 92.6328 194.99 91.8948C193.92 89.3248 192.85 88.7748 192.85 88.7748Z" fill="#3DBB47"/>
<path d="M216 97.9347C216 97.9347 214.23 95.7747 211.91 96.4647C210.453 96.9274 209.139 97.7534 208.09 98.8647C208.724 99.3626 209.468 99.7 210.261 99.848C211.053 99.996 211.869 99.9502 212.64 99.7147C215.37 98.9347 216 97.9347 216 97.9347Z" fill="#3DBB47"/>
<path d="M211.53 93.3248C211.53 93.3248 209.76 91.1548 207.44 91.8548C205.986 92.3174 204.672 93.1395 203.62 94.2448C204.253 94.7444 204.997 95.0835 205.79 95.2333C206.582 95.383 207.399 95.3389 208.17 95.1048C210.9 94.3248 211.53 93.3248 211.53 93.3248Z" fill="#3DBB47"/>
<path d="M229 86.0148C229 86.0148 227.23 83.8548 224.91 84.5448C223.453 85.0075 222.139 85.8335 221.09 86.9448C221.724 87.4427 222.468 87.78 223.261 87.928C224.053 88.076 224.869 88.0303 225.64 87.7948C228.41 87.0148 229 86.0148 229 86.0148Z" fill="#3DBB47"/>
<path d="M221.4 71.3248C221.4 71.3248 219.63 69.1548 217.31 69.8448C215.858 70.3119 214.548 71.1373 213.5 72.2448C214.132 72.7428 214.874 73.081 215.665 73.2307C216.455 73.3805 217.27 73.3373 218.04 73.1048C220.77 72.3248 221.4 71.3248 221.4 71.3248Z" fill="#3DBB47"/>
<path d="M221.43 115.325C221.43 115.325 223.49 113.435 222.66 111.165C222.112 109.739 221.21 108.476 220.04 107.495C219.58 108.157 219.288 108.919 219.187 109.719C219.086 110.518 219.18 111.33 219.46 112.085C220.4 114.705 221.43 115.325 221.43 115.325Z" fill="#3DBB47"/>
<path d="M195.13 181.955H205.79C209.4 179.505 211.86 174.635 211.86 169.025C211.899 165.645 210.939 162.33 209.1 159.495H191.82C189.98 162.33 189.02 165.645 189.06 169.025C189.06 174.635 191.52 179.505 195.13 181.955Z" stroke="#263238" stroke-linecap="round" stroke-linejoin="round"/>
<path d="M229.56 145.005H222.75V182.435H229.56V145.005Z" stroke="#263238" stroke-linecap="round" stroke-linejoin="round"/>
<path d="M237.04 145.005H230.23V182.435H237.04V145.005Z" stroke="#263238" stroke-linecap="round" stroke-linejoin="round"/>
<path d="M244.53 145.005H237.72V182.435H244.53V145.005Z" stroke="#263238" stroke-linecap="round" stroke-linejoin="round"/>
<path d="M57.9293 354.425C55.2258 348.744 54.6166 342.291 56.2093 336.205C58.8493 325.825 59.8093 327.565 57.0593 321.585C54.3093 315.605 51.9293 314.385 53.5693 309.255C55.2093 304.125 58.0293 296.105 57.0093 291.255C55.9893 286.405 53.7693 284.405 54.7693 279.155C55.7693 273.905 58.8593 271.375 57.3493 265.645C55.8393 259.915 53.1993 260.185 54.1993 254.925C55.1993 249.665 56.5993 249.265 56.1993 244.515C55.7993 239.765 56.8993 237.515 56.8993 237.515C56.8993 237.515 58.7093 244.945 59.8993 249.055C61.0893 253.165 61.2593 255.535 60.6893 258.535C60.1193 261.535 66.9194 266.735 67.1194 269.105C67.3194 271.475 68.7694 274.105 66.5094 279.105C64.2494 284.105 63.6794 287.105 64.9794 290.475C66.2794 293.845 67.6894 293.325 66.3994 300.085C65.1094 306.845 61.1993 306.865 64.0993 312.085C66.9993 317.305 68.7394 318.415 67.3994 322.085C66.0594 325.755 63.9394 329.985 64.7593 332.475C65.2364 333.712 65.8185 334.907 66.4993 336.045C68.1626 338.995 68.7193 342.441 68.0693 345.765L67.6793 347.815L68.9493 358.165L62.7793 363.215C62.7793 363.215 59.9193 361.035 57.9293 354.425Z" fill="#3DBB47"/>
<path d="M50.8096 355.325C49.0238 353.339 47.652 351.017 46.7746 348.495C45.8971 345.972 45.5317 343.3 45.6996 340.635C46.3396 331.695 47.6196 332.975 43.7896 328.505C39.9596 324.035 37.3996 323.405 38.0396 318.935C38.6796 314.465 39.9596 307.445 38.0396 303.615C36.1196 299.785 33.5696 298.505 33.5696 294.035C33.5696 289.565 36.1296 287.035 33.5696 282.545C31.0096 278.055 28.4596 278.715 28.4596 274.245C28.4596 269.775 29.7396 265.945 28.4596 262.115C27.1796 258.285 28.0196 259.115 28.0196 259.115C28.0196 259.115 31.0196 265.345 32.9296 268.535C34.8396 271.725 35.4896 273.645 35.4896 276.195C35.4896 278.745 43.1496 281.945 43.7896 283.855C44.4296 285.765 46.3396 287.695 45.0596 292.155C43.7796 296.615 43.7896 299.155 45.6996 301.735C47.6096 304.315 48.8896 303.655 48.8896 309.395C48.8896 315.135 45.0596 315.775 48.8896 319.615C52.7196 323.455 54.6396 324.075 53.9996 327.275C53.3596 330.475 52.0896 334.275 53.3596 336.205C53.8412 336.874 54.3763 337.503 54.9596 338.085C57.6147 340.821 59.1027 344.482 59.1096 348.295L62.2996 356.595L57.1896 361.705C57.1896 361.705 53.9996 360.425 50.8096 355.325Z" fill="#3DBB47"/>
<path d="M87.2 355.325C88.9831 353.338 90.3524 351.015 91.2281 348.493C92.1037 345.971 92.4681 343.299 92.3 340.635C91.67 331.695 90.39 332.975 94.22 328.505C98.05 324.035 100.6 323.405 99.97 318.935C99.34 314.465 98.05 307.445 99.97 303.615C101.89 299.785 104.43 298.505 104.43 294.035C104.43 289.565 101.88 287.035 104.43 282.545C106.98 278.055 109.54 278.715 109.54 274.245C109.54 269.775 108.26 265.945 109.54 262.115C110.82 258.285 109.29 260.475 109.29 260.475C109.29 260.475 106.99 265.305 105.07 268.475C103.15 271.645 102.52 273.585 102.52 276.135C102.52 278.685 94.86 281.885 94.22 283.795C93.58 285.705 91.67 287.635 92.94 292.095C94.21 296.555 94.22 299.095 92.3 301.675C90.38 304.255 89.11 303.595 89.11 309.335C89.11 315.075 92.94 315.715 89.11 319.555C85.28 323.395 83.37 324.015 84.01 327.215C84.65 330.415 85.92 334.215 84.64 336.145C84.1718 336.806 83.6464 337.425 83.07 337.995C80.3904 340.765 78.8947 344.47 78.9 348.325L75.71 356.625L80.81 361.735C80.81 361.735 84 360.425 87.2 355.325Z" fill="#3DBB47"/>
<path d="M75.94 356.925C77.1004 355.11 77.8874 353.083 78.2548 350.96C78.6223 348.838 78.5628 346.664 78.08 344.565C76.4 337.565 75.55 338.715 78.01 334.655C80.47 330.595 82.42 329.745 81.32 326.275C80.22 322.805 78.32 317.375 79.32 314.075C80.32 310.775 82.21 309.415 81.62 305.855C81.03 302.295 78.62 300.605 80.11 296.705C81.6 292.805 83.67 292.985 83.11 289.435C82.55 285.885 81 282.995 81.52 279.775C82.04 276.555 80.91 277.395 80.91 277.395C80.3921 280.123 79.6871 282.813 78.8 285.445C77.69 288.235 77.44 289.845 77.8 291.875C78.16 293.905 72.46 297.465 72.2 299.065C71.94 300.665 70.67 302.455 72.28 305.845C73.89 309.235 74.22 311.265 73.03 313.555C71.84 315.845 70.74 315.495 71.49 320.075C72.24 324.655 75.38 324.655 72.84 328.205C70.3 331.755 68.84 332.525 69.78 334.975C70.72 337.425 72.23 340.315 71.46 341.975C70.3235 343.869 69.0218 345.66 67.57 347.325L68.41 352.405L66.96 359.405L71.7 362.795C71.7 362.795 74.07 361.415 75.94 356.925Z" fill="#3DBB47"/>
<path d="M94.6693 351.725L93.1693 389.165H89.0093V418.035H46.8793V389.165H42.9893L41.4893 351.725H94.6693Z" fill="#263238" stroke="#263238" stroke-miterlimit="10"/>
<path d="M41.7598 358.575L41.9798 363.995H94.1798L94.3898 358.575H41.7598Z" fill="white" stroke="#263238" stroke-miterlimit="10"/>
<path d="M93.7793 373.855L93.9193 370.405H42.2393L42.3793 373.855H93.7793Z" fill="white" stroke="#263238" stroke-miterlimit="10"/>
<path d="M42.9899 389.155H41.1299V458.745H46.8799V418.035" stroke="#263238" stroke-miterlimit="10"/>
<path d="M93.1698 389.155H94.7498V458.745H89.0098V418.035" stroke="#263238" stroke-miterlimit="10"/>
<path d="M136.94 316.325C136.94 316.325 125.62 251.825 125.62 237.325C125.62 222.825 140.52 199.825 175.08 190.825C209.64 181.825 253.74 187.825 266.85 194.325C279.96 200.825 287.7 214.825 290.68 237.825C293.66 260.825 299.62 353.325 299.62 353.325L142.31 355.825L136.94 316.325Z" fill="#666666" stroke="#263238" stroke-linecap="round" stroke-linejoin="round"/>
<path d="M324.231 440.635C320.87 444.294 316.863 447.301 312.411 449.505C305.411 452.825 302.061 456.505 302.411 459.105C302.761 461.705 306.851 462.105 313.861 462.435C320.871 462.765 345.631 461.695 349.701 461.695C353.771 461.695 357.081 460.585 357.081 457.255C357.081 453.925 356.341 445.435 356.341 445.435L324.231 440.635Z" fill="white" stroke="#263238" stroke-linecap="round" stroke-linejoin="round"/>
<path d="M339.001 458.735C325.941 458.735 308.391 457.985 302.571 457.735C302.423 458.179 302.375 458.65 302.431 459.115C302.801 461.705 306.871 462.115 313.881 462.445C320.891 462.775 345.651 461.705 349.721 461.705C353.381 461.705 356.441 460.795 357.001 458.175C353.081 458.445 347.101 458.735 339.001 458.735Z" fill="white" stroke="#263238" stroke-linecap="round" stroke-linejoin="round"/>
<path d="M359.32 278.475C359.32 278.475 345.65 334.625 345.65 339.055C345.65 343.485 358.58 363.805 358.95 379.685C359.32 395.565 353.41 426.605 354.52 429.925C355.63 433.245 357.52 435.465 357.1 438.425C356.68 441.385 355.63 449.135 355.63 449.135C355.63 449.135 350.45 449.505 339.74 447.285C333.645 446.08 327.697 444.223 322 441.745C322 441.745 321.26 433.985 321.26 432.515C321.26 431.045 322.74 427.335 323.11 424.385C323.48 421.435 322 392.615 319.05 377.475C316.1 362.335 310.55 342.745 310.55 332.405C310.55 322.065 310.18 285.495 310.18 285.495C317.323 280.575 324.858 276.251 332.71 272.565C346.01 266.285 355.25 269.615 355.25 269.615L359.32 278.475Z" fill="#3DBB47" stroke="#263238" stroke-linecap="round" stroke-linejoin="round"/>
<path d="M337.64 270.595C335.961 271.16 334.318 271.828 332.72 272.595C325.99 275.782 319.479 279.413 313.23 283.465L315.65 288.675C315.65 288.675 341.8 297.075 354.71 295.455L355.26 295.375C357.54 285.815 359.32 278.505 359.32 278.505L356.8 273.025C355.757 272.367 354.616 271.877 353.42 271.575C352 271.375 344.84 270.965 337.64 270.595Z" fill="#263238" stroke="#263238" stroke-linecap="round" stroke-linejoin="round"/>
<path d="M364.86 440.635C361.486 444.296 357.465 447.303 353 449.505C346 452.825 342.66 456.505 343 459.105C343.34 461.705 347.43 462.105 354.45 462.435C361.47 462.765 386.22 461.695 390.28 461.695C394.34 461.695 397.67 460.585 397.67 457.255C397.67 453.925 396.93 445.435 396.93 445.435L364.86 440.635Z" fill="white" stroke="#263238" stroke-linecap="round" stroke-linejoin="round"/>
<path d="M379.63 458.735C366.57 458.735 349.02 457.985 343.2 457.735C343.053 458.179 343.005 458.65 343.06 459.115C343.43 461.705 347.49 462.115 354.51 462.445C361.53 462.775 386.28 461.705 390.34 461.705C394.01 461.705 397.06 460.795 397.63 458.175C393.71 458.445 387.73 458.735 379.63 458.735Z" fill="white" stroke="#263238" stroke-linecap="round" stroke-linejoin="round"/>
<path d="M400 278.475C400 278.475 386.33 334.625 386.33 339.055C386.33 343.485 399.26 363.805 399.63 379.685C400 395.565 394.09 426.605 395.19 429.925C396.29 433.245 398.19 435.465 397.78 438.425C397.37 441.385 396.3 449.135 396.3 449.135C396.3 449.135 391.13 449.505 380.42 447.285C374.329 446.079 368.384 444.222 362.69 441.745C362.69 441.745 361.95 433.985 361.95 432.515C361.95 431.045 363.43 427.335 363.8 424.385C364.17 421.435 362.69 392.615 359.73 377.475C356.77 362.335 351.24 342.745 351.24 332.405C351.24 322.065 350.87 285.495 350.87 285.495C358.012 280.573 365.547 276.248 373.4 272.565C386.7 266.285 395.93 269.615 395.93 269.615L400 278.475Z" fill="#3DBB47" stroke="#263238" stroke-linecap="round" stroke-linejoin="round"/>
<path d="M387.73 268.775C382.734 269.079 377.847 270.367 373.35 272.565C365.497 276.248 357.962 280.572 350.82 285.495C350.82 285.495 350.82 289.715 350.92 295.685C353.27 296.175 359.76 297.135 372.14 296.395C385.8 295.575 394.35 292.915 396.66 292.115L397.38 289.115L397.64 276.365C397.64 276.365 391.5 271.325 387.73 268.775Z" fill="#263238" stroke="#263238" stroke-linecap="round" stroke-linejoin="round"/>
<path d="M320.46 162.795C320.46 162.795 311.46 165.545 309.21 167.045C306.96 168.545 303.46 180.295 302.46 183.045C301.46 185.795 296.21 200.045 296.21 200.045L304.71 201.795C304.71 201.795 304.46 210.295 305.71 213.795C306.96 217.295 315.96 227.795 315.96 227.795L319.21 236.545L315.71 285.045C315.71 285.045 328.46 291.795 349.96 293.795C371.46 295.795 386.21 293.795 387.96 292.795C388.997 292.2 390.084 291.698 391.21 291.295L392.71 284.295L394.96 290.795C397.768 290.533 400.537 289.946 403.21 289.045C406.21 287.795 410.71 285.295 410.71 285.295C410.71 285.295 401.46 250.295 397.46 240.795C393.46 231.295 386.71 216.545 386.71 216.545C386.71 216.545 383.71 182.295 377.71 170.795C371.71 159.295 360.46 156.295 352.46 155.545C344.46 154.795 320.46 162.795 320.46 162.795Z" fill="#3DBB47" stroke="#263238" stroke-linecap="round" stroke-linejoin="round"/>
<path d="M389.29 181.795L381.71 189.295L377.46 181.545L389.29 181.795Z" fill="#263238" stroke="#263238" stroke-linecap="round" stroke-linejoin="round"/>
<path d="M356.29 188.125L359.29 214.455C359.29 214.455 315.96 222.795 311.29 222.455C305.718 221.856 300.089 222.779 295 225.125C288.33 228.125 285 229.795 285.33 231.455C285.66 233.115 288.66 238.455 288.66 238.455C288.66 238.455 294.33 238.795 294.66 237.795C294.88 237.034 294.994 236.247 295 235.455C295 235.455 301 235.795 303.66 234.455C305.368 233.574 306.94 232.452 308.33 231.125C308.33 231.125 343.33 233.795 356.66 234.125C369.99 234.455 385.33 233.455 387 231.125C388.67 228.795 381 181.125 381 181.125L356.29 188.125Z" fill="white" stroke="#263238" stroke-linecap="round" stroke-linejoin="round"/>
<path d="M359.29 214.455C359.29 214.455 372.75 209.635 380.29 212.555" stroke="#263238" stroke-linecap="round" stroke-linejoin="round"/>
<path d="M311.29 222.455L312.07 231.325L316.03 231.945L315.19 221.935L311.29 222.455Z" fill="white" stroke="#263238" stroke-linecap="round" stroke-linejoin="round"/>
<path d="M316.65 221.755C316.7 222.675 315.35 223.505 313.65 223.605C311.95 223.705 310.48 223.045 310.42 222.125C310.36 221.205 311.72 220.375 313.42 220.275C315.12 220.175 316.59 220.835 316.65 221.755Z" fill="white" stroke="#263238" stroke-linecap="round" stroke-linejoin="round"/>
<path d="M294.96 235.455L291.42 234.455" stroke="#263238" stroke-linecap="round" stroke-linejoin="round"/>
<path d="M353.62 173.125L355.29 192.125L389.29 181.795C389.29 181.795 378 162.125 371.62 157.125C365.24 152.125 352.29 156.455 350.62 157.795" fill="#3DBB47"/>
<path d="M353.62 173.125L355.29 192.125L389.29 181.795C389.29 181.795 378 162.125 371.62 157.125C365.24 152.125 352.29 156.455 350.62 157.795" stroke="#263238" stroke-linecap="round" stroke-linejoin="round"/>
<path d="M288.71 110.045C288.71 110.045 276.46 121.545 281.46 127.045C286.46 132.545 293.46 136.045 294.46 142.295C295.46 148.545 297.46 152.295 294.71 157.795C291.96 163.295 289.96 164.545 289.96 164.545C289.96 164.545 301.71 170.545 309.21 170.045C316.71 169.545 327.46 161.045 327.46 161.045C327.46 161.045 344.96 160.795 352.71 154.045C360.46 147.295 360.21 135.795 356.96 127.795C353.71 119.795 342.46 110.325 337 104.325C331.54 98.3249 320.75 94.3249 309.5 95.5749C298.25 96.8249 288.71 110.045 288.71 110.045Z" fill="#263238" stroke="#263238" stroke-linecap="round" stroke-linejoin="round"/>
<path d="M317 163.545C317 163.545 319.25 169.295 320.75 174.545C322.25 179.795 326.25 193.045 326.25 192.295C326.25 191.545 334.25 171.545 336.25 165.795C337.443 162.405 338.199 158.876 338.5 155.295L331.75 139.545C329.633 144.281 326.57 148.535 322.75 152.045C316.75 157.295 315.25 159.795 315.25 159.795L317 163.545Z" fill="white" stroke="#263238" stroke-linecap="round" stroke-linejoin="round"/>
<path d="M318.12 165.805C318.12 165.805 328.45 162.895 332.97 159.025C337.49 155.155 337.81 154.175 337.81 154.175L332.32 143.845L318.12 165.805Z" fill="#263238" stroke="#263238" stroke-linecap="round" stroke-linejoin="round"/>
<path d="M290.21 130.045C290.21 130.045 294.71 141.295 295.46 144.545C296.21 147.795 298.96 154.045 303.21 157.795C307.46 161.545 310.21 166.545 316.96 165.545C323.71 164.545 331.96 152.545 333.46 148.795C334.96 145.045 331.46 134.795 331.46 133.545C331.44 133.164 331.312 132.798 331.09 132.487C330.869 132.177 330.563 131.937 330.21 131.795C330.21 131.795 318.21 136.545 309.96 133.045C304.449 130.579 299.246 127.475 294.46 123.795L290.21 130.045Z" fill="white" stroke="#263238" stroke-linecap="round" stroke-linejoin="round"/>
<path d="M324.46 136.045C324.46 136.045 327.71 127.545 332.46 128.545C337.21 129.545 336.71 137.795 334.21 140.795C331.71 143.795 329.71 142.295 329.71 142.295" fill="white"/>
<path d="M324.46 136.045C324.46 136.045 327.71 127.545 332.46 128.545C337.21 129.545 336.71 137.795 334.21 140.795C331.71 143.795 329.71 142.295 329.71 142.295" stroke="#263238" stroke-linecap="round" stroke-linejoin="round"/>
<path d="M304 138.325C304.32 139.888 304.487 141.479 304.5 143.075C304.5 145.575 303.25 149.575 305.5 150.575C307.75 151.575 311 150.575 311.75 149.325" stroke="#263238" stroke-linecap="round" stroke-linejoin="round"/>
<path d="M308.21 154.325C308.21 154.325 314.96 155.825 318.71 148.075" stroke="#263238" stroke-linecap="round" stroke-linejoin="round"/>
<path d="M311.21 140.045C312.459 140.517 313.832 140.552 315.103 140.144C316.375 139.735 317.47 138.907 318.21 137.795" stroke="#263238" stroke-linecap="round" stroke-linejoin="round"/>
<path d="M297.71 141.795C297.71 141.795 300.96 143.295 302.96 141.045" stroke="#263238" stroke-linecap="round" stroke-linejoin="round"/>
<path d="M302.71 137.045C302.71 137.045 299.46 134.795 296.71 137.545" stroke="#263238" stroke-linecap="round" stroke-linejoin="round"/>
<path d="M307.21 134.545C307.21 134.545 308.71 132.045 313.46 132.545" stroke="#263238" stroke-linecap="round" stroke-linejoin="round"/>
<path d="M259.74 199.905C259.74 199.905 268.74 201.905 271.74 213.575C274.74 225.245 289.38 272.325 289.38 272.325C289.38 272.325 304.87 281.175 309.54 281.845C314.21 282.515 318.2 282.845 318.54 287.845C318.88 292.845 317.54 300.845 314.87 302.175C312.2 303.505 302.2 303.515 294.87 303.175C287.54 302.835 282.87 301.175 278.87 298.515C274.87 295.855 270.54 269.515 265.87 256.845C261.2 244.175 251.74 217.935 252.74 211.275C253.74 204.615 256.41 199.905 259.74 199.905Z" fill="#3DBB47" stroke="#263238" stroke-linecap="round" stroke-linejoin="round"/>
<path d="M295 309.325L288.57 308.845C285.985 308.649 283.388 308.993 280.944 309.856C278.5 310.719 276.262 312.081 274.373 313.856C272.484 315.631 270.985 317.78 269.973 320.166C268.96 322.552 268.455 325.123 268.49 327.715L269.69 457.585C269.698 458.577 270.098 459.526 270.802 460.224C271.506 460.923 272.458 461.315 273.45 461.315H332.27L347.37 308.825L295 309.325Z" fill="#333333" stroke="#263238" stroke-linecap="round" stroke-linejoin="round"/>
<path d="M332.25 461.325C331.258 461.325 330.306 460.933 329.602 460.234C328.897 459.536 328.498 458.587 328.49 457.595L327.29 327.725C327.255 325.133 327.76 322.562 328.772 320.176C329.785 317.79 331.284 315.641 333.173 313.866C335.062 312.091 337.299 310.729 339.744 309.866C342.188 309.003 344.785 308.659 347.37 308.855L353.8 309.335C356.335 309.526 358.805 310.233 361.058 311.413C363.311 312.592 365.3 314.218 366.902 316.192C368.505 318.167 369.688 320.447 370.379 322.894C371.069 325.342 371.254 327.904 370.92 330.425L354 458.025C353.883 458.929 353.441 459.76 352.756 460.361C352.072 460.963 351.191 461.295 350.28 461.295L332.25 461.325Z" fill="#666666" stroke="#263238" stroke-linecap="round" stroke-linejoin="round"/>
<path d="M196.12 338.325H309.12C312.303 338.325 315.355 339.589 317.605 341.84C319.856 344.09 321.12 347.142 321.12 350.325V461.325H196.12V338.325Z" fill="#666666" stroke="#263238" stroke-linecap="round" stroke-linejoin="round"/>
<path d="M321.62 380.795H203.62" stroke="#263238" stroke-linecap="round" stroke-linejoin="round"/>
<path d="M273.29 290.455L278.62 296.125C290.08 296.671 301.366 299.149 312 303.455C328.66 310.455 350 318.795 351.33 328.455C352.66 338.115 335 392.455 332 405.795C329 419.135 328.66 423.795 328.66 423.795C328.66 423.795 331.66 426.455 331 428.795C330.34 431.135 326.66 442.455 326.66 442.455C321.4 443.671 316.048 444.454 310.66 444.795C305.186 444.891 299.715 444.442 294.33 443.455C294.33 443.455 293.33 432.125 294.33 429.455C295.33 426.785 299 423.795 299.33 421.795C299.66 419.795 301 388.125 301 375.795C301 363.465 308 343.795 308 343.795C308 343.795 275 342.455 265.33 341.455C255.66 340.455 232.33 318.125 231.66 307.125C230.99 296.125 257.29 284.125 273.29 290.455Z" fill="#263238" stroke="#263238" stroke-linecap="round" stroke-linejoin="round"/>
<path d="M327 438.455C327 438.455 324 432.795 320.33 435.455C316.66 438.115 316 441.795 314 441.795C312 441.795 294.33 438.455 294.33 438.455C294.33 438.455 289.66 456.795 291.33 458.795C293 460.795 308.33 462.455 315 463.455C321.67 464.455 336.33 468.125 346 468.125C355.67 468.125 354 461.125 351.66 458.795C349.32 456.465 332.66 447.455 330.33 444.455C328.922 442.636 327.799 440.613 327 438.455Z" fill="white" stroke="#263238" stroke-linecap="round" stroke-linejoin="round"/>
<path d="M353.38 463.855C349.405 464.695 345.353 465.121 341.29 465.125C332.62 465.125 325.62 461.795 314.62 459.795C305.97 458.215 295.25 455.615 291.08 454.575C290.85 456.665 290.86 458.275 291.29 458.795C292.96 460.795 308.29 462.455 314.96 463.455C321.63 464.455 336.29 468.125 345.96 468.125C351.16 468.125 353.08 466.095 353.38 463.855Z" fill="white" stroke="#263238" stroke-linecap="round" stroke-linejoin="round"/>
<path d="M204.62 197.125C204.62 197.125 184.62 204.795 177.29 209.795C169.96 214.795 174.62 233.795 174.62 244.455C174.62 255.115 172.62 283.795 172.29 289.455C171.96 295.115 179.29 302.795 184.29 305.795C189.29 308.795 231.96 310.455 243.29 310.455C254.62 310.455 278.96 303.125 276.96 281.455C274.96 259.785 267.96 243.125 266.96 239.455C265.96 235.785 265.62 223.795 265.96 220.455C266.3 217.115 268.96 207.125 263.96 202.455C258.96 197.785 237.96 192.455 228.29 192.795C218.62 193.135 204.62 197.125 204.62 197.125Z" fill="#3DBB47" stroke="#263238" stroke-linecap="round" stroke-linejoin="round"/>
<path d="M207.24 219.095C207.727 220.46 208.432 221.737 209.33 222.875C212.139 226.376 215.144 229.714 218.33 232.875C225.6 240.155 237.04 245.005 237.04 245.005C237.04 245.005 240.85 224.915 241.54 215.905C242.23 206.895 237.38 199.625 229.41 196.905C221.44 194.185 206.9 197.245 204.82 202.795C203.3 206.925 205.88 215.265 207.24 219.095Z" fill="white" stroke="#263238" stroke-linecap="round" stroke-linejoin="round"/>
<path d="M208.33 190.955C207.634 190.987 206.953 191.164 206.33 191.475C204.831 192.234 203.674 193.53 203.09 195.105C201.35 199.265 199.97 203.775 199.97 203.775C200.968 208.953 202.359 214.048 204.13 219.015C205.871 223.733 207.167 228.605 208 233.565C208 233.565 220.47 224.205 222.89 222.135C225.172 220.41 227.609 218.9 230.17 217.625C230.17 217.625 238.48 221.785 242.29 224.205C246.1 226.625 249.22 228.715 249.22 228.715C248.786 221.856 247.385 215.092 245.06 208.625C241.25 198.225 239.52 195.105 237.44 193.035C235.36 190.965 219.42 185.065 208.33 190.955Z" fill="white" stroke="#263238" stroke-linecap="round" stroke-linejoin="round"/>
<path d="M237.001 141.325C237.001 141.325 239.461 138.175 240.881 140.665C241.667 142.074 242.621 143.384 243.721 144.565C243.721 144.565 246.551 145.985 246.911 148.465C247.155 149.989 247.272 151.531 247.261 153.075C247.261 154.135 250.451 154.845 250.451 156.625C250.451 158.405 248.681 159.105 248.331 160.875C247.981 162.645 249.501 164.215 247.971 166.545C246.441 168.875 248.111 168.025 246.441 168.885C244.771 169.745 243.011 170.805 243.011 170.805L234.851 143.805L237.001 141.325Z" fill="#C7C7C7" stroke="#7D7D7D" stroke-linecap="round" stroke-linejoin="round"/>
<path d="M210.2 129.105C210.2 129.105 200.76 131.865 196.82 139.735C192.88 147.605 192.49 153.515 194.46 160.205C196.43 166.895 203.9 185.785 206.27 191.295C208.64 196.805 209.42 207.045 214.14 213.295C218.86 219.545 230.28 225.105 230.28 225.105C230.28 225.105 238.93 213.295 240.51 207.395C242.09 201.495 238.93 189.685 238.93 189.685C238.93 189.685 247.59 179.055 246.41 168.825C245.23 158.595 238.93 145.245 237 141.325C235.07 137.405 227.91 125.175 210.2 129.105Z" fill="white" stroke="#263238" stroke-linecap="round" stroke-linejoin="round"/>
<path d="M217 144.875C217 144.875 223.93 141.415 228.43 142.455" stroke="#263238" stroke-linecap="round" stroke-linejoin="round"/>
<path d="M214.22 143.495C214.22 143.495 220.46 140.375 224.96 140.375" stroke="#263238" stroke-linecap="round" stroke-linejoin="round"/>
<path d="M238.93 189.725C238.93 189.725 233.62 193.035 228.77 193.035C223.92 193.035 214.91 189.225 212.14 186.445C212.14 186.445 220.35 195.845 229.07 198.195C237.79 200.545 240.14 196.855 240.14 196.855L238.93 189.725Z" fill="#263238" stroke="#263238" stroke-linecap="round" stroke-linejoin="round"/>
<path d="M196.52 169.325C196.787 169.167 197.044 168.994 197.29 168.805C198.5 167.915 200.68 165.975 200.42 163.655C200.07 160.465 200.42 158.655 198.65 156.205C196.88 153.755 194.04 148.405 194.04 148.405C191.94 148.234 189.841 148.731 188.04 149.825C185.56 151.595 186.26 153.015 185.56 155.495C184.86 157.975 183.07 156.205 182.01 159.755C180.95 163.305 182.36 165.425 183.78 166.135C185.2 166.845 184.14 168.975 184.14 172.135C184.194 173.28 184.65 174.37 185.427 175.213C186.204 176.056 187.253 176.598 188.39 176.745C189.46 176.745 189.81 178.165 191.23 179.585C192.65 181.005 197.23 179.415 197.23 179.415C197.23 179.415 199.38 178.165 199.73 176.745C200.08 175.325 196.52 169.325 196.52 169.325Z" fill="#C7C7C7" stroke="#7D7D7D" stroke-linecap="round" stroke-linejoin="round"/>
<path d="M199.58 168.865C199.58 168.865 194.85 162.565 191.7 166.105C188.55 169.645 194.06 178.305 197.21 179.485C200.36 180.665 204.3 177.485 204.3 177.485" fill="white"/>
<path d="M199.58 168.865C199.58 168.865 194.85 162.565 191.7 166.105C188.55 169.645 194.06 178.305 197.21 179.485C200.36 180.665 204.3 177.485 204.3 177.485" stroke="#263238" stroke-linecap="round" stroke-linejoin="round"/>
<path d="M228.31 149.965C228.31 149.965 227.91 153.515 228.7 154.695C229.49 155.875 234.21 157.845 233.42 161.385C232.63 164.925 227.91 168.075 225.55 164.925" stroke="#263238" stroke-linecap="round" stroke-linejoin="round"/>
<path d="M222.4 171.225C224.693 171.845 227.119 171.764 229.365 170.992C231.61 170.221 233.574 168.793 235 166.895" stroke="#263238" stroke-linecap="round" stroke-linejoin="round"/>
<path d="M210.6 154.945C210.489 154.943 210.378 154.926 210.27 154.895C210.137 154.857 210.013 154.792 209.906 154.703C209.799 154.614 209.712 154.504 209.65 154.38C209.587 154.256 209.552 154.12 209.545 153.982C209.538 153.843 209.561 153.704 209.61 153.575C211.37 148.295 218.06 147.395 218.34 147.365C218.613 147.33 218.889 147.406 219.107 147.575C219.324 147.743 219.466 147.992 219.5 148.265C219.535 148.538 219.459 148.814 219.291 149.031C219.122 149.249 218.873 149.39 218.6 149.425C218.54 149.425 212.93 150.195 211.6 154.235C211.536 154.447 211.403 154.633 211.222 154.761C211.041 154.89 210.822 154.954 210.6 154.945Z" fill="#C7C7C7" stroke="#7D7D7D" stroke-linecap="round" stroke-linejoin="round"/>
<path d="M236.18 148.395C236.045 148.397 235.91 148.371 235.785 148.32C235.659 148.268 235.545 148.192 235.45 148.095C234.686 147.35 233.713 146.856 232.661 146.677C231.609 146.499 230.528 146.644 229.56 147.095C229.314 147.218 229.028 147.238 228.767 147.151C228.505 147.064 228.289 146.876 228.165 146.63C228.042 146.383 228.022 146.098 228.109 145.836C228.196 145.574 228.384 145.358 228.63 145.235C229.985 144.585 231.507 144.369 232.989 144.616C234.47 144.863 235.84 145.561 236.91 146.615C237.012 146.708 237.093 146.822 237.148 146.949C237.204 147.075 237.232 147.212 237.232 147.35C237.232 147.488 237.204 147.625 237.148 147.751C237.093 147.878 237.012 147.991 236.91 148.085C236.816 148.184 236.703 148.262 236.577 148.315C236.452 148.369 236.317 148.396 236.18 148.395Z" fill="#C7C7C7" stroke="#7D7D7D" stroke-linecap="round" stroke-linejoin="round"/>
<path d="M221.62 159.415C221.387 160.867 220.844 162.252 220.027 163.475C219.211 164.699 218.141 165.732 216.89 166.505" stroke="#263238" stroke-linecap="round" stroke-linejoin="round"/>
<path d="M233.82 157.445C235.923 158.922 238.352 159.869 240.9 160.205" stroke="#263238" stroke-linecap="round" stroke-linejoin="round"/>
<path d="M219 158.135C219.35 159.385 219.06 160.555 218.35 160.755C217.64 160.955 216.8 160.095 216.45 158.845C216.1 157.595 216.39 156.415 217.1 156.225C217.81 156.035 218.66 156.885 219 158.135Z" fill="#263238"/>
<path d="M234.69 153.685C235.03 154.935 234.74 156.105 234.04 156.305C233.34 156.505 232.48 155.645 232.14 154.385C231.8 153.125 232.08 151.965 232.78 151.765C233.48 151.565 234.34 152.425 234.69 153.685Z" fill="#263238"/>
<path d="M219.17 155.175L214.13 158.535" stroke="#263238" stroke-linecap="round" stroke-linejoin="round"/>
<path d="M231.16 152.305L236.68 152.065" stroke="#263238" stroke-linecap="round" stroke-linejoin="round"/>
<path d="M337.641 293.745C337.641 293.745 345.04 297.065 346.4 298.025C347.76 298.985 351.5 304.825 351.81 306.645C352.12 308.465 351.75 309.215 350.61 308.555C349.47 307.895 346.24 304.025 343.74 301.385C341.24 298.745 338.05 297.085 337.27 295.515C336.49 293.945 336.401 293.445 337.641 293.745Z" fill="white" stroke="#263238" stroke-linecap="round" stroke-linejoin="round"/>
<path d="M315.471 285.825C315.471 285.825 327.661 289.825 331.941 291.095C335.143 292.087 338.089 293.77 340.571 296.025C341.791 297.175 348.521 304.805 349.251 307.025C349.981 309.245 350.991 315.185 349.741 315.735C348.491 316.285 347.211 314.825 346.651 313.565C346.011 312.382 345.254 311.266 344.391 310.235C344.391 310.235 345.901 315.045 345.641 317.465C345.381 319.885 344.641 321.355 342.641 321.695C340.641 322.035 338.401 318.695 336.851 315.595C335.908 313.718 334.695 311.99 333.251 310.465L328.471 308.245C329.292 310.651 330.372 312.961 331.691 315.135C333.521 317.865 335.691 318.505 334.901 319.995C334.111 321.485 330.471 321.775 328.761 319.705C327.051 317.635 324.301 315.395 322.761 312.615C321.221 309.835 317.651 302.325 317.651 302.325L307.891 300.625C307.891 300.625 302.181 298.905 301.811 292.885C301.441 286.865 312.831 284.255 315.471 285.825Z" fill="white" stroke="#263238" stroke-linecap="round" stroke-linejoin="round"/>
<path d="M335.42 305.375C335.42 305.375 339.79 311.045 341.23 313.505C342.67 315.965 342.65 321.715 342.65 321.715" stroke="#263238" stroke-linecap="round" stroke-linejoin="round"/>
<path d="M344.39 310.255L340.5 301.455" stroke="#263238" stroke-linecap="round" stroke-linejoin="round"/>
<path d="M217 306.455C217 306.455 239.33 303.795 250.66 307.795C261.99 311.795 273 325.795 273 337.455C273 349.115 270.66 413.125 271.33 414.795C272 416.465 275.66 416.795 275.66 420.125C275.66 423.455 273 440.795 273 440.795C273 440.795 257.33 446.455 252 446.455H246.66C246.66 446.455 239 426.125 239.33 422.795C239.66 419.465 241.66 416.795 241.66 415.125C241.66 413.455 232 378.455 232 368.125V345.125L213.33 341.125C213.33 341.125 205 317.455 217 306.455Z" fill="#263238" stroke="#263238" stroke-linecap="round" stroke-linejoin="round"/>
<path d="M286.62 455.795C286.62 455.795 276.62 444.125 272.62 437.795C268.62 431.465 261.29 427.795 256.96 431.125C252.63 434.455 252.62 442.795 252.62 442.795L245.29 441.455C245.29 441.455 247.96 450.455 249.29 455.455C250.62 460.455 252.62 463.795 261.29 465.125C269.96 466.455 284.29 467.455 288.29 463.455C292.29 459.455 286.62 455.795 286.62 455.795Z" fill="white" stroke="#263238" stroke-linecap="round" stroke-linejoin="round"/>
<path d="M288.29 463.455C288.933 462.932 289.389 462.214 289.589 461.41C289.789 460.606 289.723 459.758 289.4 458.995C287.537 460.053 285.606 460.988 283.62 461.795C276.29 464.795 266.29 464.125 257.96 461.455C254.881 460.571 252.049 458.983 249.69 456.815C251.06 461.065 253.44 463.915 261.29 465.125C270 466.455 284.29 467.455 288.29 463.455Z" fill="white" stroke="#263238" stroke-linecap="round" stroke-linejoin="round"/>
<path d="M299.72 287.765C299.72 287.765 299.06 295.675 298.84 298.085C298.62 300.495 299.94 303.365 300.84 303.795C301.74 304.225 302.16 303.365 302.16 301.385V298.085C302.13 297.425 299.72 287.765 299.72 287.765Z" fill="white" stroke="#263238" stroke-linecap="round" stroke-linejoin="round"/>
<path d="M312.86 271.535C312.86 268.095 317.44 260.845 317.44 260.845L319.21 236.545L318.01 231.835L312.67 231.455C310.56 238.535 303.15 263.455 302.17 267.335C301.031 272.608 300.266 277.954 299.88 283.335C299.88 285.235 299.88 294.015 300.65 297.455C301.42 300.895 306.75 304.315 306.75 304.315C306.75 304.315 313.95 304.315 315.09 303.555C316.23 302.795 313.34 300.255 313.34 300.255C312.91 300.255 311.64 290.835 314.34 287.915C316.52 285.585 322.74 288.295 322.74 288.295C322.74 288.295 321.21 284.095 319.3 280.295C317.39 276.495 312.86 274.965 312.86 271.535Z" fill="white" stroke="#263238" stroke-linecap="round" stroke-linejoin="round"/>
<path d="M314 304.235C314 304.235 308.29 301.165 307.63 299.845C306.97 298.525 306.76 288.425 306.76 288.425" stroke="#263238" stroke-linecap="round" stroke-linejoin="round"/>
<path d="M308.061 304.235C308.061 304.235 303.451 299.405 303.451 297.645C303.451 295.885 302.351 288.425 302.351 288.425" stroke="#263238" stroke-linecap="round" stroke-linejoin="round"/>
<path d="M198.84 309.325L160.73 308.875C159.749 308.795 158.762 308.795 157.78 308.875L151.34 309.355C148.805 309.546 146.336 310.253 144.083 311.433C141.831 312.612 139.843 314.238 138.241 316.213C136.639 318.187 135.457 320.468 134.768 322.915C134.078 325.362 133.895 327.925 134.23 330.445L151.23 458.075C151.349 458.98 151.793 459.81 152.48 460.412C153.166 461.014 154.048 461.345 154.96 461.345H202.46L198.84 309.325Z" fill="#333333" stroke="#263238" stroke-linecap="round" stroke-linejoin="round"/>
<path d="M220.4 461.325C221.392 461.322 222.342 460.929 223.046 460.231C223.75 459.533 224.15 458.586 224.16 457.595L225.36 327.725C225.394 325.133 224.888 322.563 223.875 320.178C222.861 317.793 221.363 315.645 219.474 313.87C217.586 312.095 215.349 310.733 212.905 309.869C210.461 309.006 207.865 308.66 205.28 308.855L198.84 309.335C196.305 309.526 193.836 310.233 191.583 311.413C189.331 312.592 187.343 314.219 185.741 316.193C184.139 318.167 182.957 320.448 182.268 322.895C181.578 325.342 181.395 327.905 181.73 330.425L198.73 458.055C198.849 458.96 199.293 459.791 199.98 460.392C200.666 460.994 201.548 461.325 202.46 461.325H220.4Z" fill="#666666" stroke="#263238" stroke-linecap="round" stroke-linejoin="round"/>
<path d="M186.62 206.125C186.62 206.125 172.62 206.455 167.29 214.455C161.96 222.455 157.62 249.795 156.62 256.795C155.62 263.795 151.29 288.455 152.96 293.125C154.63 297.795 158.96 298.455 166.96 298.795C174.96 299.135 178.62 294.795 180.29 289.795C181.96 284.795 186.29 238.125 186.29 238.125" fill="#3DBB47"/>
<path d="M186.62 206.125C186.62 206.125 172.62 206.455 167.29 214.455C161.96 222.455 157.62 249.795 156.62 256.795C155.62 263.795 151.29 288.455 152.96 293.125C154.63 297.795 158.96 298.455 166.96 298.795C174.96 299.135 178.62 294.795 180.29 289.795C181.96 284.795 186.29 238.125 186.29 238.125" stroke="#263238" stroke-linecap="round" stroke-linejoin="round"/>
<path d="M167.62 276.455C169.62 277.125 187.62 281.455 188.96 285.125C189.384 286.061 189.515 287.103 189.337 288.114C189.158 289.126 188.678 290.06 187.96 290.795C187.96 290.795 181.96 305.125 176.62 306.455C171.28 307.785 159.29 304.125 153.29 301.455C147.29 298.785 153.29 278.455 153.96 277.455" fill="#3DBB47"/>
<path d="M167.62 276.455C169.62 277.125 187.62 281.455 188.96 285.125C189.384 286.061 189.515 287.103 189.337 288.114C189.158 289.126 188.678 290.06 187.96 290.795C187.96 290.795 181.96 305.125 176.62 306.455C171.28 307.785 159.29 304.125 153.29 301.455C147.29 298.785 153.29 278.455 153.96 277.455" stroke="#263238" stroke-linecap="round" stroke-linejoin="round"/>
<path d="M192 294.795C192 294.795 193.33 292.795 191.66 291.795C189.99 290.795 187.33 287.795 184.33 287.795C181.33 287.795 176 290.455 174.66 296.125C173.32 301.795 174.33 305.795 176.66 306.455C178.99 307.115 184 308.455 186.33 308.455C188.66 308.455 190.33 303.455 190.66 302.455C190.99 301.455 192 294.795 192 294.795Z" fill="#3DBB47" stroke="#263238" stroke-linecap="round" stroke-linejoin="round"/>
<path d="M213.62 296.795C213.62 296.795 219.29 303.795 221.96 305.125C224.63 306.455 226.96 308.125 224.96 310.125C222.96 312.125 218.29 311.125 216.29 308.455C214.29 305.785 213.62 296.795 213.62 296.795Z" fill="white" stroke="#263238" stroke-linecap="round" stroke-linejoin="round"/>
<path d="M194.29 294.795C194.29 294.795 209.96 292.455 212.29 292.455C214.62 292.455 218.29 309.125 218.62 311.795C218.95 314.465 220.29 316.125 218.62 317.455C217.894 318.166 216.964 318.634 215.96 318.795C215.043 319.578 214.036 320.249 212.96 320.795C211.96 321.125 208.29 320.455 208.29 320.455C208.29 320.455 207.96 321.795 205.29 321.455C202.62 321.115 193.62 309.795 193.62 309.795C193.62 309.795 186.96 308.125 184.29 305.795C181.62 303.465 182.62 299.455 184.29 296.795C185.96 294.135 189.62 293.455 189.62 293.455L194.29 294.795Z" fill="white" stroke="#263238" stroke-linecap="round" stroke-linejoin="round"/>
<path d="M208.96 300.125L217.29 318.125" stroke="#263238" stroke-linecap="round" stroke-linejoin="round"/>
<path d="M202.62 303.125L212.96 320.795" stroke="#263238" stroke-linecap="round" stroke-linejoin="round"/>
<path d="M208.29 320.455L198.62 306.455" stroke="#263238" stroke-linecap="round" stroke-linejoin="round"/>
</svg>
