<svg width="33" height="32" viewBox="0 0 33 32" fill="none" xmlns="http://www.w3.org/2000/svg">
<mask id="mask0_1132_152" style="mask-type:alpha" maskUnits="userSpaceOnUse" x="0" y="0" width="33" height="32">
<rect x="0.333008" width="32" height="32" fill="#D9D9D9"/>
</mask>
<g mask="url(#mask0_1132_152)">
<path d="M16.3328 21.5406C17.3995 21.5406 18.3495 21.224 19.1828 20.5906C20.0162 19.9573 20.6217 19.1406 20.9995 18.1406H11.6662C12.044 19.1406 12.6495 19.9573 13.4828 20.5906C14.3162 21.224 15.2662 21.5406 16.3328 21.5406ZM12.9995 16.2073C13.5551 16.2073 14.0273 16.0129 14.4162 15.624C14.8051 15.2351 14.9995 14.7629 14.9995 14.2073C14.9995 13.6517 14.8051 13.1795 14.4162 12.7906C14.0273 12.4017 13.5551 12.2073 12.9995 12.2073C12.444 12.2073 11.9717 12.4017 11.5828 12.7906C11.194 13.1795 10.9995 13.6517 10.9995 14.2073C10.9995 14.7629 11.194 15.2351 11.5828 15.624C11.9717 16.0129 12.444 16.2073 12.9995 16.2073ZM19.6662 16.2073C20.2217 16.2073 20.694 16.0129 21.0828 15.624C21.4717 15.2351 21.6662 14.7629 21.6662 14.2073C21.6662 13.6517 21.4717 13.1795 21.0828 12.7906C20.694 12.4017 20.2217 12.2073 19.6662 12.2073C19.1106 12.2073 18.6384 12.4017 18.2495 12.7906C17.8606 13.1795 17.6662 13.6517 17.6662 14.2073C17.6662 14.7629 17.8606 15.2351 18.2495 15.624C18.6384 16.0129 19.1106 16.2073 19.6662 16.2073ZM10.3512 8.33396L14.0815 3.50063C14.3693 3.12396 14.7093 2.84563 15.1015 2.66563C15.4935 2.48563 15.9034 2.39563 16.3312 2.39563C16.759 2.39563 17.1694 2.48563 17.5625 2.66563C17.9559 2.84563 18.2964 3.12396 18.5842 3.50063L22.3145 8.33396L27.9762 10.234C28.5966 10.4277 29.0827 10.7807 29.4345 11.293C29.7865 11.8054 29.9625 12.3664 29.9625 12.976C29.9625 13.2617 29.9212 13.5474 29.8385 13.833C29.7558 14.1187 29.6199 14.3925 29.4305 14.6543L25.7799 19.8466L25.9132 25.305C25.9354 26.1343 25.6573 26.8333 25.0788 27.402C24.5004 27.9706 23.8211 28.255 23.0408 28.255C23.0017 28.255 22.7546 28.2243 22.2995 28.163L16.3328 26.5043L10.3662 28.163C10.2497 28.2074 10.1248 28.2352 9.99152 28.2463C9.85818 28.2574 9.73329 28.263 9.61685 28.263C8.84418 28.263 8.16807 27.9777 7.58852 27.4073C7.00896 26.8366 6.73296 26.1359 6.76052 25.305L6.89385 19.821L3.26052 14.6543C3.0714 14.3927 2.9354 14.1194 2.85252 13.8343C2.76985 13.549 2.72852 13.2636 2.72852 12.9783C2.72852 12.3841 2.90029 11.8307 3.24385 11.3183C3.58718 10.8061 4.06907 10.4446 4.68952 10.234L10.3512 8.33396ZM12.2045 10.937L5.85752 13.0463L9.94285 18.9013L9.80185 25.1486L16.3328 23.355L22.8718 25.174L22.7305 18.9013L26.8082 13.113L20.4532 10.937L16.3408 5.53263L12.2045 10.937Z" fill="#C3EAC6"/>
</g>
</svg>
