<svg width="63" height="37" viewBox="0 0 63 37" fill="none" xmlns="http://www.w3.org/2000/svg">
<path d="M11.5063 10.4615L13.9079 12.1304C12.6867 14.0028 10.5498 15.2035 8.00579 15.2035C4.01679 15.2035 0.963994 11.9676 0.963994 8.01926C0.963994 4.05062 4.01679 0.814656 8.00579 0.814656C10.5294 0.814656 12.6257 1.99507 13.8468 3.78605L11.4249 5.45491C10.6719 4.33555 9.47113 3.62323 8.00579 3.62323C5.66531 3.62323 3.95574 5.57702 3.95574 8.01926C3.95574 10.4412 5.66531 12.3949 8.00579 12.3949C9.47113 12.3949 10.7533 11.6012 11.5063 10.4615ZM23.1012 9.09792H26.0116L24.5259 4.21344L23.1012 9.09792ZM26.9681 11.6826H22.1243L20.8829 15H17.7079L22.9181 0.977472H26.154L31.3438 15H28.2096L26.9681 11.6826ZM41.961 3.60288H39.3559V7.55117H41.8796C43.0397 7.55117 43.6502 6.47251 43.6502 5.57702C43.6502 4.70189 43.1007 3.60288 41.961 3.60288ZM43.2635 10.0341L46.7437 15H43.1618L40.0276 10.1562H39.3559V15H36.3642V0.977472H42.1035C45.2784 0.977472 46.7641 3.27725 46.7641 5.57702C46.7641 7.55117 45.6651 9.54566 43.2635 10.0341ZM52.7927 15V0.977472H61.6662V3.60288H55.7641V6.79814H60.9335V9.38285H55.7641V12.3746H61.8493V15H52.7927Z" fill="#3DBB47"/>
<path d="M10.652 28.9942L14.0201 21.7348H16.0311L17.4045 33H15.0011L14.2163 26.2474L11.5839 31.7083H9.73635L7.08765 26.2474L6.2865 33H3.88305L5.2728 21.7348H7.25115L10.652 28.9942ZM22.9033 33V21.7348H30.0319V23.844H25.2904V26.4109H29.4433V28.4874H25.2904V30.8908H30.1791V33H22.9033ZM35.7937 33V21.7348H38.1972V30.8908H42.4155V33H35.7937Z" fill="#3DBB47"/>
<rect x="51" y="23" width="8" height="8" fill="white"/>
<path d="M53.6667 28V28.3333C53.6667 28.7 53.7944 29.0167 54.05 29.2833C54.3167 29.5389 54.6333 29.6667 55 29.6667C55.3667 29.6667 55.6778 29.5389 55.9333 29.2833C56.2 29.0167 56.3333 28.7 56.3333 28.3333V28H56.6667C57.0333 28 57.3444 27.8722 57.6 27.6167C57.8667 27.35 58 27.0333 58 26.6667C58 26.3 57.8667 25.9889 57.6 25.7333C57.3444 25.4667 57.0333 25.3333 56.6667 25.3333H56.3333V25C56.3333 24.6333 56.2 24.3222 55.9333 24.0667C55.6778 23.8 55.3667 23.6667 55 23.6667C54.6333 23.6667 54.3167 23.8 54.05 24.0667C53.7944 24.3222 53.6667 24.6333 53.6667 25V25.3333H53.3333C52.9667 25.3333 52.65 25.4667 52.3833 25.7333C52.1278 25.9889 52 26.3 52 26.6667C52 27.0333 52.1278 27.35 52.3833 27.6167C52.65 27.8722 52.9667 28 53.3333 28H53.6667ZM51.1333 32.5333C50.5667 32.5333 50.0889 32.3444 49.7 31.9667C49.3222 31.5778 49.1333 31.1 49.1333 30.5333V24.7333C49.1333 24.4222 49.2 24.1278 49.3333 23.85C49.4667 23.5611 49.6611 23.3167 49.9167 23.1167L53.7833 20.2167C54.15 19.95 54.5556 19.8167 55 19.8167C55.4444 19.8167 55.85 19.95 56.2167 20.2167L60.0833 23.1167C60.3389 23.3167 60.5333 23.5611 60.6667 23.85C60.8111 24.1278 60.8833 24.4222 60.8833 24.7333V30.5333C60.8833 31.1 60.6889 31.5778 60.3 31.9667C59.9111 32.3444 59.4333 32.5333 58.8667 32.5333H51.1333Z" fill="#10381A"/>
</svg>
