<svg width="375" height="251" viewBox="0 0 375 251" fill="none" xmlns="http://www.w3.org/2000/svg">
<path d="M360.139 63.465C360.139 63.465 355.959 60.915 351.339 70.855C346.719 80.795 345.034 86.5 345.034 86.5C345.034 86.5 343.789 88.59 342.339 87.305C340.889 86.02 338.839 82.305 336.459 83.065C334.009 83.86 333.294 86.655 333.914 90.7C334.534 94.745 335.559 103.655 335.654 104.46C335.749 105.265 335.329 106.46 334.199 105.72C333.069 104.98 326.469 98.165 323.409 101.49C320.349 104.815 323.909 115.8 324.299 116.99C324.689 118.18 324.444 118.725 323.874 119.05C323.304 119.375 321.304 116.865 319.374 114.995C317.444 113.125 314.819 111.305 313.219 113.37C311.619 115.435 311.379 123.785 319.794 137.025L324.094 142.905L331.379 142.235C346.879 139.855 353.009 134.185 353.509 131.62C354.009 129.055 350.929 128.295 348.239 128.055C345.549 127.815 342.339 127.95 342.209 127.31C342.079 126.67 342.329 126.155 343.484 125.64C344.639 125.125 355.254 120.585 355.749 116.09C356.244 111.595 346.749 111.135 345.464 110.755C344.179 110.375 344.799 109.285 345.464 108.83C346.129 108.375 353.519 103.28 356.964 101.085C360.409 98.89 361.999 96.525 360.999 94.155C359.999 91.87 355.864 92.77 353.939 92.52C352.014 92.27 352.774 89.96 352.774 89.96C352.774 89.96 355.959 84.96 360.399 74.925C364.839 64.89 360.044 63.425 360.044 63.425" fill="#F5F5F5"/>
<path d="M356 72.36C356 72.36 355.975 72.435 355.915 72.575C355.855 72.715 355.765 72.935 355.655 73.2L354.625 75.575C353.725 77.64 352.405 80.62 350.76 84.295C347.47 91.645 342.84 101.755 337.69 112.905C332.54 124.055 327.87 134.165 324.54 141.5L320.605 150.185L319.535 152.545C319.41 152.805 319.315 153.01 319.25 153.155C319.218 153.225 319.183 153.294 319.145 153.36C319.167 153.287 319.193 153.215 319.225 153.145C319.29 152.995 319.375 152.79 319.485 152.525C319.725 151.97 320.075 151.17 320.515 150.145C321.415 148.08 322.735 145.105 324.38 141.43C327.67 134.08 332.3 123.97 337.45 112.815C342.6 101.66 347.255 91.56 350.585 84.23C352.245 80.575 353.585 77.61 354.52 75.55L355.595 73.19C355.715 72.925 355.81 72.725 355.88 72.575C355.95 72.425 356 72.36 356 72.36Z" fill="#E0E0E0"/>
<path d="M339.135 88.385C339.225 88.542 339.294 88.7101 339.34 88.885C339.46 89.2 339.615 89.665 339.805 90.24C340.175 91.395 340.65 92.995 341.14 94.775L342.375 99.335C342.525 99.88 342.65 100.335 342.755 100.715C342.815 100.876 342.854 101.044 342.87 101.215C342.78 101.058 342.711 100.89 342.665 100.715C342.545 100.4 342.39 99.935 342.205 99.355C341.845 98.2 341.39 96.59 340.9 94.81L339.635 90.26L339.25 88.885C339.193 88.7233 339.154 88.5555 339.135 88.385Z" fill="#E0E0E0"/>
<path d="M343.545 101.32C343.545 101.255 346.785 100.13 350.83 98.82C354.875 97.51 358.175 96.475 358.195 96.54C358.215 96.605 354.955 97.73 350.91 99.04C346.865 100.35 343.565 101.385 343.545 101.32Z" fill="#E0E0E0"/>
<path d="M334.859 118.09C335.037 118.057 335.218 118.042 335.399 118.045L336.859 117.995C338.089 117.95 339.794 117.885 341.669 117.74C343.544 117.595 345.239 117.425 346.469 117.285L347.919 117.12C348.097 117.087 348.279 117.077 348.459 117.09C348.297 117.149 348.13 117.191 347.959 117.215C347.619 117.28 347.124 117.365 346.514 117.455C345.294 117.64 343.594 117.85 341.714 117.99C339.834 118.13 338.124 118.17 336.884 118.165C336.269 118.165 335.769 118.165 335.424 118.14C335.235 118.149 335.045 118.132 334.859 118.09Z" fill="#E0E0E0"/>
<path d="M328.299 107.27C328.415 107.389 328.515 107.522 328.599 107.665C328.779 107.925 329.039 108.31 329.349 108.79C329.974 109.745 330.819 111.075 331.739 112.55C332.659 114.025 333.484 115.37 334.069 116.35C334.364 116.85 334.594 117.24 334.749 117.52C334.843 117.658 334.919 117.807 334.974 117.965C334.854 117.849 334.751 117.716 334.669 117.57C334.489 117.305 334.234 116.925 333.919 116.445C333.299 115.49 332.454 114.16 331.529 112.68C330.604 111.2 329.784 109.86 329.199 108.88C328.909 108.38 328.699 107.99 328.519 107.715C328.428 107.576 328.354 107.427 328.299 107.27Z" fill="#E0E0E0"/>
<path d="M318.75 121.1C318.896 121.252 319.025 121.42 319.135 121.6L320.1 123.04C320.9 124.26 322 125.955 323.2 127.835C324.4 129.715 325.475 131.43 326.24 132.675L327.14 134.175C327.256 134.352 327.357 134.54 327.44 134.735C327.295 134.582 327.166 134.415 327.055 134.235L326.095 132.795C325.29 131.57 324.19 129.875 322.99 127.995C321.79 126.115 320.72 124.4 319.95 123.155C319.59 122.565 319.29 122.065 319.055 121.655C318.934 121.481 318.832 121.295 318.75 121.1Z" fill="#E0E0E0"/>
<path d="M327.324 134.345C327.546 134.295 327.772 134.268 327.999 134.265L329.849 134.135C331.409 134.025 333.569 133.865 335.944 133.635C338.319 133.405 340.444 133.135 342.019 132.92L343.854 132.675C344.079 132.635 344.306 132.615 344.534 132.615C344.318 132.689 344.096 132.741 343.869 132.77C343.439 132.855 342.814 132.965 342.044 133.09C340.494 133.345 338.349 133.645 335.969 133.885C333.589 134.125 331.424 134.26 329.859 134.325C329.074 134.355 328.444 134.375 328.004 134.375C327.777 134.384 327.55 134.374 327.324 134.345Z" fill="#E0E0E0"/>
<path d="M62.3941 112.715C74.0591 104.93 76.8941 90.215 76.6591 76.92C76.6141 74.7 76.8991 72.37 75.8591 70.42C74.8191 68.47 72.3591 67.09 70.3241 67.995C68.6491 68.745 67.8891 70.65 66.9341 72.22C65.6461 74.3177 63.7939 76.0105 61.5891 77.105C60.1491 77.815 58.3741 78.235 56.9741 77.445C55.0541 76.365 54.8641 73.72 54.9141 71.515L55.1841 59.195C55.2291 56.99 55.2741 54.74 54.6091 52.635C53.9441 50.53 52.4441 48.57 50.3291 47.95C48.2141 47.33 45.5691 48.5 45.0841 50.65C44.8841 51.545 45.0541 52.48 44.9791 53.395C44.9041 54.31 44.4791 55.315 43.5691 55.555C42.6591 55.795 41.7941 55.16 41.1341 54.51C38.8641 52.245 37.3441 49.36 35.9291 46.51C34.5141 43.66 33.1341 40.695 31.0841 38.24C29.0341 35.785 26.1641 33.815 22.9691 33.585C19.7741 33.355 16.3391 35.26 15.4691 38.345C14.5991 41.43 16.3991 44.62 18.3591 47.165C21.2776 50.9351 24.7248 54.2644 28.5941 57.05C29.2941 57.55 30.0441 58.095 30.3041 58.915C30.7641 60.415 29.3341 61.83 27.8541 62.295C26.1791 62.795 24.3541 62.62 22.6341 62.795C20.9141 62.97 18.9891 63.7 18.3041 65.295C17.3591 67.535 19.2291 69.925 21.0841 71.5C24.8004 74.6548 29.0277 77.1523 33.5841 78.885C35.2191 79.505 36.9391 80.05 38.2441 81.21C39.5491 82.37 40.3241 84.36 39.4991 85.9C38.6741 87.44 36.6091 87.9 34.8941 87.57C33.1791 87.24 31.6541 86.285 30.0241 85.65C26.9691 84.46 23.0241 84.61 20.9991 87.2C19.6791 88.9 19.5291 91.295 20.1491 93.355C20.7691 95.415 22.0691 97.2 23.4491 98.855C28.2791 104.625 34.5091 109.305 41.5891 111.855C48.6691 114.405 55.2541 115.155 62.3691 112.705" fill="#EBEBEB"/>
<path d="M61.4998 112.97C59.6248 106.245 54.4998 90.4201 51.4248 82.9701L49.1398 77.4701C48.3848 75.6651 47.6398 73.8801 46.7948 72.1751C45.1711 68.9114 43.3683 65.7399 41.3948 62.6751C39.5248 59.7251 37.6448 56.9951 35.8948 54.4501C34.1448 51.9051 32.3948 49.5801 30.7548 47.5151C28.1686 44.2429 25.3263 41.1816 22.2548 38.3601C21.1698 37.3601 20.3048 36.6101 19.7098 36.1101L18.9998 35.5001C18.8448 35.3751 18.7598 35.3151 18.7598 35.3151C18.7598 35.3151 18.8298 35.3901 18.9748 35.5251L19.6348 36.1151C20.2098 36.6151 21.0648 37.3951 22.1348 38.4101C25.1601 41.2649 27.968 44.3418 30.5348 47.6151C32.1648 49.6851 33.8548 52.0251 35.6298 54.5651C37.4048 57.1051 39.2648 59.8451 41.1298 62.7901C43.091 65.856 44.882 69.0274 46.4948 72.2901C47.3298 73.9901 48.0748 75.7901 48.8298 77.5751C49.5848 79.3601 50.3298 81.2201 51.1148 83.0751C54.1698 90.5151 59.3098 106.325 61.1998 113.03" fill="#E0E0E0"/>
<path d="M46.6895 72.1401C46.7929 71.8346 46.8666 71.5198 46.9095 71.2001C47.0295 70.5901 47.1795 69.7001 47.3495 68.6101C47.6945 66.4201 48.0695 63.3801 48.4745 60.0251C48.8795 56.6701 49.3045 53.6451 49.6945 51.4651C49.8845 50.3751 50.0495 49.4951 50.1945 48.8901C50.2726 48.5783 50.3245 48.2605 50.3495 47.9401C50.2271 48.2371 50.1333 48.5452 50.0695 48.8601C49.9045 49.4601 49.7045 50.3601 49.4845 51.4251C48.9995 53.5951 48.5495 56.6301 48.1445 60.0001C47.7395 63.3701 47.3895 66.3351 47.1195 68.5951C46.9845 69.6451 46.8695 70.5201 46.7795 71.1951C46.7228 71.507 46.6927 71.8231 46.6895 72.1401Z" fill="#E0E0E0"/>
<path d="M18.0586 66.4151C18.1541 66.4455 18.2534 66.4624 18.3536 66.4651L19.2036 66.5501C19.9436 66.6251 21.0086 66.7251 22.3186 66.8901C24.9436 67.2001 28.5586 67.7651 32.5186 68.5601C36.4786 69.3551 40.0186 70.2501 42.5686 70.9651C43.8436 71.3151 44.8686 71.6251 45.5686 71.8351L46.3886 72.0751C46.4815 72.1111 46.5792 72.133 46.6786 72.1401C46.5953 72.0852 46.5043 72.043 46.4086 72.0151C46.1886 71.9301 45.9086 71.8301 45.6086 71.7151C44.9136 71.4651 43.8936 71.1151 42.6086 70.7151C40.0736 69.9401 36.5236 69.0151 32.5586 68.2151C28.5936 67.4151 24.9986 66.9101 22.3436 66.6551C21.0286 66.5201 19.9536 66.4551 19.2136 66.4251H18.3586C18.2594 66.4093 18.1586 66.4059 18.0586 66.4151Z" fill="#E0E0E0"/>
<path d="M58.709 103.815C58.7852 103.707 58.8506 103.591 58.904 103.47L59.404 102.47C59.834 101.58 60.404 100.28 61.144 98.665C62.574 95.44 64.409 90.92 66.374 85.91C68.339 80.9 70.134 76.35 71.499 73.1L73.139 69.26C73.319 68.83 73.469 68.485 73.584 68.215C73.6407 68.0945 73.6859 67.9689 73.719 67.84C73.6382 67.9453 73.5725 68.0614 73.524 68.185L73.024 69.185C72.594 70.075 71.999 71.375 71.289 72.985C69.859 76.215 68.019 80.735 66.059 85.745C64.099 90.755 62.294 95.285 60.919 98.535L59.279 102.375L58.839 103.42C58.7797 103.546 58.736 103.678 58.709 103.815Z" fill="#E0E0E0"/>
<path d="M20.7441 91.11C20.8638 91.1725 20.9894 91.2228 21.1191 91.26L22.2241 91.635L26.2941 93C29.7291 94.15 34.4541 95.795 39.6691 97.625C44.8841 99.455 49.6291 101.065 53.0841 102.16C54.8091 102.705 56.2141 103.135 57.1841 103.415L58.3091 103.73C58.4389 103.774 58.573 103.804 58.7091 103.82C58.5877 103.756 58.4605 103.704 58.3291 103.665L57.2241 103.29L53.1541 101.935C49.7191 100.785 44.9941 99.14 39.7791 97.31C34.5641 95.48 29.8241 93.865 26.3691 92.775C24.6391 92.23 23.2391 91.8 22.2641 91.52L21.1441 91.2C21.0141 91.157 20.8801 91.1268 20.7441 91.11Z" fill="#E0E0E0"/>
<path d="M254.379 35.6851H317.414L305.084 44.4501V51.7701C305.056 55.3868 303.593 58.8444 301.016 61.3826C298.44 63.9208 294.961 65.3317 291.344 65.3051H251.789C248.172 65.3317 244.693 63.9208 242.116 61.3826C239.54 58.8444 238.077 55.3868 238.049 51.7701C238.065 49.6415 238.499 47.537 239.329 45.5766C240.158 43.6162 241.365 41.8383 242.882 40.3446C244.398 38.8509 246.194 37.6706 248.167 36.8711C250.139 36.0716 252.25 35.6686 254.379 35.6851Z" fill="#F5F5F5"/>
<path d="M294.449 45.47C294.449 45.54 283.949 45.6 270.949 45.6C257.949 45.6 247.449 45.54 247.449 45.47C247.449 45.4 257.949 45.34 270.949 45.34C283.949 45.34 294.449 45.395 294.449 45.47Z" fill="#E0E0E0"/>
<path d="M294.449 50.34C294.449 50.41 283.949 50.47 270.949 50.47C257.949 50.47 247.449 50.41 247.449 50.34C247.449 50.27 257.949 50.21 270.949 50.21C283.949 50.21 294.449 50.265 294.449 50.34Z" fill="#E0E0E0"/>
<path d="M158.744 185.71H84.1543L96.3043 194.5V211.75C96.3043 212.223 96.3976 212.692 96.5788 213.129C96.76 213.566 97.0257 213.963 97.3605 214.297C97.6953 214.632 98.0928 214.897 98.5301 215.077C98.9675 215.258 99.4361 215.351 99.9093 215.35H158.744C159.217 215.351 159.686 215.258 160.123 215.077C160.561 214.897 160.958 214.632 161.293 214.297C161.628 213.963 161.894 213.566 162.075 213.129C162.256 212.692 162.349 212.223 162.349 211.75V189.31C162.348 188.355 161.968 187.439 161.292 186.764C160.616 186.089 159.7 185.71 158.744 185.71Z" fill="#F5F5F5"/>
<path d="M155.635 197.9C155.635 197.975 144.385 198.03 130.51 198.03C116.635 198.03 105.385 197.975 105.385 197.9C105.385 197.825 116.63 197.77 130.51 197.77C144.39 197.77 155.635 197.83 155.635 197.9Z" fill="#E0E0E0"/>
<path d="M155.635 204.525C155.635 204.595 144.385 204.655 130.51 204.655C116.635 204.655 105.385 204.595 105.385 204.525C105.385 204.455 116.63 204.395 130.51 204.395C144.39 204.395 155.635 204.455 155.635 204.525Z" fill="#E0E0E0"/>
<path d="M311.04 100.7H223.745C213.033 100.7 204.35 109.383 204.35 120.095V191.145C204.35 201.857 213.033 210.54 223.745 210.54H311.04C321.751 210.54 330.435 201.857 330.435 191.145V120.095C330.435 109.383 321.751 100.7 311.04 100.7Z" fill="#3DBB47"/>
<g opacity="0.4">
<path d="M311.04 100.7H223.745C213.033 100.7 204.35 109.383 204.35 120.095V191.145C204.35 201.857 213.033 210.54 223.745 210.54H311.04C321.751 210.54 330.435 201.857 330.435 191.145V120.095C330.435 109.383 321.751 100.7 311.04 100.7Z" fill="black"/>
</g>
<path d="M330.4 138.99H349.285L329.975 158.305L330.4 138.99Z" fill="#3DBB47"/>
<g opacity="0.4">
<path d="M330.4 138.99H349.285L329.975 158.305L330.4 138.99Z" fill="black"/>
</g>
<path d="M201.329 150.865L193.414 141.865C191.274 139.725 190.539 138.695 190.969 138.32C191.539 137.82 191.294 137.985 195.739 141.32C195.739 141.32 189.439 136.505 191.624 136.475C192.009 136.475 193.079 137.095 194.224 137.845C192.664 136.52 192.224 135.625 192.529 135.2C193.029 134.46 196.889 137.135 198.664 138.42C197.214 137.34 194.449 135.245 193.964 134.585C193.294 133.685 194.649 133.76 195.749 134.135C196.984 134.555 203.809 138.04 205.829 138.94C205.991 139.037 206.172 139.097 206.36 139.117C206.547 139.137 206.737 139.116 206.915 139.056C207.094 138.995 207.258 138.897 207.395 138.767C207.532 138.638 207.639 138.48 207.709 138.305C208.454 135.175 210.709 133.14 211.569 132.875C212.429 132.61 213.094 133.71 212.479 134.51C211.901 135.441 211.453 136.447 211.149 137.5C210.871 138.326 210.734 139.193 210.744 140.065C210.744 141.065 210.814 141.93 210.879 142.655L218.114 152.58L206.014 159.58L201.329 150.865Z" fill="#B78876"/>
<path d="M198.499 142.72C198.419 142.83 196.999 141.865 195.359 140.56C193.719 139.255 192.439 138.105 192.534 138C192.629 137.895 194.034 138.865 195.674 140.16C197.314 141.455 198.569 142.605 198.499 142.72Z" fill="#AA6550"/>
<path d="M200.03 141.14C199.95 141.255 198.395 140.305 196.555 139.025C194.715 137.745 193.285 136.61 193.365 136.5C193.445 136.39 195 137.33 196.84 138.61C198.68 139.89 200.11 141.025 200.03 141.14Z" fill="#AA6550"/>
<path d="M201.149 139.46C201.069 139.575 199.579 138.705 197.824 137.515C196.069 136.325 194.709 135.27 194.784 135.15C194.859 135.03 196.349 135.905 198.109 137.095C199.869 138.285 201.224 139.345 201.149 139.46Z" fill="#AA6550"/>
<path d="M211.555 144L240.395 180.57L233.79 195.945C233.79 195.945 225.88 194.195 223.48 190.865C221.08 187.535 201.33 150.865 201.33 150.865L211.555 144Z" fill="#B78876"/>
<path d="M284.765 92.84C286.84 94.64 286.835 97.81 286.595 100.545C286.355 103.28 286.17 106.395 288.065 108.385C289.63 110.025 292.465 110.74 292.825 112.975C292.91 113.5 292.831 114.039 292.597 114.517C292.364 114.995 291.988 115.389 291.522 115.645C291.056 115.901 290.521 116.006 289.993 115.946C289.464 115.886 288.967 115.664 288.57 115.31C289.18 117.075 288.76 119.28 287.23 120.35C285.7 121.42 283.135 120.76 282.66 118.955C282.738 119.256 282.752 119.57 282.703 119.878C282.654 120.185 282.542 120.479 282.375 120.741C282.207 121.003 281.987 121.228 281.729 121.402C281.47 121.575 281.179 121.693 280.873 121.749C280.567 121.805 280.252 121.797 279.949 121.726C279.646 121.655 279.361 121.522 279.112 121.336C278.862 121.15 278.654 120.914 278.5 120.644C278.345 120.374 278.248 120.074 278.215 119.765" fill="#263238"/>
<path d="M255.05 111.3C254.771 111.97 254.237 112.501 253.566 112.777C252.895 113.053 252.142 113.052 251.472 112.772C250.803 112.493 250.271 111.96 249.995 111.289C249.719 110.618 249.721 109.865 250 109.195C250.475 108.155 251.6 107.405 251.71 106.265C251.84 104.89 250.435 103.905 249.21 103.305C247.985 102.705 246.505 101.925 246.37 100.545C246.235 99.165 247.43 98.18 248.425 97.29C249.42 96.4 250.425 95.02 249.79 93.835C249.475 93.225 248.82 92.88 248.395 92.335C247.46 91.145 247.95 89.25 249.145 88.335C250.34 87.42 251.99 87.275 253.48 87.54C254.97 87.805 256.37 88.425 257.82 88.86C260.224 89.5589 262.746 89.7518 265.228 89.4265C267.71 89.1012 270.098 88.2647 272.24 86.97" fill="#263238"/>
<path d="M263.903 143.545C266.486 144.066 269.171 143.551 271.378 142.111C273.584 140.67 275.136 138.42 275.698 135.845L282.793 103.315C283.236 101.437 283.298 99.4885 282.975 97.5858C282.651 95.6832 281.95 93.8646 280.912 92.2377C279.874 90.6109 278.52 89.2087 276.931 88.1141C275.341 87.0195 273.548 86.2547 271.658 85.865L270.918 85.755C267.304 85.2236 263.621 86.0735 260.605 88.1352C257.589 90.1969 255.46 93.3192 254.643 96.88C253.063 103.745 251.408 111.35 250.908 115.085C249.873 122.82 257.408 125.15 257.408 125.15L256.053 131.65C255.785 132.945 255.774 134.28 256.023 135.579C256.272 136.878 256.776 138.115 257.504 139.219C258.233 140.323 259.172 141.272 260.269 142.012C261.365 142.752 262.597 143.268 263.893 143.53L263.903 143.545Z" fill="#B78876"/>
<path d="M256.034 102C255.99 102.287 256.06 102.58 256.228 102.817C256.396 103.054 256.649 103.216 256.934 103.27C257.073 103.302 257.216 103.305 257.356 103.28C257.495 103.256 257.629 103.204 257.748 103.127C257.867 103.05 257.97 102.95 258.05 102.833C258.13 102.716 258.186 102.584 258.214 102.445C258.261 102.158 258.193 101.865 258.026 101.627C257.859 101.39 257.605 101.227 257.319 101.175C257.181 101.143 257.037 101.14 256.897 101.164C256.757 101.189 256.623 101.241 256.504 101.318C256.384 101.395 256.281 101.495 256.2 101.612C256.12 101.729 256.063 101.861 256.034 102Z" fill="#263238"/>
<path d="M255.749 100.9C255.864 101.065 256.789 100.565 257.979 100.745C259.169 100.925 259.944 101.64 260.094 101.515C260.169 101.46 260.064 101.18 259.729 100.85C259.267 100.419 258.684 100.141 258.059 100.055C257.442 99.9619 256.812 100.067 256.259 100.355C255.854 100.585 255.694 100.825 255.749 100.9Z" fill="#263238"/>
<path d="M267.629 103.9C267.584 104.187 267.652 104.481 267.821 104.718C267.989 104.955 268.243 105.117 268.529 105.17C268.667 105.201 268.811 105.205 268.951 105.18C269.091 105.155 269.225 105.102 269.344 105.025C269.463 104.948 269.566 104.847 269.646 104.73C269.725 104.612 269.781 104.479 269.809 104.34C269.854 104.053 269.785 103.76 269.617 103.524C269.449 103.288 269.194 103.126 268.909 103.075C268.77 103.043 268.627 103.039 268.487 103.063C268.347 103.087 268.213 103.139 268.094 103.216C267.975 103.293 267.872 103.394 267.792 103.511C267.712 103.628 267.657 103.761 267.629 103.9Z" fill="#263238"/>
<path d="M267.379 102.83C267.494 102.99 268.419 102.495 269.604 102.675C270.789 102.855 271.574 103.57 271.724 103.445C271.794 103.39 271.694 103.11 271.354 102.78C270.892 102.349 270.309 102.071 269.683 101.985C269.067 101.892 268.437 101.997 267.884 102.285C267.499 102.5 267.319 102.755 267.379 102.83Z" fill="#263238"/>
<path d="M261.785 111C261.785 110.93 261.08 110.695 259.91 110.37C259.61 110.295 259.335 110.19 259.315 109.975C259.336 109.66 259.451 109.359 259.645 109.11C260.042 108.42 260.453 107.695 260.88 106.935C262.605 103.83 263.88 101.265 263.775 101.195C263.67 101.125 262.15 103.585 260.425 106.695L259.225 108.885C258.983 109.225 258.866 109.638 258.895 110.055C258.926 110.165 258.981 110.268 259.056 110.354C259.131 110.441 259.225 110.509 259.33 110.555C259.49 110.624 259.658 110.672 259.83 110.7C260.467 110.881 261.123 110.982 261.785 111Z" fill="#263238"/>
<path d="M267.75 98.135C267.82 98.475 269.03 98.495 270.395 98.865C271.76 99.235 272.83 99.78 273.06 99.52C273.16 99.395 273.01 99.06 272.605 98.685C272.055 98.213 271.405 97.8726 270.704 97.6897C270.003 97.5069 269.27 97.4865 268.56 97.63C268 97.76 267.725 98 267.75 98.135Z" fill="#263238"/>
<path d="M256.688 97.53C256.858 97.83 257.688 97.67 258.688 97.8C259.688 97.93 260.478 98.25 260.688 97.995C260.793 97.87 260.688 97.58 260.378 97.27C259.935 96.8928 259.388 96.6561 258.81 96.5903C258.231 96.5244 257.646 96.6322 257.128 96.9C256.768 97.125 256.613 97.385 256.688 97.53Z" fill="#263238"/>
<path d="M275.654 93.62L275.689 93.66C276.779 94.8097 277.381 96.3363 277.369 97.92V98.075C277.369 100.325 276.964 102.575 276.969 104.8C276.974 107.025 277.404 109.395 278.809 111.145C279.384 111.87 280.504 112.47 281.159 111.82C281.39 111.543 281.537 111.207 281.584 110.85C282.774 105.595 284.914 101.095 285.719 95.535C285.831 94.7907 285.763 94.0305 285.523 93.3175C285.282 92.6045 284.874 91.9591 284.334 91.435C283.294 90.435 281.999 89.355 280.614 89.78C279.229 90.205 277.204 92.38 276.049 93.28" fill="#263238"/>
<path d="M279.68 106.425C279.82 106.385 285.215 105.63 284.27 110.885C283.325 116.14 278.27 114.11 278.27 113.955C278.27 113.8 279.68 106.425 279.68 106.425Z" fill="#B78876"/>
<path d="M280.229 112.255C280.229 112.255 280.309 112.335 280.449 112.43C280.65 112.563 280.896 112.614 281.134 112.57C281.724 112.465 282.349 111.67 282.544 110.725C282.644 110.279 282.644 109.816 282.544 109.37C282.523 109.197 282.461 109.032 282.363 108.888C282.264 108.745 282.132 108.627 281.979 108.545C281.879 108.498 281.765 108.487 281.658 108.516C281.551 108.544 281.457 108.609 281.394 108.7C281.299 108.83 281.314 108.945 281.284 108.945C281.254 108.945 281.189 108.84 281.284 108.63C281.336 108.505 281.429 108.403 281.549 108.34C281.713 108.256 281.903 108.24 282.079 108.295C282.288 108.378 282.473 108.514 282.614 108.689C282.756 108.864 282.851 109.073 282.889 109.295C283.028 109.783 283.046 110.298 282.944 110.795C282.719 111.85 281.999 112.74 281.204 112.825C281.055 112.841 280.904 112.823 280.763 112.773C280.622 112.722 280.494 112.641 280.389 112.535C280.214 112.38 280.209 112.26 280.229 112.255Z" fill="#AA6550"/>
<path d="M280.675 90.625C282.285 88.7 279.175 85.15 276.675 83.945C274.175 82.74 270.575 83.51 267.855 83.99C266.14 84.295 264.4 84.815 262.69 84.49C261.555 84.2061 260.469 83.7526 259.47 83.145C258.467 82.5484 257.355 82.159 256.2 82C255.618 81.9285 255.028 82.0169 254.494 82.2557C253.959 82.4944 253.499 82.8745 253.165 83.355C252.57 84.355 252.985 85.92 254.105 86.245C253.767 85.9888 253.372 85.8183 252.954 85.7481C252.536 85.6779 252.108 85.7101 251.705 85.842C251.302 85.9739 250.937 86.2015 250.642 86.5053C250.347 86.8092 250.129 87.1801 250.009 87.5864C249.888 87.9927 249.868 88.4221 249.95 88.8379C250.032 89.2537 250.213 89.6435 250.479 89.9737C250.744 90.304 251.086 90.5649 251.474 90.7341C251.863 90.9032 252.287 90.9756 252.71 90.945C252.045 90.265 250.755 91.04 250.71 91.99C250.665 92.94 251.415 93.745 252.21 94.25C254.265 95.54 256.875 95.605 259.265 95.175C261.655 94.745 263.945 93.855 266.325 93.365C268.705 92.875 272.7 91.945 274.85 93.08C276.43 93.91 277.3 96.08 278.305 95.785C278.78 95.6097 279.209 95.326 279.556 94.9562C279.903 94.5865 280.159 94.141 280.305 93.655C280.575 92.6793 280.688 91.6665 280.64 90.655" fill="#263238"/>
<path d="M290.958 115C291.057 114.977 291.15 114.937 291.233 114.88C291.481 114.721 291.678 114.496 291.803 114.23C291.997 113.805 292.057 113.33 291.974 112.87C291.844 112.265 291.512 111.722 291.034 111.33C290.465 110.862 289.825 110.489 289.139 110.225C288.366 109.943 287.624 109.585 286.923 109.155C286.189 108.639 285.629 107.912 285.319 107.07C284.977 106.163 284.819 105.198 284.854 104.23C284.904 102.23 285.459 100.355 285.594 98.59C285.729 96.825 285.504 95.17 284.754 94.025C284.19 93.1041 283.295 92.4334 282.254 92.15C281.974 92.0796 281.686 92.051 281.398 92.065C281.299 92.0666 281.199 92.0817 281.104 92.11C281.483 92.1075 281.861 92.1545 282.229 92.25C283.219 92.5631 284.059 93.2308 284.589 94.125C285.284 95.235 285.524 96.845 285.349 98.57C285.174 100.295 284.638 102.17 284.578 104.225C284.547 105.229 284.717 106.228 285.078 107.165C285.413 108.054 286.011 108.82 286.794 109.36C287.511 109.791 288.27 110.149 289.059 110.43C289.727 110.678 290.353 111.029 290.914 111.47C291.37 111.831 291.694 112.334 291.833 112.9C291.925 113.331 291.883 113.779 291.714 114.185C291.559 114.533 291.293 114.819 290.958 115Z" fill="#455A64"/>
<path d="M253.935 86.12C253.865 86.0674 253.787 86.0253 253.705 85.995C253.611 85.9489 253.514 85.9105 253.415 85.88C253.276 85.8326 253.134 85.7975 252.99 85.775C252.516 85.7002 252.031 85.7342 251.571 85.8746C251.112 86.0149 250.691 86.2578 250.34 86.585C249.984 87.0186 249.717 87.5185 249.556 88.0558C249.395 88.5931 249.342 89.157 249.4 89.715C249.467 90.408 249.672 91.0806 250.004 91.6929C250.335 92.3052 250.786 92.8449 251.33 93.28C252.579 94.2867 254.101 94.8978 255.7 95.035C257.436 95.1843 259.185 95.0782 260.89 94.72C263.594 94.1902 266.183 93.1883 268.54 91.76C269.55 91.1352 270.606 90.5886 271.7 90.125C272.654 89.7379 273.671 89.5294 274.7 89.51C276.198 89.4776 277.679 89.8214 279.01 90.51C279.491 90.7791 279.956 91.0746 280.405 91.395C280.004 91.0016 279.552 90.6652 279.06 90.395C277.726 89.6517 276.222 89.2675 274.695 89.28C273.64 89.288 272.596 89.4897 271.615 89.875C270.51 90.338 269.442 90.8846 268.42 91.51C266.08 92.9087 263.515 93.8915 260.84 94.415C259.16 94.7708 257.437 94.8803 255.725 94.74C254.175 94.6114 252.698 94.0269 251.48 93.06C250.956 92.6458 250.52 92.1314 250.197 91.5468C249.874 90.9621 249.671 90.319 249.6 89.655C249.539 89.1229 249.583 88.5841 249.731 88.0693C249.878 87.5545 250.126 87.0739 250.46 86.655C250.793 86.3368 251.193 86.0968 251.631 85.9523C252.068 85.8079 252.533 85.7627 252.99 85.82C253.313 85.8908 253.63 85.9913 253.935 86.12Z" fill="#455A64"/>
<path d="M256.858 81.745C256.84 82.1468 256.903 82.548 257.044 82.925C257.434 83.9669 258.163 84.8474 259.113 85.425C259.752 85.8413 260.463 86.1362 261.208 86.295C262.064 86.4673 262.94 86.5128 263.809 86.43C265.644 86.295 267.563 85.665 269.578 85.145C271.593 84.625 273.609 84.35 275.349 84.815C276.893 85.2242 278.266 86.1158 279.268 87.36C279.958 88.1864 280.469 89.1465 280.768 90.18C280.968 90.915 280.994 91.345 281.029 91.34C281.035 91.2368 281.035 91.1332 281.029 91.03C281.001 90.7352 280.953 90.4428 280.884 90.155C280.617 89.0889 280.12 88.094 279.428 87.24C278.416 85.9447 277.014 85.0102 275.428 84.575C273.628 84.075 271.559 84.36 269.534 84.885C267.509 85.41 265.604 86.04 263.809 86.185C262.963 86.2725 262.109 86.2371 261.273 86.08C260.551 85.933 259.86 85.6587 259.233 85.27C258.306 84.7234 257.58 83.8922 257.164 82.9C257.03 82.5242 256.928 82.1379 256.858 81.745Z" fill="#455A64"/>
<path d="M259.414 114.925C259.479 115.441 259.616 115.946 259.819 116.425C259.925 116.662 260.08 116.873 260.274 117.046C260.468 117.218 260.696 117.347 260.944 117.425C261.212 117.48 261.49 117.468 261.752 117.388C262.014 117.309 262.251 117.165 262.444 116.97C262.827 116.566 263.074 116.052 263.149 115.5C263.229 115 263.149 114.375 262.649 114.215C262.447 114.165 262.236 114.165 262.034 114.215L259.264 114.715" fill="#AA6550"/>
<path d="M259.899 117.025C260.34 117.194 260.807 117.283 261.279 117.285C261.768 117.256 262.228 117.046 262.569 116.695C262.771 116.48 262.925 116.226 263.02 115.947C263.116 115.669 263.151 115.373 263.124 115.08C263.109 114.93 263.076 114.782 263.024 114.64C262.959 114.505 262.979 114.515 262.864 114.5C262.749 114.485 262.569 114.5 262.419 114.525L261.954 114.56C261.354 114.605 260.814 114.64 260.359 114.665C259.861 114.734 259.355 114.724 258.859 114.635C259.327 114.464 259.817 114.363 260.314 114.335C260.764 114.27 261.314 114.205 261.899 114.135L262.359 114.085C262.525 114.061 262.692 114.046 262.859 114.04C262.992 114.044 263.12 114.089 263.224 114.17C263.318 114.253 263.388 114.358 263.429 114.475C263.497 114.655 263.541 114.843 263.559 115.035C263.592 115.395 263.545 115.758 263.422 116.097C263.298 116.437 263.101 116.745 262.844 117C262.418 117.406 261.848 117.627 261.259 117.615C260.875 117.617 260.497 117.511 260.169 117.31C259.999 117.17 259.884 117.045 259.899 117.025Z" fill="#263238"/>
<path d="M257.419 125.15C257.419 125.15 262.459 127.06 267.364 125.65C267.364 125.65 263.664 128.755 256.914 127.565L257.419 125.15Z" fill="#AA6550"/>
<path d="M265.11 196.835C264.867 196.676 264.636 196.499 264.42 196.305C264.205 196.13 263.92 195.915 263.615 195.685C263.31 195.455 262.94 195.185 262.515 194.91C262.09 194.635 261.65 194.335 261.135 194.05C260.62 193.765 260.075 193.465 259.49 193.165C256.925 191.903 254.167 191.078 251.33 190.725C250.675 190.655 250.055 190.575 249.47 190.56C248.885 190.545 248.34 190.52 247.845 190.525C247.35 190.53 246.895 190.555 246.5 190.57C246.105 190.585 245.765 190.615 245.5 190.645C245.214 190.689 244.924 190.709 244.635 190.705C244.916 190.633 245.202 190.579 245.49 190.545C245.821 190.488 246.155 190.448 246.49 190.425C246.885 190.395 247.335 190.34 247.84 190.34C248.345 190.34 248.89 190.31 249.48 190.34C250.07 190.37 250.7 190.42 251.36 190.48C252.79 190.658 254.205 190.949 255.59 191.35C256.964 191.772 258.302 192.306 259.59 192.945C260.175 193.255 260.74 193.54 261.235 193.86C261.73 194.18 262.2 194.465 262.61 194.755C263.02 195.045 263.38 195.325 263.695 195.565C264.01 195.805 264.27 196.035 264.475 196.225C264.703 196.41 264.915 196.614 265.11 196.835Z" fill="#FAFAFA"/>
<path d="M235.723 171.155L239.823 153.39C241.393 146.71 243.253 140.29 246.378 139.53V141.595L245.038 192.35C245.038 192.35 236.683 201.85 226.038 196.58C222.708 194.925 216.633 183.3 216.633 183.3C216.633 183.3 202.498 158.08 203.088 156.935C203.678 155.79 212.313 144.66 213.193 144.105L235.723 171.155Z" fill="#3DBB47"/>
<path d="M277.915 134.5C286.065 136.06 295.24 140.815 299.465 153C301.005 157.45 312.225 190.255 312.225 190.255L293.09 189.855L290 183.1L291.5 194.075L292.795 209.725L244.475 210.54L244.815 186.96L245.28 140.06C245.28 140.06 245.82 139.35 254.155 134.755C259.325 131.9 277.915 134.5 277.915 134.5Z" fill="#3DBB47"/>
<g opacity="0.2">
<path d="M282.735 165.87C283.53 175.77 284.44 178.83 285.235 188.73C285.254 189.667 285.423 190.596 285.735 191.48C285.902 191.92 286.17 192.314 286.517 192.631C286.865 192.948 287.282 193.179 287.735 193.305C289.145 193.59 290.975 194.61 291.37 193.23L290.035 183.695C289.748 182.308 289.305 180.958 288.715 179.67C285.75 173.085 284.655 172.7 282.715 165.87" fill="black"/>
</g>
<path d="M254.148 139.83L254.308 138.8L255.853 128.92C255.898 128.633 256.05 128.373 256.278 128.193C256.506 128.013 256.794 127.926 257.083 127.95L276.108 129.54C276.683 129.587 277.216 129.86 277.59 130.298C277.965 130.736 278.151 131.305 278.108 131.88L277.683 137.62L271.743 145.37L263.188 146.705" fill="#3DBB47"/>
<path d="M244.595 158.405C244.67 158.405 244.725 166.145 244.725 175.69C244.725 185.235 244.67 192.975 244.595 192.975C244.52 192.975 244.465 185.235 244.465 175.69C244.465 166.145 244.525 158.405 244.595 158.405Z" fill="#263238"/>
<path d="M293.5 191.445C293.5 191.445 293.5 191.41 293.44 191.335C293.38 191.26 293.345 191.135 293.28 190.995L292.7 189.68L290.615 184.825L283.82 168.77C282.5 165.63 281.245 162.64 280.105 159.915C279.528 158.639 279.115 157.295 278.875 155.915C278.664 154.71 278.553 153.489 278.545 152.265C278.481 150.492 278.738 148.722 279.305 147.04L279.46 146.625L279.635 146.275C279.717 146.089 279.817 145.911 279.935 145.745L280.145 145.435C280.169 145.4 280.196 145.366 280.225 145.335C279.896 145.888 279.62 146.47 279.4 147.075C278.876 148.753 278.65 150.509 278.73 152.265C278.738 154.872 279.281 157.45 280.325 159.84L284.06 168.685L290.785 184.77L292.785 189.655L293.32 190.99L293.455 191.34C293.473 191.373 293.488 191.409 293.5 191.445Z" fill="#263238"/>
<path d="M283.845 136.245C283.67 136.423 283.485 136.59 283.29 136.745C282.728 137.174 282.115 137.531 281.465 137.81C280.435 138.24 279.357 138.542 278.255 138.71C276.797 138.936 275.328 139.082 273.855 139.145C272.215 139.215 270.425 139.185 268.505 139.22C266.465 139.217 264.433 139.465 262.455 139.96C260.263 140.478 258.279 141.648 256.765 143.315C256.01 144.223 255.47 145.289 255.185 146.435C254.88 147.61 254.9 148.846 255.245 150.01C255.436 150.584 255.718 151.125 256.08 151.61C256.444 152.081 256.904 152.47 257.43 152.75C257.94 153.029 258.521 153.151 259.1 153.1C259.666 153.042 260.19 152.774 260.57 152.35C260.908 151.904 261.148 151.391 261.276 150.846C261.403 150.301 261.415 149.735 261.31 149.185C261.227 148.642 261.058 148.115 260.81 147.625C260.563 147.147 260.266 146.696 259.925 146.28C258.588 144.74 256.788 143.675 254.795 143.245C253.068 142.838 251.267 142.858 249.55 143.305C248.137 143.67 246.788 144.249 245.55 145.02C244.607 145.608 243.717 146.277 242.89 147.02C242.205 147.62 241.72 148.14 241.39 148.48L241.02 148.88C240.979 148.928 240.934 148.971 240.885 149.01C241.473 148.266 242.126 147.575 242.835 146.945C243.653 146.188 244.54 145.508 245.485 144.915C246.735 144.119 248.101 143.522 249.535 143.145C251.28 142.677 253.114 142.646 254.875 143.055C256.92 143.486 258.768 144.573 260.14 146.15C260.489 146.567 260.794 147.02 261.05 147.5C261.302 148.015 261.471 148.567 261.55 149.135C261.637 149.714 261.627 150.304 261.52 150.88C261.412 151.479 261.148 152.04 260.755 152.505C260.334 152.977 259.753 153.275 259.125 153.34C258.494 153.4 257.86 153.269 257.305 152.965C256.747 152.667 256.258 152.255 255.87 151.755C255.488 151.246 255.191 150.679 254.99 150.075C254.63 148.865 254.61 147.581 254.93 146.36C255.222 145.174 255.781 144.071 256.565 143.135C258.116 141.434 260.144 140.24 262.385 139.71C264.386 139.221 266.44 138.982 268.5 139C270.425 138.97 272.215 139 273.845 138.955C275.313 138.904 276.776 138.772 278.23 138.56C279.326 138.403 280.4 138.117 281.43 137.71C282.076 137.448 282.69 137.112 283.26 136.71C283.46 136.575 283.595 136.45 283.695 136.38C283.74 136.33 283.791 136.285 283.845 136.245Z" fill="#FAFAFA"/>
<path d="M300.38 157.055C300.31 157.075 300.238 157.086 300.165 157.09C300.025 157.09 299.82 157.125 299.55 157.135C298.794 157.16 298.038 157.142 297.285 157.08C296.33 157.01 295.2 156.865 293.95 156.69C292.7 156.515 291.33 156.33 289.88 156.255C288.524 156.181 287.164 156.284 285.835 156.56C284.748 156.781 283.704 157.178 282.745 157.735C281.876 158.266 281.105 158.943 280.465 159.735C280.492 159.668 280.529 159.606 280.575 159.55C280.68 159.373 280.801 159.206 280.935 159.05C281.419 158.458 281.999 157.951 282.65 157.55C283.615 156.96 284.674 156.538 285.78 156.3C287.13 156.005 288.515 155.894 289.895 155.97C291.36 156.045 292.735 156.245 293.985 156.43C295.235 156.615 296.355 156.78 297.3 156.87C298.245 156.96 299.02 157 299.55 157.005C299.827 157.005 300.104 157.021 300.38 157.055Z" fill="#FAFAFA"/>
<path d="M288.364 179.47C287.424 179.251 286.458 179.169 285.494 179.225C284.364 179.301 283.246 179.501 282.159 179.82C280.884 180.165 279.459 180.67 277.859 181.165C276.122 181.754 274.303 182.069 272.469 182.1C270.357 182.099 268.267 181.665 266.329 180.825C264.176 179.915 262.26 178.522 260.729 176.755C259.901 175.831 259.226 174.782 258.729 173.645C258.201 172.469 258.002 171.171 258.154 169.89C258.328 168.599 258.958 167.413 259.929 166.545C260.412 166.124 260.99 165.829 261.614 165.685C262.225 165.556 262.857 165.573 263.459 165.736C264.062 165.898 264.617 166.201 265.079 166.62C265.531 167.034 265.845 167.577 265.979 168.175C266.109 168.76 266.062 169.371 265.844 169.93C265.634 170.467 265.316 170.956 264.909 171.365C264.134 172.142 263.197 172.737 262.164 173.11C261.678 173.295 261.176 173.433 260.664 173.525C260.414 173.57 260.164 173.625 259.919 173.66L259.174 173.75C257.347 173.931 255.503 173.801 253.719 173.365C252.248 173.015 250.831 172.47 249.504 171.745C248.501 171.203 247.56 170.552 246.699 169.805L246.199 169.37L245.789 168.955C245.568 168.745 245.361 168.522 245.169 168.285L244.809 167.855C244.768 167.808 244.731 167.758 244.699 167.705C244.748 167.746 244.793 167.792 244.834 167.84L245.209 168.25C245.407 168.479 245.62 168.696 245.844 168.9L246.259 169.305L246.759 169.73C247.624 170.457 248.564 171.089 249.564 171.615C250.884 172.32 252.291 172.848 253.749 173.185C255.515 173.606 257.339 173.724 259.144 173.535L259.874 173.445C260.119 173.405 260.374 173.35 260.614 173.305C261.114 173.215 261.605 173.077 262.079 172.895C263.078 172.531 263.984 171.953 264.734 171.2C265.117 170.813 265.416 170.352 265.614 169.845C265.81 169.33 265.854 168.769 265.739 168.23C265.591 167.679 265.295 167.18 264.884 166.785C264.472 166.39 263.961 166.115 263.404 165.99C262.834 165.826 262.232 165.809 261.654 165.941C261.076 166.073 260.541 166.349 260.099 166.745C259.173 167.57 258.575 168.7 258.414 169.93C258.271 171.162 258.461 172.411 258.964 173.545C259.448 174.655 260.103 175.682 260.904 176.59C262.409 178.325 264.29 179.693 266.404 180.59C268.311 181.422 270.368 181.858 272.449 181.87C274.265 181.848 276.066 181.544 277.789 180.97C279.384 180.47 280.789 180 282.104 179.665C283.202 179.356 284.331 179.17 285.469 179.11C285.884 179.084 286.3 179.084 286.714 179.11C287.069 179.165 287.374 179.19 287.614 179.245L288.159 179.38C288.231 179.4 288.3 179.431 288.364 179.47Z" fill="#FAFAFA"/>
<path d="M244.43 174.135C244.385 174.135 244.155 173.635 243.67 172.795C242.4 170.663 240.55 168.938 238.335 167.82C237.485 167.39 236.925 167.2 236.94 167.155C237.08 167.167 237.218 167.199 237.35 167.25C237.714 167.358 238.07 167.492 238.415 167.65C239.56 168.172 240.614 168.876 241.535 169.735C242.457 170.593 243.233 171.596 243.83 172.705C244.019 173.037 244.186 173.381 244.33 173.735C244.381 173.863 244.414 173.998 244.43 174.135Z" fill="#FAFAFA"/>
<path d="M225.029 195.535C225.029 195.535 224.994 195.495 224.949 195.41C224.904 195.325 224.829 195.19 224.744 195.035C224.564 194.705 224.304 194.21 223.984 193.57C223.056 191.763 222.289 189.877 221.694 187.935C221.297 186.586 221.057 185.195 220.979 183.79C220.94 183.005 220.971 182.219 221.074 181.44C221.199 180.616 221.396 179.804 221.664 179.015C222.248 177.309 223.258 175.78 224.599 174.575C225.316 173.918 226.158 173.413 227.075 173.091C227.992 172.768 228.965 172.635 229.934 172.7C230.942 172.775 231.883 173.233 232.564 173.98C232.888 174.349 233.124 174.787 233.253 175.261C233.382 175.735 233.401 176.232 233.309 176.715C233.202 177.188 232.954 177.619 232.599 177.95C232.253 178.267 231.834 178.496 231.379 178.615C230.499 178.844 229.565 178.732 228.764 178.3C228.022 177.899 227.372 177.345 226.859 176.675C226.368 176.054 225.962 175.37 225.654 174.64C225.113 173.331 224.889 171.912 224.999 170.5C225.1 169.335 225.441 168.203 225.999 167.175C226.413 166.4 226.943 165.691 227.569 165.075C227.961 164.684 228.392 164.334 228.854 164.03C229.009 163.925 229.139 163.86 229.224 163.81L229.354 163.745C229.354 163.745 229.194 163.86 228.884 164.075C228.438 164.393 228.021 164.752 227.639 165.145C227.04 165.767 226.535 166.473 226.139 167.24C225.608 168.255 225.29 169.368 225.204 170.51C225.108 171.895 225.341 173.283 225.884 174.56C226.188 175.268 226.585 175.932 227.064 176.535C227.562 177.177 228.189 177.707 228.904 178.09C229.652 178.492 230.524 178.596 231.344 178.38C231.765 178.282 232.151 178.069 232.459 177.765C232.767 177.462 232.985 177.079 233.089 176.66C233.169 176.218 233.148 175.764 233.029 175.332C232.909 174.899 232.694 174.499 232.399 174.16C231.761 173.464 230.881 173.038 229.939 172.97C229.005 172.908 228.068 173.036 227.185 173.347C226.301 173.657 225.49 174.143 224.799 174.775C223.491 175.952 222.501 177.442 221.924 179.105C221.655 179.877 221.456 180.672 221.329 181.48C221.226 182.245 221.191 183.018 221.224 183.79C221.295 185.18 221.523 186.557 221.904 187.895C222.481 189.833 223.216 191.719 224.104 193.535L224.819 195.035C224.894 195.195 224.954 195.325 225.004 195.425C225.054 195.525 225.029 195.535 225.029 195.535Z" fill="#FAFAFA"/>
<path d="M218.855 151.395C218.855 151.395 218.88 151.465 218.9 151.6C218.935 151.802 218.96 152.006 218.975 152.21C219.04 152.957 219.04 153.708 218.975 154.455C218.773 156.942 217.922 159.332 216.508 161.388C215.093 163.444 213.165 165.092 210.915 166.17C210.241 166.499 209.54 166.768 208.82 166.975C208.57 167.055 208.365 167.09 208.23 167.125C208.095 167.16 208.02 167.165 208.02 167.155C208.27 167.047 208.527 166.955 208.79 166.88C209.491 166.637 210.174 166.344 210.835 166.005C213.025 164.899 214.902 163.259 216.293 161.237C217.684 159.215 218.544 156.876 218.795 154.435C218.873 153.698 218.902 152.956 218.88 152.215C218.854 151.943 218.845 151.669 218.855 151.395Z" fill="#FAFAFA"/>
<path d="M304.755 173.075C304.011 173.541 303.357 174.137 302.825 174.835C302.325 175.48 301.825 176.335 301.26 177.235C300.64 178.243 299.925 179.189 299.125 180.06C297.661 181.641 295.925 182.947 294 183.915C293.42 184.208 292.822 184.464 292.21 184.68C291.986 184.768 291.755 184.835 291.52 184.88C291.727 184.762 291.944 184.663 292.17 184.585C292.59 184.4 293.2 184.14 293.915 183.75C295.783 182.746 297.472 181.44 298.915 179.885C299.707 179.027 300.418 178.098 301.04 177.11C301.537 176.284 302.079 175.486 302.665 174.72C303.071 174.207 303.555 173.76 304.1 173.395C304.247 173.297 304.403 173.212 304.565 173.14C304.695 173.09 304.755 173.065 304.755 173.075Z" fill="#FAFAFA"/>
<path d="M277.733 135.1C277.66 135.131 277.583 135.152 277.503 135.16L276.838 135.28C276.258 135.375 275.418 135.5 274.383 135.64C272.303 135.92 269.423 136.25 266.228 136.485C264.732 136.622 263.23 136.675 261.728 136.645C260.489 136.615 259.261 136.404 258.083 136.02C257.288 135.762 256.537 135.383 255.858 134.895C255.673 134.764 255.496 134.623 255.328 134.47C255.218 134.36 255.163 134.305 255.168 134.295C255.173 134.285 255.428 134.495 255.913 134.795C256.604 135.239 257.353 135.586 258.138 135.825C259.306 136.18 260.518 136.369 261.738 136.385C263.24 136.401 264.742 136.341 266.238 136.205C269.423 135.97 272.303 135.675 274.383 135.44L276.848 135.16C277.142 135.119 277.437 135.099 277.733 135.1Z" fill="#263238"/>
<path d="M311.998 193.795C312.375 195.729 312.321 197.723 311.841 199.634C311.361 201.545 310.466 203.327 309.22 204.854C307.974 206.381 306.408 207.615 304.632 208.469C302.856 209.323 300.914 209.776 298.943 209.795L261.068 209.375L262.068 197.11L294.498 192.24" fill="#B78876"/>
<path d="M264.39 197.645C264.215 197.7 262.03 196.72 260.07 195.815C257.991 194.852 255.708 194.409 253.42 194.525L244.39 194.985C244.39 194.985 244.945 196.485 245.89 196.985C246.835 197.485 252.5 197.645 252.5 197.645L252.21 197.94C251.025 199.16 249.41 199.867 247.71 199.91H246.845C246.205 199.859 245.572 199.735 244.96 199.54L242.735 198.64C242.06 198.34 241.35 198.385 241.055 199.065C240.76 199.745 240.985 200.525 242.825 201.45C243.85 201.95 247.66 203.285 247.66 203.285C247.686 203.827 247.761 204.366 247.885 204.895C248.05 205.45 249.545 206.005 249.545 206.005C249.933 206.828 250.378 207.623 250.875 208.385C251.05 208.585 252.405 209.01 253.85 209.415C256.18 210.067 258.646 210.048 260.965 209.36L264.405 208.33V197.83" fill="#B78876"/>
<path d="M252.039 204.5C250.448 204.46 248.889 204.049 247.484 203.3C247.484 203.24 248.484 203.62 249.749 203.945C251.014 204.27 252.044 204.425 252.039 204.5Z" fill="#AA6550"/>
<path d="M251.719 206.605C251.295 206.693 250.855 206.66 250.449 206.51C250.024 206.432 249.63 206.238 249.309 205.95C249.717 206.032 250.119 206.147 250.509 206.295C250.919 206.367 251.324 206.471 251.719 206.605Z" fill="#AA6550"/>
<path d="M253.368 196.83C253.171 197.108 252.937 197.359 252.673 197.575C252.075 198.147 251.414 198.65 250.703 199.075C249.988 199.493 249.209 199.793 248.398 199.965C248.073 200.052 247.735 200.089 247.398 200.075C248.516 199.818 249.595 199.416 250.608 198.88C251.303 198.461 251.964 197.988 252.583 197.465C252.826 197.23 253.088 197.018 253.368 196.83Z" fill="#AA6550"/>
<path d="M265.309 196L264.389 209.87H300.064C302.486 209.872 304.863 209.213 306.939 207.965C309.288 206.553 311.146 204.452 312.259 201.947C313.372 199.442 313.686 196.655 313.159 193.965C312.645 191.331 311.875 188.754 310.859 186.27L292.919 189.225L293.494 191.455L265.309 196Z" fill="#3DBB47"/>
<path d="M301.759 190.29C301.64 190.324 301.52 190.351 301.398 190.37L300.354 190.56L296.499 191.2L283.819 193.2L271.124 195.145L267.273 195.705L266.224 195.845C266.101 195.862 265.977 195.872 265.854 195.875C265.972 195.834 266.094 195.805 266.219 195.79L267.259 195.605L271.099 194.96L283.779 192.96L296.499 191L300.349 190.44L301.398 190.3C301.518 190.284 301.639 190.281 301.759 190.29Z" fill="#263238"/>
<path d="M283.498 209.88C283.433 209.88 283.713 208.88 283.748 207.245C283.756 206.801 283.737 206.357 283.693 205.915C283.65 205.411 283.577 204.91 283.473 204.415C283.226 203.274 282.836 202.169 282.313 201.125C281.778 200.086 281.124 199.113 280.363 198.225L279.863 197.64C279.693 197.45 279.508 197.285 279.338 197.115C279.003 196.77 278.648 196.495 278.338 196.23C277.063 195.23 276.158 194.73 276.188 194.685C276.409 194.773 276.622 194.882 276.823 195.01C277.072 195.14 277.313 195.285 277.543 195.445C277.808 195.635 278.138 195.82 278.453 196.09C278.813 196.36 279.157 196.65 279.483 196.96C279.658 197.13 279.853 197.29 280.028 197.46L280.573 198.05C281.356 198.944 282.028 199.929 282.573 200.985C283.103 202.05 283.492 203.18 283.733 204.345C283.836 204.855 283.903 205.371 283.933 205.89C283.965 206.339 283.965 206.791 283.933 207.24C283.924 207.613 283.89 207.986 283.833 208.355C283.806 208.633 283.757 208.909 283.688 209.18C283.645 209.418 283.582 209.653 283.498 209.88Z" fill="#FAFAFA"/>
<path d="M305.22 208.835C304.662 208.832 304.107 208.766 303.565 208.64C302.925 208.493 302.304 208.274 301.715 207.985C300.933 207.596 300.227 207.071 299.63 206.435C298.905 205.655 298.378 204.712 298.095 203.685C297.937 203.114 297.848 202.527 297.83 201.935C297.793 201.309 297.844 200.682 297.98 200.07C298.113 199.419 298.364 198.797 298.72 198.235C299.091 197.639 299.607 197.147 300.22 196.805C300.853 196.435 301.582 196.261 302.315 196.305C302.691 196.331 303.058 196.433 303.394 196.605C303.73 196.777 304.028 197.015 304.27 197.305C304.519 197.591 304.707 197.926 304.821 198.288C304.934 198.651 304.971 199.033 304.93 199.41C304.868 199.776 304.726 200.124 304.513 200.429C304.3 200.733 304.023 200.986 303.7 201.17C302.489 201.804 301.096 201.995 299.76 201.71C297.863 201.415 296.129 200.465 294.859 199.026C293.589 197.587 292.862 195.749 292.805 193.83C292.773 193.273 292.82 192.714 292.945 192.17C292.898 192.72 292.885 193.273 292.905 193.825C292.998 195.33 293.49 196.783 294.33 198.035C294.956 198.954 295.763 199.736 296.702 200.331C297.641 200.927 298.691 201.325 299.79 201.5C301.066 201.774 302.399 201.598 303.56 201C303.85 200.836 304.1 200.61 304.292 200.337C304.484 200.065 304.613 199.753 304.67 199.425C304.699 199.083 304.661 198.738 304.557 198.411C304.453 198.083 304.285 197.78 304.064 197.517C303.842 197.255 303.571 197.039 303.266 196.881C302.96 196.724 302.627 196.628 302.285 196.6C301.607 196.554 300.93 196.709 300.34 197.045C299.784 197.377 299.307 197.825 298.94 198.358C298.573 198.891 298.326 199.497 298.215 200.135C298.079 200.728 298.027 201.337 298.06 201.945C298.073 202.518 298.156 203.087 298.305 203.64C298.568 204.639 299.069 205.561 299.765 206.325C300.336 206.952 301.013 207.475 301.765 207.87C302.341 208.164 302.948 208.394 303.575 208.555C304.625 208.79 305.225 208.8 305.22 208.835Z" fill="#FAFAFA"/>
<path d="M163.705 57.735H74.3595C69.1374 57.735 64.1292 59.8095 60.4366 63.5021C56.744 67.1946 54.6695 72.2029 54.6695 77.425V109.265H35.3945L54.6695 128.54V150.185C54.6695 155.407 56.744 160.415 60.4366 164.108C64.1292 167.8 69.1374 169.875 74.3595 169.875H163.705C168.927 169.875 173.935 167.8 177.627 164.108C181.32 160.415 183.395 155.407 183.395 150.185V77.425C183.395 72.2029 181.32 67.1946 177.627 63.5021C173.935 59.8095 168.927 57.735 163.705 57.735Z" fill="#3DBB47"/>
<path d="M127.205 61.1C126.64 62.565 127.61 64.16 128.705 65.29C129.8 66.42 131.11 67.49 131.455 69.02C131.74 70.305 131.265 71.64 131.38 72.95C131.495 74.26 132.22 75.495 132.63 76.775C133.375 79.095 133.075 81.63 132.41 83.975C131.931 85.9237 131.014 87.7378 129.73 89.28C129.084 90.0439 128.282 90.6618 127.379 91.0927C126.476 91.5237 125.491 91.758 124.49 91.78C124.208 91.7978 123.924 91.7573 123.657 91.6609C123.391 91.5646 123.147 91.4146 122.94 91.22C122.66 90.8155 122.505 90.3372 122.495 89.845C121.35 79.7775 121.35 69.6126 122.495 59.545" fill="#263238"/>
<path d="M126.15 93.545C130.5 93.355 134.52 97.52 134.175 101.86C138.58 102.935 141.675 107.78 140.83 112.23C140.545 113.7 139.89 115.1 139.8 116.59C139.7 118.22 140.3 119.805 140.595 121.405C141.161 124.321 140.858 127.339 139.725 130.085C139.04 131.74 137.76 133.45 135.97 133.5C135.363 133.475 134.772 133.3 134.249 132.992C133.726 132.685 133.287 132.253 132.97 131.735C132.346 130.687 131.935 129.527 131.76 128.32C130.985 124.41 130.76 120.395 129.68 116.56C128.6 112.725 126.5 108.945 123.035 107C121.12 105.92 118.82 105.41 117.295 103.825C116.527 102.96 116.016 101.899 115.817 100.76C115.619 99.6206 115.741 98.4487 116.17 97.375C116.619 96.311 117.288 95.3536 118.132 94.5653C118.976 93.777 119.977 93.1755 121.07 92.8" fill="#263238"/>
<path d="M96.0388 64.685C95.9888 62.825 97.7038 61.39 99.4338 60.685C101.164 59.98 103.089 59.745 104.629 58.685C105.999 57.765 106.914 56.33 108.069 55.185C109.495 53.7387 111.28 52.698 113.242 52.1698C115.203 51.6415 117.27 51.6448 119.229 52.1793C121.189 52.7137 122.971 53.7601 124.393 55.2109C125.814 56.6618 126.824 58.4649 127.319 60.435C127.984 63.08 127.529 66.21 125.444 67.97C123.024 70.01 119.444 69.555 116.329 68.92C113.214 68.285 109.714 67.66 107.124 69.485C105.564 70.58 104.664 72.37 103.709 74.025C102.754 75.68 101.559 77.365 99.7538 77.99C97.9488 78.615 95.4938 77.535 95.4238 75.63" fill="#263238"/>
<path d="M103.369 65.065C102.595 65.1487 101.881 65.5197 101.367 66.1048C100.853 66.6899 100.577 67.4465 100.594 68.225L102.449 110.225C102.529 115.185 109.779 117.97 115.089 117.845C120.454 117.72 120.624 115.09 120.694 110.37C120.804 102.49 120.794 99.53 120.799 99.575C120.804 99.62 127.574 98.435 128.959 89.575C129.644 85.18 129.409 77.97 129.024 72.075C128.679 66.77 125.149 60.27 119.864 60.84L103.369 65.065Z" fill="#FFBE9D"/>
<path d="M127.5 77.645C127.503 77.9401 127.391 78.2247 127.187 78.4384C126.984 78.6522 126.705 78.7783 126.41 78.79C126.268 78.8023 126.124 78.786 125.988 78.7423C125.851 78.6985 125.725 78.628 125.616 78.535C125.507 78.4419 125.418 78.3281 125.353 78.2002C125.289 78.0723 125.25 77.9329 125.24 77.79C125.236 77.4945 125.348 77.2092 125.552 76.9951C125.756 76.7811 126.035 76.6554 126.33 76.645C126.473 76.6327 126.617 76.6489 126.753 76.6927C126.89 76.7365 127.016 76.8069 127.125 76.9C127.234 76.9931 127.323 77.1069 127.387 77.2348C127.452 77.3627 127.49 77.5021 127.5 77.645Z" fill="#263238"/>
<path d="M127.469 75.845C127.329 75.995 126.469 75.345 125.249 75.345C124.029 75.345 123.134 75.965 122.999 75.815C122.934 75.75 123.079 75.48 123.469 75.195C123.996 74.8285 124.623 74.6345 125.264 74.64C125.899 74.6363 126.519 74.8341 127.034 75.205C127.409 75.5 127.539 75.78 127.469 75.845Z" fill="#263238"/>
<path d="M115.774 77.645C115.777 77.9401 115.664 78.2247 115.461 78.4384C115.257 78.6522 114.979 78.7783 114.684 78.79C114.541 78.8023 114.397 78.786 114.261 78.7423C114.125 78.6985 113.998 78.628 113.889 78.535C113.781 78.4419 113.691 78.3281 113.627 78.2002C113.562 78.0723 113.524 77.9329 113.514 77.79C113.51 77.4945 113.621 77.2092 113.825 76.9951C114.029 76.7811 114.308 76.6554 114.604 76.645C114.746 76.6327 114.89 76.6489 115.027 76.6927C115.163 76.7365 115.289 76.8069 115.398 76.9C115.507 76.9931 115.596 77.1069 115.661 77.2348C115.725 77.3627 115.764 77.5021 115.774 77.645Z" fill="#263238"/>
<path d="M115.5 76.0999C115.36 76.2499 114.5 75.5999 113.28 75.5999C112.06 75.5999 111.165 76.2199 111.035 76.0699C110.97 76.0049 111.11 75.7349 111.5 75.4499C112.026 75.0825 112.653 74.8869 113.295 74.8899C113.93 74.8877 114.55 75.0873 115.065 75.4599C115.415 75.7649 115.545 76.0349 115.5 76.0999Z" fill="#263238"/>
<path d="M119.925 85.1401C119.925 85.0701 120.675 84.9401 121.925 84.7801C122.235 84.7451 122.53 84.6801 122.585 84.4701C122.608 84.1477 122.535 83.8259 122.375 83.545L121.445 81.1751C120.16 77.8001 119.225 75.025 119.365 74.975C119.505 74.925 120.655 77.62 121.94 80.975L122.83 83.3601C123.024 83.7356 123.083 84.1665 122.995 84.5801C122.952 84.6891 122.884 84.787 122.797 84.8665C122.711 84.9461 122.608 85.0054 122.495 85.0401C122.333 85.085 122.164 85.1085 121.995 85.1101C120.695 85.2001 119.93 85.2101 119.925 85.1401Z" fill="#263238"/>
<path d="M120.799 99.5799C116.635 99.6518 112.533 98.5665 108.949 96.4449C108.949 96.4449 111.834 102.515 120.684 101.665L120.799 99.5799Z" fill="#EB996E"/>
<path d="M119.414 88.08C119.179 87.7841 118.871 87.5541 118.52 87.4122C118.17 87.2703 117.789 87.2213 117.414 87.27C117.145 87.2941 116.883 87.3726 116.645 87.5006C116.407 87.6287 116.197 87.8036 116.029 88.015C115.866 88.2189 115.77 88.4679 115.754 88.7283C115.738 88.9886 115.803 89.2475 115.939 89.47C116.135 89.6896 116.392 89.8452 116.677 89.9165C116.963 89.9878 117.263 89.9716 117.539 89.87C118.115 89.6654 118.643 89.3474 119.094 88.935C119.232 88.8383 119.351 88.7161 119.444 88.575C119.489 88.5078 119.514 88.4286 119.514 88.3475C119.514 88.2663 119.489 88.1871 119.444 88.12" fill="#EB996E"/>
<path d="M116.335 86C116.535 86 116.54 87.315 117.675 88.25C118.81 89.185 120.22 89.04 120.23 89.25C120.23 89.335 119.915 89.51 119.32 89.525C118.544 89.5391 117.788 89.2788 117.185 88.79C116.608 88.318 116.237 87.6404 116.15 86.9C116.095 86.315 116.245 86 116.335 86Z" fill="#263238"/>
<path d="M115.999 73.96C115.879 74.295 114.659 74.14 113.229 74.315C111.799 74.49 110.639 74.885 110.449 74.585C110.364 74.445 110.564 74.13 111.029 73.81C111.65 73.411 112.353 73.1586 113.086 73.0719C113.819 72.9853 114.562 73.0667 115.259 73.31C115.804 73.545 116.069 73.805 115.999 73.96Z" fill="#263238"/>
<path d="M126.999 72.315C126.784 72.59 125.944 72.315 124.929 72.315C123.914 72.315 123.064 72.505 122.869 72.215C122.779 72.075 122.914 71.8 123.289 71.535C123.79 71.2211 124.374 71.0626 124.966 71.0795C125.557 71.0964 126.131 71.2879 126.614 71.63C126.999 71.895 127.104 72.18 126.999 72.315Z" fill="#263238"/>
<path d="M97.1943 94.155C98.4134 94.4014 99.6737 94.3545 100.871 94.0181C102.069 93.6816 103.169 93.0652 104.081 92.2198C104.993 91.3744 105.692 90.3242 106.118 89.1558C106.545 87.9874 106.687 86.7343 106.534 85.5C106.259 83.325 105.089 81.12 105.844 79.06C106.844 76.345 110.649 75.51 111.659 72.795C112.244 71.22 111.719 69.375 112.384 67.83C113.009 66.38 114.539 65.545 116.029 65.005C117.519 64.465 119.109 64.095 120.359 63.125C121.609 62.155 122.384 60.325 121.579 58.96C114.976 59.7523 108.49 61.3284 102.259 63.655C100.814 64.195 99.2993 64.845 98.4443 66.125C97.5443 67.485 97.5893 69.235 97.6643 70.865C98.0343 78.805 96.8243 86.24 97.1943 94.18" fill="#263238"/>
<path d="M95.09 91.6649C95.0396 91.6574 94.9907 91.6422 94.945 91.6199C94.8023 91.5702 94.6662 91.503 94.54 91.4199C94.0529 91.1048 93.6701 90.6525 93.44 90.1199C93.0616 89.2782 92.96 88.3381 93.15 87.4349C93.4511 86.2616 93.9981 85.1657 94.755 84.2199C95.53 83.1399 96.515 82.0449 97.185 80.6499C97.5422 79.9411 97.7418 79.1632 97.77 78.3699C97.7411 77.5279 97.5721 76.6965 97.27 75.9099C96.933 75.0596 96.755 74.1546 96.745 73.2399C96.7934 72.2613 97.0807 71.3094 97.5819 70.4674C98.0831 69.6255 98.7828 68.9191 99.62 68.4099C100.518 67.92 101.514 67.6365 102.535 67.5799C103.523 67.5315 104.502 67.3636 105.45 67.0799C106.34 66.7429 107.071 66.0847 107.5 65.2349C107.908 64.399 108.233 63.5247 108.47 62.6249C108.723 61.7617 109.058 60.9245 109.47 60.1249C110.222 58.609 111.367 57.3226 112.785 56.3999C114.037 55.6125 115.503 55.2318 116.98 55.3099C118.204 55.3732 119.369 55.8511 120.285 56.6649C120.968 57.2787 121.476 58.0617 121.76 58.9349C121.944 59.4815 122.014 60.0602 121.965 60.6349C121.955 60.8348 121.921 61.0328 121.865 61.2249C121.865 61.2249 121.9 61.0199 121.915 60.6299C121.939 60.0641 121.854 59.4988 121.665 58.9649C121.321 57.9824 120.689 57.126 119.852 56.5072C119.014 55.8884 118.01 55.5357 116.97 55.4949C115.534 55.4317 114.113 55.8122 112.9 56.5849C111.52 57.492 110.408 58.7524 109.68 60.2349C109.276 61.0347 108.951 61.872 108.71 62.7349C108.466 63.651 108.131 64.5404 107.71 65.3899C107.478 65.8296 107.176 66.2282 106.815 66.5699C106.442 66.9154 106.003 67.1823 105.525 67.3549C104.551 67.6552 103.543 67.8332 102.525 67.8849C101.541 67.9368 100.581 68.2084 99.715 68.6799C98.9147 69.1655 98.2453 69.8393 97.7651 70.6429C97.2849 71.4464 97.0085 72.3551 96.96 73.2899C96.9689 74.1764 97.1383 75.0539 97.46 75.8799C97.7782 76.6906 97.9557 77.5496 97.985 78.4199C97.9513 79.2453 97.7398 80.0538 97.365 80.7899C96.665 82.2199 95.67 83.2899 94.89 84.3749C94.1372 85.294 93.5884 86.3626 93.28 87.5099C93.0807 88.3829 93.163 89.2966 93.515 90.1199C93.7313 90.6445 94.0919 91.097 94.555 91.4249C94.89 91.5949 95.095 91.6449 95.09 91.6649Z" fill="#455A64"/>
<path d="M120.785 53.11C120.907 53.119 121.024 53.1548 121.13 53.215C121.43 53.3423 121.711 53.5106 121.965 53.715C122.836 54.3909 123.413 55.3766 123.576 56.4671C123.739 57.5576 123.476 58.6689 122.84 59.57C122.655 59.8385 122.437 60.0822 122.19 60.295C122.01 60.445 121.9 60.51 121.89 60.495C122.172 60.1755 122.437 59.8417 122.685 59.495C123.249 58.6164 123.475 57.5633 123.321 56.5308C123.167 55.4984 122.645 54.5566 121.85 53.88C121.51 53.603 121.155 53.3459 120.785 53.11Z" fill="#455A64"/>
<path d="M140.375 113.795C140.48 113.488 140.565 113.174 140.63 112.855C140.747 111.982 140.595 111.094 140.195 110.31C139.578 109.159 138.597 108.244 137.405 107.71C136.707 107.38 135.978 107.12 135.23 106.935C134.45 106.735 133.625 106.57 132.8 106.3C131.969 106.074 131.204 105.656 130.565 105.08C129.992 104.507 129.622 103.762 129.51 102.96C129.375 102.215 129.33 101.51 129.165 100.88C129.017 100.297 128.742 99.7542 128.36 99.29C127.8 98.61 127.058 98.1049 126.22 97.835C125.625 97.655 125.27 97.655 125.27 97.625C125.354 97.6165 125.44 97.6165 125.525 97.625C125.769 97.6419 126.012 97.6803 126.25 97.74C127.126 97.9818 127.91 98.4818 128.5 99.175C128.911 99.6543 129.21 100.22 129.375 100.83C129.555 101.485 129.61 102.2 129.75 102.92C129.852 103.679 130.204 104.382 130.75 104.92C131.363 105.464 132.093 105.86 132.885 106.075C133.69 106.335 134.515 106.505 135.3 106.71C136.058 106.896 136.796 107.16 137.5 107.5C138.731 108.064 139.735 109.028 140.35 110.235C140.75 111.055 140.879 111.981 140.72 112.88C140.672 113.12 140.596 113.353 140.495 113.575C140.462 113.652 140.422 113.726 140.375 113.795Z" fill="#455A64"/>
<path d="M101.915 98.135C97.4154 96.935 93.5654 92.5499 91.9954 88.1849C90.4254 83.8199 90.4254 79.0549 90.8304 74.4349C91.1204 71.0899 91.7104 67.5499 93.9304 65.03C97.2804 61.23 100.93 59.29 105.97 59.45" fill="#263238"/>
<path d="M128.065 107.885L123.89 106.835C124.345 106.522 124.677 106.06 124.828 105.529C124.98 104.998 124.941 104.431 124.72 103.925C124.456 103.277 124.018 102.713 123.456 102.296C122.893 101.879 122.227 101.624 121.53 101.56L102.5 99.41C102.167 99.3657 101.829 99.4342 101.54 99.6046C101.251 99.775 101.027 100.037 100.905 100.35C100.062 102.497 100.033 104.263 100.82 105.65H100.73L97.0598 106.38L90.8398 161.25L131.58 159.345L128.065 107.885Z" fill="#F5F5F5"/>
<path d="M122.075 107.045C121.825 107.118 121.569 107.168 121.31 107.195C120.81 107.275 120.095 107.36 119.205 107.45C114.548 107.883 109.852 107.649 105.26 106.755C104.38 106.58 103.675 106.42 103.19 106.29C102.936 106.241 102.686 106.167 102.445 106.07C102.704 106.089 102.96 106.131 103.21 106.195C103.71 106.29 104.415 106.425 105.295 106.575C109.882 107.364 114.548 107.596 119.19 107.265C120.08 107.205 120.8 107.14 121.3 107.09C121.557 107.055 121.816 107.04 122.075 107.045Z" fill="#263238"/>
<path d="M103.66 115.765C104.061 114.933 104.538 114.139 105.085 113.395C105.563 112.604 106.113 111.859 106.73 111.17C106.329 112.003 105.85 112.797 105.3 113.54C104.825 114.332 104.276 115.077 103.66 115.765Z" fill="#E0E0E0"/>
<path d="M116.79 116.695C115.519 115.39 114.376 113.967 113.375 112.445C114.041 113.068 114.647 113.753 115.185 114.49C115.79 115.171 116.328 115.91 116.79 116.695Z" fill="#E0E0E0"/>
<path d="M110.689 123.67C110.401 122.781 110.195 121.867 110.074 120.94C109.866 120.029 109.747 119.099 109.719 118.165C110.007 119.054 110.213 119.968 110.334 120.895C110.536 121.807 110.655 122.736 110.689 123.67Z" fill="#E0E0E0"/>
<path d="M120.714 124.1C120.008 124.978 119.236 125.8 118.404 126.56C117.632 127.383 116.796 128.143 115.904 128.835C116.61 127.957 117.382 127.134 118.214 126.375C118.99 125.556 119.826 124.795 120.714 124.1Z" fill="#E0E0E0"/>
<path d="M107.269 133.45C105.426 132.349 103.925 130.758 102.934 128.855C103.004 128.81 103.769 130.01 104.974 131.275C106.179 132.54 107.319 133.385 107.269 133.45Z" fill="#E0E0E0"/>
<path d="M111.59 140.67C111.59 140.745 110.45 141.11 109.13 141.815C107.81 142.52 106.845 143.26 106.795 143.195C107.424 142.521 108.176 141.973 109.01 141.58C109.803 141.113 110.679 140.804 111.59 140.67Z" fill="#E0E0E0"/>
<path d="M118.615 141.135C118.317 140.883 118.05 140.596 117.82 140.28C117.36 139.73 116.745 138.945 116.105 138.05C115.465 137.155 114.925 136.32 114.55 135.7C114.327 135.38 114.142 135.034 114 134.67C114.266 134.955 114.502 135.267 114.705 135.6L116.32 137.9L117.965 140.17C118.215 140.468 118.433 140.791 118.615 141.135Z" fill="#E0E0E0"/>
<path d="M119.319 147.295C118.347 147.636 117.341 147.87 116.319 147.995C115.308 148.206 114.277 148.308 113.244 148.3C114.243 148.049 115.257 147.862 116.279 147.74C117.283 147.532 118.298 147.383 119.319 147.295Z" fill="#E0E0E0"/>
<path d="M107.945 106.27C107.91 106.27 108.15 105.97 108.355 105.44C108.609 104.747 108.684 104 108.575 103.27C108.451 102.534 108.234 101.817 107.93 101.135C107.782 100.856 107.668 100.561 107.59 100.255C107.799 100.495 107.967 100.767 108.09 101.06C108.454 101.738 108.702 102.471 108.825 103.23C108.946 104.005 108.84 104.799 108.52 105.515C108.408 105.819 108.208 106.082 107.945 106.27Z" fill="#E0E0E0"/>
<path d="M115.555 102.16C115.912 102.651 116.166 103.208 116.305 103.799C116.443 104.39 116.462 105.002 116.36 105.6C116.285 105.6 116.275 104.805 116.05 103.86C115.825 102.915 115.5 102.2 115.555 102.16Z" fill="#E0E0E0"/>
<path d="M149.879 141.255L168.829 107.97L171.114 102.195C171.114 102.195 177.024 89.495 177.434 88.195C177.909 86.695 178.744 86.575 179.284 86.785C180.124 87.12 180.394 88.37 180.024 89.665C179.894 90.11 177.599 97.09 177.599 97.09C178.216 96.558 178.871 96.0717 179.559 95.635C181.014 94.635 183.679 94.685 186.149 95.565C188.619 96.445 189.229 96.91 188.934 97.88C188.869 98.062 188.763 98.2271 188.626 98.363C188.488 98.4989 188.322 98.6021 188.139 98.665C187.557 98.9079 186.905 98.9221 186.314 98.705C182.344 97.355 180.584 99.145 180.584 99.145L180.289 99.9C180.289 99.9 183.289 98.945 184.969 100.295C185.22 100.493 185.43 100.738 185.589 101.015C186.132 101.193 186.62 101.509 187.004 101.933C187.388 102.357 187.654 102.874 187.777 103.433C187.9 103.991 187.875 104.572 187.704 105.118C187.533 105.664 187.223 106.156 186.804 106.545C186.622 106.753 186.381 106.9 186.113 106.968C185.845 107.036 185.563 107.021 185.304 106.925C185.061 106.76 184.866 106.534 184.739 106.27C184.657 106.138 184.565 106.012 184.464 105.895L183.334 107.895C183.334 107.895 180.549 112.245 179.549 114.28L166.499 149.045C166.07 150.189 165.417 151.237 164.579 152.126C163.74 153.016 162.733 153.729 161.616 154.225C160.499 154.72 159.294 154.989 158.072 155.014C156.85 155.039 155.635 154.82 154.499 154.37C153.272 153.886 152.164 153.144 151.25 152.194C150.335 151.245 149.635 150.11 149.197 148.866C148.759 147.623 148.593 146.3 148.711 144.987C148.828 143.673 149.227 142.401 149.879 141.255Z" fill="#FFBE9D"/>
<path d="M170.135 107.855C170.805 108.295 171.73 107.995 172.33 107.475C172.93 106.955 173.33 106.24 173.91 105.675C175.595 103.99 178.41 103.83 180.025 102.065C180.25 101.82 180.45 101.445 180.255 101.175C180.06 100.905 179.7 100.955 179.4 101.015L171.645 102.55" fill="#FFBE9D"/>
<path d="M171.645 102.55C171.907 102.432 172.182 102.348 172.465 102.3C173 102.165 173.78 101.99 174.74 101.8L178.12 101.085L179.12 100.88C179.506 100.739 179.931 100.753 180.305 100.92C180.412 100.999 180.493 101.109 180.538 101.234C180.582 101.36 180.589 101.496 180.555 101.625C180.504 101.837 180.401 102.033 180.255 102.195C179.994 102.484 179.701 102.743 179.38 102.965C178.09 103.86 176.675 104.225 175.545 104.82C175.006 105.075 174.51 105.412 174.075 105.82C173.675 106.205 173.36 106.645 173.03 107.02C172.793 107.351 172.486 107.626 172.131 107.825C171.776 108.025 171.382 108.144 170.975 108.175C170.38 108.175 170.135 107.88 170.155 107.875C170.416 107.964 170.69 108.007 170.965 108C171.334 107.939 171.686 107.802 172 107.598C172.313 107.394 172.58 107.128 172.785 106.815C173.106 106.378 173.448 105.957 173.81 105.555C174.264 105.106 174.785 104.731 175.355 104.445C176.52 103.815 177.93 103.445 179.12 102.595C179.407 102.391 179.672 102.158 179.91 101.9C180.13 101.655 180.205 101.36 180.05 101.275C179.895 101.19 179.55 101.23 179.205 101.3L178.205 101.485L174.805 102.11C173.835 102.28 173.05 102.41 172.505 102.49C172.224 102.555 171.933 102.575 171.645 102.55Z" fill="#EB996E"/>
<path d="M180.184 99.91C180.382 99.4459 180.687 99.0349 181.074 98.71C181.507 98.3855 182.033 98.21 182.574 98.21C183.254 98.2141 183.929 98.3255 184.574 98.54C185.233 98.7624 185.913 98.9166 186.604 99C187.184 99.0666 187.771 98.9768 188.304 98.74C188.487 98.6554 188.648 98.529 188.774 98.371C188.9 98.213 188.987 98.0278 189.029 97.83C189.067 97.6909 189.067 97.5442 189.029 97.405C188.999 97.405 188.999 97.555 188.924 97.805C188.869 97.9735 188.778 98.128 188.657 98.2575C188.536 98.3871 188.388 98.4886 188.224 98.555C187.715 98.7442 187.167 98.806 186.629 98.735C185.958 98.6295 185.299 98.4621 184.659 98.235C183.991 98.0152 183.292 97.9071 182.589 97.915C181.999 97.9288 181.43 98.1401 180.974 98.515C180.671 98.7668 180.439 99.0923 180.299 99.46C180.174 99.755 180.164 99.905 180.184 99.91Z" fill="#EB996E"/>
<path d="M180.159 89.165C179.963 89.6123 179.806 90.0757 179.689 90.55C179.394 91.51 179.044 92.65 178.654 93.91C178.264 95.17 177.879 96.3 177.569 97.255C177.388 97.708 177.249 98.1766 177.154 98.655C177.403 98.2339 177.607 97.7882 177.764 97.325C178.094 96.485 178.514 95.325 178.934 94C179.354 92.675 179.679 91.5 179.889 90.605C180.03 90.1359 180.12 89.6532 180.159 89.165Z" fill="#EB996E"/>
<path d="M181.254 102C181.406 102.022 181.561 102.022 181.714 102C181.906 101.967 182.102 101.976 182.291 102.026C182.479 102.076 182.654 102.166 182.804 102.29C182.891 102.382 182.953 102.494 182.983 102.617C183.014 102.74 183.012 102.868 182.979 102.99C182.898 103.297 182.779 103.593 182.624 103.87C182.424 104.218 182.358 104.627 182.439 105.02C182.507 105.228 182.623 105.418 182.778 105.573C182.932 105.728 183.121 105.846 183.329 105.915C183.534 105.98 183.75 106.002 183.964 105.981C184.178 105.959 184.386 105.895 184.574 105.79C184.924 105.611 185.212 105.331 185.399 104.985C185.669 104.415 185.855 103.809 185.949 103.185C186.022 102.766 186.022 102.339 185.949 101.92C185.933 101.763 185.872 101.613 185.774 101.49C185.749 101.49 185.814 101.65 185.839 101.935C185.86 102.343 185.825 102.752 185.734 103.15C185.615 103.741 185.42 104.314 185.154 104.855C184.991 105.159 184.732 105.402 184.417 105.543C184.103 105.685 183.75 105.719 183.414 105.64C183.249 105.587 183.099 105.496 182.976 105.374C182.853 105.253 182.759 105.104 182.704 104.94C182.639 104.613 182.694 104.274 182.859 103.985C183.014 103.682 183.132 103.362 183.209 103.03C183.242 102.871 183.235 102.707 183.187 102.552C183.138 102.397 183.051 102.257 182.934 102.145C182.76 102.007 182.557 101.912 182.34 101.867C182.123 101.822 181.898 101.828 181.684 101.885C181.535 101.9 181.39 101.939 181.254 102Z" fill="#EB996E"/>
<path d="M184.525 105.5C184.525 105.5 184.43 105.63 184.44 105.91C184.454 106.107 184.514 106.297 184.615 106.466C184.715 106.635 184.854 106.779 185.02 106.885C185.277 107.032 185.567 107.11 185.863 107.11C186.158 107.11 186.449 107.032 186.705 106.885C187.322 106.529 187.777 105.949 187.975 105.265C188.193 104.596 188.193 103.874 187.975 103.205C187.798 102.664 187.478 102.18 187.05 101.805C186.768 101.553 186.441 101.356 186.085 101.225C185.959 101.164 185.82 101.134 185.68 101.135C186.126 101.351 186.54 101.627 186.91 101.955C187.33 102.364 187.626 102.883 187.766 103.452C187.905 104.021 187.883 104.618 187.7 105.175C187.521 105.789 187.12 106.315 186.575 106.65C186.357 106.778 186.11 106.849 185.858 106.856C185.605 106.863 185.355 106.806 185.13 106.69C184.981 106.603 184.852 106.486 184.752 106.345C184.652 106.204 184.583 106.044 184.55 105.875C184.5 105.655 184.55 105.5 184.525 105.5Z" fill="#EB996E"/>
<path d="M178.215 108.64C178.017 108.506 177.784 108.435 177.545 108.435C176.935 108.376 176.323 108.522 175.805 108.85L176.02 108.995C176.088 108.665 176.134 108.331 176.16 107.995C176.335 106.065 175.72 104.575 175.66 104.615C175.853 105.722 175.925 106.847 175.875 107.97C175.851 108.29 175.809 108.609 175.75 108.925L175.69 109.25L175.965 109.065C176.434 108.759 176.981 108.596 177.54 108.595C177.955 108.605 178.205 108.675 178.215 108.64Z" fill="#EB996E"/>
<path d="M182.16 96.7799C182.08 96.7799 182.19 97.3799 182.72 97.8399C183.25 98.2999 183.845 98.3399 183.845 98.2549C183.845 98.1699 183.37 98.0249 182.915 97.6199C182.46 97.2149 182.24 96.7499 182.16 96.7799Z" fill="#EB996E"/>
<path d="M123 168.875L142.825 169.07L139.5 154.685L140.615 157.4C141.643 159.907 143.393 162.051 145.643 163.56C147.893 165.069 150.541 165.875 153.25 165.875C159.52 165.875 163.855 161.21 166.505 155.53C172.705 142.25 178.68 120.865 178.68 120.865L166.595 110.245C157.845 126.795 149.625 141.165 149.625 141.165C149.625 141.165 147.25 133.95 145.415 127.51C143.58 121.07 143.595 117.69 140.78 114.48C136.445 109.54 130.28 108.315 124.54 106.835L124.325 133.555L123 168.875Z" fill="#3DBB47"/>
<path d="M100.314 149L136.414 156L138.169 169.87H82.8192C81.3041 169.889 79.8017 169.591 78.408 168.997C77.0143 168.402 75.7598 167.523 74.7248 166.417C73.6897 165.31 72.8967 164 72.3964 162.57C71.8961 161.139 71.6995 159.62 71.8192 158.11C72.6142 148 73.4792 135.55 74.1392 130.285C74.6392 126.18 76.2892 121.935 78.2242 118.285C81.0192 113.025 90.3342 106.285 98.4992 105.935L100.044 140.32" fill="#3DBB47"/>
<g opacity="0.4">
<path d="M123 168.875L142.825 169.07L139.5 154.685L140.615 157.4C141.643 159.907 143.393 162.051 145.643 163.56C147.893 165.069 150.541 165.875 153.25 165.875C159.52 165.875 163.855 161.21 166.505 155.53C172.705 142.25 178.68 120.865 178.68 120.865L166.595 110.245C157.845 126.795 149.625 141.165 149.625 141.165C149.625 141.165 147.25 133.95 145.415 127.51C143.58 121.07 143.595 117.69 140.78 114.48C136.445 109.54 130.28 108.315 124.54 106.835L124.325 133.555L123 168.875Z" fill="black"/>
<path d="M100.314 149L132.874 154.97C133.538 155.093 134.15 155.41 134.633 155.88C135.116 156.351 135.449 156.955 135.589 157.615L138.169 169.9H82.8192C81.3041 169.919 79.8017 169.621 78.408 169.027C77.0143 168.432 75.7598 167.553 74.7248 166.447C73.6897 165.34 72.8967 164.03 72.3964 162.6C71.8961 161.169 71.6995 159.65 71.8192 158.14C72.6142 148.03 73.4792 135.58 74.1392 130.315C74.6392 126.21 76.2892 121.965 78.2242 118.315C81.0192 113.055 90.3342 106.315 98.4992 105.965L100.044 140.35" fill="black"/>
</g>
<path d="M93.44 147.97C93.4271 147.86 93.4271 147.75 93.44 147.64C93.44 147.395 93.44 147.08 93.44 146.695C93.44 145.84 93.44 144.66 93.44 143.195C93.44 140.26 93.385 136.195 93.16 131.73C93.045 129.49 92.9 127.36 92.745 125.43C92.6725 123.717 92.4296 122.015 92.02 120.35C91.734 119.239 91.1892 118.211 90.43 117.35C90.136 117.05 89.8255 116.766 89.5 116.5C89.8817 116.696 90.2281 116.955 90.525 117.265C91.3345 118.119 91.9172 119.163 92.22 120.3C92.6567 121.978 92.9181 123.698 93 125.43C93.17 127.365 93.32 129.495 93.435 131.735C93.665 136.235 93.69 140.28 93.64 143.235C93.61 144.705 93.57 145.895 93.535 146.735L93.48 147.68C93.4781 147.778 93.4646 147.875 93.44 147.97Z" fill="#263238"/>
<path d="M135.714 157C135.334 156.579 134.89 156.22 134.399 155.935C133.816 155.617 133.197 155.37 132.554 155.2C131.809 154.985 130.934 154.82 129.969 154.625C126.109 153.835 120.784 152.74 114.884 151.625C108.984 150.51 103.614 149.625 99.7295 149.005L95.1245 148.27L93.8745 148.06C93.7272 148.042 93.5818 148.012 93.4395 147.97C93.587 147.971 93.7342 147.984 93.8794 148.01L95.1395 148.17C96.2295 148.315 97.8094 148.535 99.7544 148.825C103.649 149.405 109.024 150.265 114.929 151.37C120.834 152.475 126.159 153.595 130.004 154.425C130.969 154.635 131.844 154.815 132.594 155.045C133.244 155.229 133.867 155.494 134.449 155.835C134.824 156.046 135.161 156.316 135.449 156.635C135.526 156.714 135.597 156.799 135.659 156.89C135.694 156.95 135.719 157 135.714 157Z" fill="#263238"/>
<path d="M93.5503 147.97C93.5503 148.015 92.8853 148.17 91.8553 148.59C91.254 148.838 90.6694 149.126 90.1053 149.45C89.4232 149.857 88.773 150.315 88.1603 150.82C87.5645 151.336 87.0095 151.898 86.5003 152.5C86.0813 152.996 85.6971 153.521 85.3503 154.07C84.7603 155.015 84.4903 155.655 84.4453 155.635C84.4764 155.474 84.5285 155.318 84.6003 155.17C84.7707 154.759 84.9677 154.36 85.1903 153.975C85.5241 153.404 85.9002 152.859 86.3153 152.345C87.3417 151.086 88.5971 150.032 90.0153 149.24C90.5898 148.916 91.1902 148.64 91.8103 148.415C92.2274 148.259 92.6552 148.134 93.0903 148.04C93.2396 147.995 93.3945 147.972 93.5503 147.97Z" fill="#263238"/>
<path d="M140.165 156.61C140.131 156.497 140.106 156.382 140.09 156.265C140.05 156.015 139.995 155.685 139.93 155.265C139.79 154.4 139.605 153.15 139.395 151.6C138.975 148.505 138.465 144.215 138.035 139.465C137.605 134.715 137.35 130.405 137.21 127.28C137.14 125.72 137.1 124.455 137.08 123.58C137.08 123.163 137.08 122.83 137.08 122.58C137.07 122.464 137.07 122.346 137.08 122.23C137.107 122.345 137.121 122.462 137.12 122.58L137.185 123.58C137.24 124.48 137.31 125.735 137.4 127.27C137.585 130.39 137.875 134.695 138.3 139.44C138.725 144.185 139.21 148.475 139.585 151.575C139.77 153.105 139.925 154.35 140.035 155.25C140.08 155.665 140.12 155.995 140.15 156.25C140.171 156.369 140.176 156.49 140.165 156.61Z" fill="#263238"/>
<path d="M152.135 151.235C152.135 151.235 152.02 151.125 151.845 150.905C151.603 150.586 151.381 150.252 151.18 149.905C149.839 147.615 149.22 144.973 149.405 142.325C149.43 141.927 149.484 141.531 149.565 141.14C149.583 140.994 149.62 140.851 149.675 140.715C149.72 140.715 149.625 141.335 149.59 142.335C149.507 144.945 150.11 147.531 151.34 149.835C151.81 150.7 152.175 151.205 152.135 151.235Z" fill="#263238"/>
<path d="M93.2949 129.39C93.2949 129.39 93.2299 129.415 93.1099 129.43C92.9295 129.459 92.7475 129.477 92.5649 129.485C91.8942 129.513 91.2226 129.459 90.5649 129.325C89.5881 129.129 88.6345 128.83 87.7199 128.435C86.6849 128.005 85.5849 127.435 84.4349 126.88C83.3584 126.339 82.2437 125.878 81.0999 125.5C80.1717 125.188 79.207 124.998 78.2299 124.935C77.3249 124.906 76.4203 125.008 75.5449 125.24C75.5987 125.204 75.6577 125.177 75.7199 125.16C75.8819 125.089 76.0491 125.031 76.2199 124.985C76.8717 124.81 77.5456 124.733 78.2199 124.755C79.2182 124.786 80.2074 124.955 81.1599 125.255C82.3185 125.628 83.4454 126.093 84.5299 126.645C85.6849 127.215 86.7749 127.775 87.7949 128.21C88.6929 128.609 89.6272 128.92 90.5849 129.14C91.4764 129.322 92.3852 129.406 93.2949 129.39Z" fill="#FAFAFA"/>
<path d="M99.4986 128.175C98.5381 128.467 97.5546 128.678 96.5586 128.805C95.5719 129.02 94.5678 129.145 93.5586 129.18C94.5191 128.888 95.5026 128.677 96.4986 128.55C97.4853 128.335 98.4893 128.209 99.4986 128.175Z" fill="#FAFAFA"/>
<path d="M93.0703 138.905C92.8402 139.035 92.5972 139.14 92.3453 139.22C91.8703 139.405 91.1753 139.655 90.3103 139.935C88.0484 140.661 85.7397 141.232 83.4003 141.645C82.0303 141.885 80.7153 142.06 79.5153 142.18C78.451 142.318 77.3754 142.346 76.3053 142.265C75.5794 142.206 74.8724 142.004 74.2253 141.67C74.0494 141.579 73.882 141.472 73.7253 141.35C73.6676 141.311 73.6155 141.263 73.5703 141.21C73.5703 141.21 73.8103 141.365 74.2653 141.58C74.9134 141.873 75.6102 142.042 76.3203 142.08C77.3774 142.135 78.4372 142.088 79.4853 141.94C80.6803 141.805 81.9853 141.625 83.3503 141.385C85.6787 140.972 87.9823 140.43 90.2503 139.76C91.1203 139.5 91.8203 139.26 92.3053 139.125C92.5545 139.033 92.8102 138.959 93.0703 138.905Z" fill="#FAFAFA"/>
<path d="M99.3348 141.54C98.4339 141.683 97.5216 141.742 96.6098 141.715C95.7008 141.772 94.7884 141.744 93.8848 141.63C94.7857 141.487 95.698 141.428 96.6098 141.455C97.5188 141.398 98.4311 141.426 99.3348 141.54Z" fill="#FAFAFA"/>
<path d="M73.6055 164.32C73.6113 164.228 73.6298 164.137 73.6605 164.05C73.7105 163.85 73.7805 163.605 73.8605 163.3L74.0105 162.76C74.0755 162.565 74.1605 162.36 74.2405 162.135C74.4203 161.624 74.6272 161.124 74.8605 160.635L75.2655 159.78C75.4105 159.48 75.5955 159.19 75.7655 158.88C76.1426 158.224 76.5531 157.588 76.9955 156.975C79.0381 154.151 81.7014 151.833 84.7805 150.2C85.4501 149.846 86.1377 149.527 86.8405 149.245C87.1755 149.12 87.4855 148.975 87.8005 148.875L88.7055 148.59C89.2239 148.425 89.7515 148.29 90.2855 148.185C90.5205 148.135 90.7355 148.08 90.9355 148.045L91.4955 147.97L92.2655 147.875C92.355 147.862 92.446 147.862 92.5355 147.875C92.4502 147.908 92.3612 147.929 92.2705 147.94L91.5105 148.085L90.9605 148.18L90.3155 148.34C89.8555 148.465 89.3155 148.57 88.7605 148.78L87.8705 149.08C87.5605 149.185 87.2505 149.33 86.9255 149.46C86.233 149.747 85.5555 150.069 84.8955 150.425C83.3919 151.257 81.9764 152.238 80.6705 153.355C79.3806 154.493 78.2081 155.758 77.1705 157.13C76.7205 157.78 76.2755 158.39 75.9355 159.005C75.7605 159.31 75.5755 159.595 75.4355 159.89L75.0155 160.73C74.7305 161.26 74.5555 161.77 74.3655 162.23C74.2805 162.45 74.1905 162.655 74.1205 162.845L73.9455 163.375L73.7005 164.11C73.6765 164.183 73.6447 164.254 73.6055 164.32Z" fill="#FAFAFA"/>
<path d="M98.68 148.96C97.8437 149.686 97.1487 150.561 96.63 151.54C96.0846 152.61 95.6973 153.754 95.48 154.935C95.2214 156.388 95.0544 157.856 94.98 159.33C94.9177 160.815 94.7506 162.294 94.48 163.755C94.2351 164.953 93.8121 166.107 93.225 167.18C92.8329 167.899 92.3263 168.549 91.725 169.105C91.5612 169.257 91.3857 169.396 91.2 169.52C91.075 169.605 91.005 169.65 91 169.64C91.8514 168.93 92.5606 168.064 93.09 167.09C93.644 166.026 94.0414 164.888 94.27 163.71C94.5362 162.258 94.7032 160.79 94.77 159.315C94.8349 157.829 95.002 156.348 95.27 154.885C95.5028 153.687 95.9141 152.531 96.49 151.455C96.883 150.729 97.3894 150.071 97.99 149.505C98.1473 149.354 98.3144 149.214 98.49 149.085C98.5478 149.035 98.6116 148.993 98.68 148.96Z" fill="#FAFAFA"/>
<path d="M107.214 169.955C107.144 169.955 107.214 165.645 107.399 160.335C107.584 155.025 107.774 150.72 107.844 150.72C107.914 150.72 107.844 155.03 107.659 160.345C107.474 165.66 107.284 169.96 107.214 169.955Z" fill="#FAFAFA"/>
<path d="M120.784 169.215C120.689 169.015 120.616 168.805 120.564 168.59C120.482 168.344 120.414 168.093 120.359 167.84C120.294 167.545 120.204 167.21 120.149 166.84C119.993 165.958 119.904 165.065 119.884 164.17C119.834 161.97 120.173 159.778 120.884 157.695C121.173 156.847 121.526 156.021 121.939 155.225C122.104 154.88 122.289 154.59 122.439 154.33C122.566 154.104 122.706 153.885 122.859 153.675C122.97 153.484 123.103 153.306 123.254 153.145C123.299 153.17 122.754 153.945 122.099 155.31C121.71 156.106 121.376 156.928 121.099 157.77C120.414 159.832 120.076 161.993 120.099 164.165C120.11 165.05 120.178 165.934 120.304 166.81C120.554 168.3 120.834 169.2 120.784 169.215Z" fill="#FAFAFA"/>
<path d="M97.7398 113.955C97.7398 113.995 96.9498 113.65 95.6498 113.23C92.2638 112.137 88.6753 111.819 85.1498 112.3C83.7998 112.485 82.9748 112.695 82.9648 112.65C83.1441 112.564 83.3341 112.501 83.5298 112.465C84.053 112.32 84.5838 112.205 85.1199 112.12C88.6721 111.53 92.316 111.852 95.7098 113.055C96.2198 113.235 96.7204 113.44 97.2098 113.67C97.3976 113.743 97.5756 113.839 97.7398 113.955Z" fill="#FAFAFA"/>
<path d="M137.24 135C136.622 135.032 136.002 135.022 135.385 134.97C134.24 134.925 132.66 134.865 130.915 134.825C129.17 134.785 127.59 134.76 126.445 134.75C125.826 134.77 125.206 134.748 124.59 134.685C124.754 134.646 124.921 134.626 125.09 134.625C125.41 134.625 125.875 134.58 126.45 134.565C127.595 134.53 129.175 134.52 130.925 134.565C132.675 134.61 134.255 134.7 135.425 134.795C135.995 134.84 136.455 134.88 136.775 134.92C136.932 134.93 137.088 134.957 137.24 135Z" fill="#FAFAFA"/>
<path d="M147.109 133.105C147.109 133.15 146.484 133.365 145.509 133.845C142.958 135.1 140.798 137.025 139.259 139.415C138.669 140.33 138.384 140.94 138.344 140.915C138.372 140.757 138.426 140.605 138.504 140.465C138.679 140.068 138.879 139.682 139.104 139.31C139.837 138.074 140.758 136.959 141.834 136.005C142.906 135.048 144.119 134.261 145.429 133.67C145.824 133.492 146.23 133.338 146.644 133.21C146.794 133.155 146.95 133.12 147.109 133.105Z" fill="#FAFAFA"/>
<path d="M142.239 117.08C141.378 117.05 140.519 117.171 139.699 117.435C138.814 117.744 137.956 118.125 137.134 118.575C136.119 119.138 135.059 119.614 133.964 120C131.941 120.648 129.789 120.787 127.699 120.405C127.071 120.291 126.454 120.124 125.854 119.905C125.63 119.835 125.413 119.741 125.209 119.625C125.209 119.575 126.149 119.97 127.709 120.225C129.77 120.547 131.877 120.384 133.864 119.75C134.946 119.367 135.997 118.902 137.009 118.36C137.846 117.916 138.721 117.548 139.624 117.26C140.238 117.065 140.88 116.972 141.524 116.985C141.692 116.99 141.859 117.007 142.024 117.035C142.179 117.055 142.244 117.07 142.239 117.08Z" fill="#FAFAFA"/>
<path d="M139.745 150.59C139.563 150.705 139.369 150.798 139.165 150.865C138.975 150.945 138.74 151.04 138.46 151.13C138.18 151.22 137.865 151.34 137.51 151.43C136.672 151.663 135.821 151.84 134.96 151.96C133.906 152.097 132.842 152.152 131.78 152.125C130.717 152.086 129.659 151.967 128.615 151.77C127.767 151.599 126.931 151.37 126.115 151.085C125.76 150.975 125.455 150.84 125.185 150.73C124.915 150.62 124.685 150.515 124.495 150.425C124.296 150.342 124.106 150.238 123.93 150.115C123.93 150.07 124.775 150.47 126.175 150.91C126.994 151.168 127.829 151.375 128.675 151.53C130.743 151.913 132.857 151.977 134.945 151.72C135.797 151.615 136.642 151.458 137.475 151.25C138.885 150.89 139.73 150.545 139.745 150.59Z" fill="#FAFAFA"/>
<path d="M151.235 165.39C151.164 165.345 151.099 165.291 151.04 165.23C150.925 165.115 150.735 164.96 150.54 164.73C149.937 164.084 149.407 163.373 148.96 162.61C147.518 160.053 146.75 157.171 146.73 154.235C146.734 151.32 147.115 148.417 147.865 145.6C148.135 144.52 148.365 143.65 148.55 143.055C148.635 142.78 148.705 142.555 148.76 142.37C148.815 142.185 148.84 142.13 148.85 142.135C148.849 142.218 148.836 142.301 148.81 142.38C148.77 142.57 148.715 142.8 148.65 143.08C148.5 143.725 148.295 144.58 148.045 145.645C147.355 148.453 147.004 151.333 147 154.225C147.017 157.114 147.739 159.955 149.105 162.5C149.534 163.262 150.036 163.981 150.605 164.645C151 165.125 151.25 165.37 151.235 165.39Z" fill="#FAFAFA"/>
<path d="M169.429 148.41C168.63 147.776 167.738 147.27 166.784 146.91C165.74 146.549 164.67 146.27 163.584 146.075C162.234 145.847 160.898 145.542 159.584 145.16C157.21 144.388 155.043 143.085 153.249 141.35C152.707 140.827 152.206 140.263 151.749 139.665C151.584 139.455 151.474 139.28 151.394 139.165C151.314 139.05 151.279 138.985 151.289 138.98C151.482 139.175 151.662 139.382 151.829 139.6C152.309 140.171 152.825 140.71 153.374 141.215C155.176 142.888 157.321 144.148 159.659 144.91C160.96 145.29 162.28 145.6 163.614 145.84C164.71 146.05 165.787 146.35 166.834 146.735C167.541 147.002 168.205 147.373 168.804 147.835C168.967 147.958 169.121 148.093 169.264 148.24C169.389 148.35 169.439 148.405 169.429 148.41Z" fill="#FAFAFA"/>
<path d="M175.149 131.725C174.956 131.587 174.777 131.432 174.614 131.26C174.449 131.105 174.249 130.915 173.999 130.705C173.749 130.495 173.499 130.245 173.159 130.005C172.42 129.409 171.645 128.86 170.839 128.36C168.86 127.136 166.71 126.216 164.459 125.63C163.539 125.393 162.605 125.211 161.664 125.085C161.264 125.02 160.899 124.995 160.579 124.965C160.259 124.935 159.979 124.91 159.754 124.9C159.517 124.899 159.281 124.877 159.049 124.835C159.282 124.799 159.518 124.787 159.754 124.8C160.032 124.786 160.311 124.786 160.589 124.8C160.909 124.8 161.284 124.825 161.689 124.88C162.641 124.984 163.584 125.151 164.514 125.38C165.653 125.672 166.769 126.046 167.854 126.5C168.93 126.969 169.969 127.517 170.964 128.14C171.773 128.656 172.546 129.226 173.279 129.845C173.599 130.1 173.859 130.345 174.099 130.585C174.304 130.771 174.499 130.968 174.684 131.175C174.858 131.341 175.014 131.526 175.149 131.725Z" fill="#FAFAFA"/>
<path d="M131.4 108.775C131.106 108.971 130.786 109.124 130.45 109.23C129.661 109.539 128.85 109.79 128.025 109.98C127.202 110.174 126.367 110.307 125.525 110.38C125.177 110.433 124.823 110.433 124.475 110.38C124.475 110.3 126.06 110.17 127.975 109.715C129.89 109.26 131.37 108.7 131.4 108.775Z" fill="#FAFAFA"/>
<path d="M149.135 179.195C149.2 179.418 149.208 179.654 149.159 179.881C149.109 180.108 149.003 180.319 148.851 180.494C148.699 180.67 148.505 180.804 148.287 180.886C148.07 180.967 147.835 180.993 147.605 180.96C147.338 180.922 147.089 180.807 146.886 180.63C146.684 180.452 146.537 180.219 146.465 179.96L146.04 178.39H146.105C146.148 178.617 146.137 178.85 146.072 179.072C146.008 179.294 145.891 179.496 145.732 179.664C145.573 179.832 145.377 179.959 145.159 180.036C144.942 180.112 144.709 180.136 144.48 180.105C143.825 180.105 143.26 179.15 143.07 178.645C142.576 178.693 142.078 178.605 141.63 178.39C141.182 178.174 140.802 177.841 140.53 177.425L137.595 172.845L132.16 168.87L135.45 157.125L147.145 164.695C147.605 165.055 147.675 165.195 148.405 165.88L155.955 172.825C155.1 173.325 154.375 173.3 153.185 172.825C151.995 172.35 146.785 168.825 146.785 168.825L149.135 179.15" fill="#FFBE9D"/>
<path d="M139.13 169.535C139.13 169.535 139.265 169.595 139.475 169.74L139.865 170.01C140.05 170.126 140.218 170.268 140.365 170.43C140.538 170.629 140.673 170.858 140.765 171.105C140.855 171.37 140.95 171.64 141.05 171.925L141.69 173.805C142.135 175.145 142.525 176.355 142.795 177.24C142.965 177.709 143.094 178.193 143.18 178.685C142.953 178.239 142.765 177.774 142.62 177.295C142.305 176.425 141.885 175.225 141.44 173.89C141.225 173.225 141.015 172.59 140.82 172.005C140.73 171.715 140.645 171.44 140.56 171.18C140.485 170.951 140.371 170.736 140.225 170.545C140.098 170.389 139.954 170.248 139.795 170.125L139.435 169.82C139.22 169.65 139.12 169.55 139.13 169.535Z" fill="#EB996E"/>
<path d="M146.165 178.66C146.09 178.5 146.035 178.333 146 178.16L145.625 176.82C145.305 175.69 144.88 174.125 144.335 172.42C143.79 170.715 143.22 169.195 142.535 168.255C142.279 167.88 141.955 167.556 141.58 167.3C141.305 167.13 141.13 167.08 141.135 167.05C141.181 167.049 141.227 167.057 141.27 167.075C141.394 167.107 141.515 167.152 141.63 167.21C142.045 167.442 142.405 167.761 142.685 168.145C143.43 169.095 144.03 170.645 144.58 172.34C145.13 174.035 145.53 175.63 145.8 176.775C145.935 177.345 146.035 177.81 146.1 178.135C146.148 178.306 146.17 178.483 146.165 178.66Z" fill="#EB996E"/>
<path d="M149.185 179.37C149.095 179.204 149.026 179.028 148.98 178.845C148.855 178.445 148.7 177.96 148.515 177.385C148.135 176.15 147.63 174.44 147.085 172.55C146.54 170.66 146.085 169 145.71 167.7C145.581 167.218 145.301 166.791 144.91 166.48C144.752 166.378 144.585 166.291 144.41 166.22C144.459 166.208 144.511 166.208 144.56 166.22C144.7 166.251 144.834 166.307 144.955 166.385C145.392 166.685 145.714 167.124 145.87 167.63C146.28 168.865 146.765 170.575 147.32 172.465C147.875 174.355 148.345 176.08 148.68 177.325C148.83 177.905 148.96 178.4 149.06 178.825C149.121 179.002 149.163 179.184 149.185 179.37Z" fill="#EB996E"/>
<path d="M220.236 70.9449C220.236 71.2911 220.339 71.6294 220.531 71.9172C220.724 72.205 220.997 72.4293 221.317 72.5617C221.636 72.6942 221.988 72.7288 222.328 72.6613C222.667 72.5938 222.979 72.4271 223.224 72.1824C223.469 71.9376 223.635 71.6258 223.703 71.2864C223.77 70.9469 223.736 70.595 223.603 70.2753C223.471 69.9555 223.246 69.6822 222.959 69.4899C222.671 69.2976 222.332 69.1949 221.986 69.1949C221.522 69.1949 221.077 69.3793 220.749 69.7075C220.421 70.0357 220.236 70.4808 220.236 70.9449Z" fill="#455A64"/>
<path d="M214.98 72.6949C215.947 72.6949 216.73 71.9114 216.73 70.9449C216.73 69.9784 215.947 69.1949 214.98 69.1949C214.014 69.1949 213.23 69.9784 213.23 70.9449C213.23 71.9114 214.014 72.6949 214.98 72.6949Z" fill="#455A64"/>
<path d="M206.247 70.07C206.073 70.3697 205.993 70.7141 206.015 71.0595C206.038 71.4049 206.162 71.7359 206.373 72.0106C206.584 72.2853 206.871 72.4913 207.199 72.6027C207.527 72.714 207.88 72.7257 208.214 72.6361C208.549 72.5466 208.849 72.3599 209.077 72.0997C209.306 71.8394 209.452 71.5173 209.497 71.1741C209.542 70.8309 209.484 70.4821 209.331 70.1716C209.178 69.8612 208.936 69.6031 208.637 69.43C208.438 69.3145 208.218 69.2395 207.99 69.2091C207.762 69.1788 207.531 69.1938 207.309 69.2532C207.086 69.3127 206.878 69.4155 206.696 69.5557C206.514 69.6958 206.361 69.8706 206.247 70.07Z" fill="#455A64"/>
<path d="M214.871 50.5C214.754 50.4912 214.637 50.4912 214.521 50.5L213.481 50.53C213.251 50.53 212.981 50.53 212.711 50.565L211.796 50.695L210.726 50.85L209.526 51.145C207.47 51.6553 205.512 52.4999 203.731 53.645C201.096 55.3229 198.879 57.5809 197.25 60.2464C195.621 62.912 194.622 65.9146 194.331 69.025C194.252 69.9578 194.234 70.8948 194.276 71.83C194.311 72.3 194.301 72.785 194.371 73.26C194.441 73.735 194.516 74.22 194.586 74.705C194.952 76.6921 195.609 78.6144 196.536 80.41C197.523 82.2913 198.777 84.0193 200.261 85.54C201.841 87.0941 203.653 88.3945 205.631 89.395C207.678 90.4423 209.893 91.1194 212.176 91.395C212.754 91.4811 213.337 91.5296 213.921 91.54C214.508 91.5842 215.097 91.5959 215.686 91.575C216.873 91.526 218.054 91.3771 219.216 91.13C221.724 90.5865 224.11 89.5811 226.251 88.165L226.041 88.19L233.206 91.065L233.631 91.235L233.511 90.795L231.401 83.135L231.366 83.32C233.311 80.7444 234.621 77.7467 235.191 74.57C235.465 73.0868 235.559 71.5758 235.471 70.07C235.454 69.3477 235.385 68.6276 235.266 67.915C235.212 67.5617 235.157 67.2117 235.101 66.865C235.041 66.52 234.936 66.185 234.851 65.865C233.65 61.1544 230.815 57.0236 226.851 54.21C225.388 53.1627 223.788 52.3215 222.096 51.71L221.021 51.325L220.021 51.065L219.091 50.835C218.791 50.78 218.501 50.75 218.231 50.705C217.691 50.64 217.231 50.545 216.796 50.525L215.746 50.49H215.101C215.028 50.4846 214.954 50.4846 214.881 50.49C214.952 50.5126 215.026 50.5228 215.101 50.52L215.741 50.575L216.786 50.645C217.201 50.675 217.671 50.78 218.211 50.86C222.1 51.5358 225.71 53.3261 228.602 56.0136C231.493 58.7011 233.543 62.1703 234.501 66C234.576 66.33 234.681 66.66 234.741 67C234.801 67.34 234.841 67.68 234.896 68.03C235.01 68.7295 235.074 69.4363 235.086 70.145C235.165 71.6163 235.067 73.0918 234.796 74.54C234.215 77.6471 232.916 80.5751 231.001 83.09L230.936 83.175L230.966 83.28C231.632 85.7533 232.329 88.3083 233.056 90.945L233.361 90.675L226.196 87.79L226.086 87.745L225.981 87.81C222.908 89.846 219.334 90.998 215.651 91.14C215.076 91.1601 214.5 91.1501 213.926 91.11C213.355 91.0996 212.785 91.0511 212.221 90.965C209.989 90.6949 207.823 90.0331 205.821 89.01C203.886 88.0308 202.112 86.7611 200.561 85.245C199.106 83.7633 197.874 82.0792 196.901 80.245C195.998 78.4826 195.358 76.5977 195.001 74.65C194.926 74.15 194.851 73.705 194.781 73.235C194.711 72.765 194.721 72.295 194.686 71.83C194.639 70.9134 194.652 69.9948 194.726 69.08C194.998 66.0184 195.964 63.0591 197.55 60.4263C199.137 57.7936 201.301 55.5566 203.881 53.885C205.632 52.7268 207.558 51.859 209.586 51.315L210.766 51L211.826 50.825L212.736 50.675C213.016 50.645 213.271 50.635 213.496 50.62L214.531 50.545C214.645 50.542 214.759 50.5269 214.871 50.5Z" fill="#455A64"/>
</svg>
