<svg width="24" height="24" viewBox="0 0 24 24" fill="none" xmlns="http://www.w3.org/2000/svg">
<mask id="mask0_1074_1251" style="mask-type:alpha" maskUnits="userSpaceOnUse" x="0" y="0" width="24" height="24">
<rect width="24" height="24" fill="#D9D9D9"/>
</mask>
<g mask="url(#mask0_1074_1251)">
<path d="M17.8461 17.1376H14.9998C14.6806 17.1376 14.4112 17.0278 14.1916 16.8083C13.9721 16.5886 13.8623 16.3192 13.8623 16C13.8623 15.6809 13.9721 15.4115 14.1916 15.1918C14.4112 14.9723 14.6806 14.8625 14.9998 14.8625H17.8461L17.1613 14.1778C16.954 13.9705 16.8513 13.7144 16.8533 13.4095C16.8553 13.1047 16.9722 12.8363 17.2041 12.6043C17.4154 12.3931 17.6806 12.2875 17.9998 12.2875C18.319 12.2875 18.5842 12.3931 18.7956 12.6043L21.3896 15.1983C21.4887 15.2976 21.5673 15.4178 21.6253 15.5588C21.6833 15.6996 21.7123 15.8467 21.7123 16C21.7123 16.1534 21.6833 16.3005 21.6253 16.4413C21.5673 16.5823 21.4887 16.7025 21.3896 16.8018L18.7956 19.3958C18.5842 19.607 18.3211 19.7147 18.0063 19.7191C17.6915 19.7234 17.4161 19.6076 17.1803 19.3718C16.973 19.1645 16.8693 18.9062 16.8693 18.5971C16.8693 18.2879 16.973 18.0296 17.1803 17.8223L17.8461 17.1376ZM4.13731 17.1376C3.50764 17.1376 2.97105 16.9158 2.52755 16.4723C2.08405 16.0288 1.8623 15.4922 1.8623 14.8625V5.13755C1.8623 4.50788 2.08405 3.9713 2.52755 3.5278C2.97105 3.0843 3.50764 2.86255 4.13731 2.86255H16.8623C17.492 2.86255 18.0286 3.0843 18.4721 3.5278C18.9156 3.9713 19.1373 4.50788 19.1373 5.13755V8.83005C19.1373 9.13255 19.0234 9.39772 18.7956 9.62555C18.5676 9.85355 18.3023 9.96755 17.9998 9.96755C17.6806 9.96755 17.4112 9.85772 17.1916 9.63805C16.9721 9.41855 16.8623 9.14922 16.8623 8.83005V6.66305L10.3998 11.1676L4.13731 6.68805V14.8625H10.8238C11.143 14.8625 11.4123 14.9723 11.6318 15.1918C11.8515 15.4115 11.9613 15.6809 11.9613 16C11.9613 16.3192 11.8515 16.5886 11.6318 16.8083C11.4123 17.0278 11.143 17.1376 10.8238 17.1376H4.13731ZM5.87431 5.13755L10.3998 8.38255L15.0573 5.13755H5.87431Z" fill="#3DBB47"/>
</g>
</svg>
