<svg width="24" height="24" viewBox="0 0 24 24" fill="none" xmlns="http://www.w3.org/2000/svg">
<mask id="mask0_1116_135" style="mask-type:alpha" maskUnits="userSpaceOnUse" x="0" y="0" width="24" height="24">
<rect width="24" height="24" fill="#D9D9D9"/>
</mask>
<g mask="url(#mask0_1116_135)">
<path d="M21.2032 20.7675C21.0578 20.7675 20.9169 20.7395 20.7804 20.6835C20.6438 20.6275 20.5175 20.5415 20.4017 20.4255L18.2869 18.311H8.16743C7.5376 18.311 7.00093 18.0893 6.55743 17.6458C6.1141 17.2023 5.89243 16.6656 5.89243 16.0358V15.0358H16.7907C17.4203 15.0358 17.9569 14.8141 18.4004 14.3708C18.8439 13.9273 19.0657 13.3906 19.0657 12.7608V5.8745H20.0657C20.6953 5.8745 21.2319 6.09626 21.6754 6.53976C22.1189 6.98326 22.3407 7.51984 22.3407 8.1495V19.6108C22.3407 19.9548 22.2258 20.2335 21.9959 20.447C21.7659 20.6607 21.5017 20.7675 21.2032 20.7675ZM3.93418 11.655L4.82818 10.7608H14.7907V3.91025H3.93418V11.655ZM2.79668 15.5343C2.49818 15.5343 2.23393 15.4274 2.00393 15.2138C1.7741 15.0003 1.65918 14.7216 1.65918 14.3778V3.91025C1.65918 3.28059 1.88093 2.74401 2.32443 2.30051C2.76793 1.85701 3.30451 1.63525 3.93418 1.63525H14.7907C15.4203 1.63525 15.9569 1.85701 16.4004 2.30051C16.8439 2.74401 17.0657 3.28059 17.0657 3.91025V10.7608C17.0657 11.3906 16.8439 11.9273 16.4004 12.3708C15.9569 12.8141 15.4203 13.0358 14.7907 13.0358H5.75493L3.59243 15.1925C3.47643 15.3083 3.3511 15.3943 3.21643 15.4503C3.08193 15.5063 2.94201 15.5343 2.79668 15.5343Z" fill="#3DBB47"/>
</g>
</svg>
