<svg width="24" height="24" viewBox="0 0 24 24" fill="none" xmlns="http://www.w3.org/2000/svg">
<mask id="mask0_1074_1248" style="mask-type:alpha" maskUnits="userSpaceOnUse" x="0" y="0" width="24" height="24">
<rect width="24" height="24" fill="#D9D9D9"/>
</mask>
<g mask="url(#mask0_1074_1248)">
<path d="M20.1868 11.7552C19.9066 11.7552 19.6593 11.6554 19.445 11.4557C19.2307 11.2561 19.1028 11.0086 19.0615 10.7132C18.8408 9.18322 18.1887 7.87538 17.105 6.78972C16.0213 5.70388 14.7144 5.05072 13.1843 4.83022C12.8891 4.78888 12.6417 4.66405 12.442 4.45572C12.2423 4.24755 12.1425 3.99597 12.1425 3.70097C12.1425 3.40597 12.2467 3.15963 12.455 2.96197C12.6633 2.7643 12.9064 2.68213 13.1843 2.71547C15.2923 2.9568 17.0909 3.82305 18.5803 5.31422C20.0696 6.80555 20.9349 8.60522 21.1763 10.7132C21.2096 10.9911 21.1274 11.2341 20.9298 11.4425C20.7321 11.651 20.4844 11.7552 20.1868 11.7552ZM15.9138 11.7552C15.6931 11.7552 15.4934 11.6762 15.3148 11.5182C15.1361 11.3602 14.9992 11.1502 14.904 10.8882C14.7707 10.4407 14.5324 10.0455 14.1893 9.70247C13.8461 9.3593 13.4508 9.12105 13.0033 8.98772C12.7414 8.89238 12.5325 8.75547 12.3765 8.57697C12.2205 8.3983 12.1425 8.1903 12.1425 7.95297C12.1425 7.60763 12.2642 7.3258 12.5075 7.10747C12.7507 6.8893 13.0219 6.81747 13.3213 6.89197C14.2348 7.11263 15.021 7.55255 15.68 8.21172C16.339 8.87072 16.7788 9.65688 16.9995 10.5702C17.0742 10.8696 16.9992 11.1419 16.7745 11.3872C16.5498 11.6326 16.2629 11.7552 15.9138 11.7552ZM19.961 21.2035C17.8533 21.2035 15.771 20.7443 13.714 19.826C11.6568 18.9076 9.78301 17.6042 8.09251 15.9157C6.40184 14.2271 5.09742 12.3536 4.17926 10.2952C3.26092 8.23688 2.80176 6.15322 2.80176 4.04422C2.80176 3.68788 2.91992 3.39088 3.15626 3.15322C3.39276 2.91572 3.68834 2.79697 4.04301 2.79697H8.08701C8.41201 2.79697 8.69009 2.89305 8.92126 3.08522C9.15243 3.27738 9.29668 3.52372 9.35401 3.82422L9.99801 7.19847C10.0472 7.52497 10.0398 7.8018 9.97601 8.02897C9.91201 8.25614 9.78942 8.4543 9.60826 8.62347L7.14726 11.0257C7.46476 11.5986 7.84067 12.1566 8.27501 12.6997C8.70951 13.2429 9.19376 13.7731 9.72776 14.2905C10.2246 14.7871 10.7364 15.2424 11.2633 15.6562C11.7899 16.07 12.3421 16.4443 12.9198 16.779L15.3115 14.4052C15.5053 14.2152 15.743 14.0788 16.0245 13.996C16.306 13.913 16.5933 13.8961 16.8865 13.9452L20.175 14.6275C20.4922 14.718 20.7427 14.8716 20.9265 15.0885C21.1103 15.3053 21.2023 15.564 21.2023 15.8645V19.9562C21.2023 20.3126 21.0833 20.6096 20.8455 20.8472C20.6077 21.0847 20.3128 21.2035 19.961 21.2035ZM6.05976 8.90447L7.70401 7.30847L7.29076 5.07197H5.10776C5.18309 5.72747 5.29267 6.37447 5.43651 7.01297C5.58034 7.65147 5.78809 8.28197 6.05976 8.90447ZM15.0338 17.8845C15.6599 18.1558 16.2995 18.3728 16.9525 18.5355C17.6057 18.6981 18.2639 18.8085 18.9273 18.8665V16.6965L16.6968 16.2335L15.0338 17.8845Z" fill="#3DBB47"/>
</g>
</svg>
